<svg xmlns="http://www.w3.org/2000/svg" viewBox="0 0 145.03 147.43"><defs><style>.cls-1,.cls-2{fill:#fff;}.cls-1{stroke:#fff;stroke-miterlimit:10;stroke-width:0.25px;opacity:0.3;}</style></defs><title>bouton-2</title><g id="fleche"><circle class="cls-1" cx="68.84" cy="76.47" r="36.81"/><path class="cls-2" d="M52.32,43.74l-.84.56h0a.26.26,0,0,1-.29-.43l.05,0,.94-.37a.16.16,0,0,1,.2.09A.18.18,0,0,1,52.32,43.74Z"/><path class="cls-2" d="M48.3,46.66l-.76.63h0a.69.69,0,0,1-1-.09.68.68,0,0,1,.09-1l.09-.06.87-.53a.61.61,0,0,1,.7,1Z"/><path class="cls-2" d="M44.67,50l-.68.69,0,0a1,1,0,0,1-1.38,0,1,1,0,0,1,0-1.38l.07-.06.78-.67a.93.93,0,0,1,1.27,1.35Z"/><path class="cls-2" d="M41.46,53.61l-.58.77,0,0A1.17,1.17,0,0,1,39,53l0-.06.67-.78a1.15,1.15,0,0,1,1.78,1.44Z"/><path class="cls-2" d="M38.73,57.6l-.49.83v0a1.3,1.3,0,0,1-1.78.45A1.29,1.29,0,0,1,36,57.14l0,0,.55-.87a1.27,1.27,0,0,1,2.18,1.32Z"/><path class="cls-2" d="M36.51,61.87l-.39.88v0a1.34,1.34,0,0,1-2.46-1.08l.41-1a1.35,1.35,0,1,1,2.47,1.07h0Z"/><path class="cls-2" d="M34.78,66.36l-.29.92,0,0a1.25,1.25,0,0,1-1.57.82,1.27,1.27,0,0,1-.85-1.5l.26-1a1.27,1.27,0,0,1,1.56-.93,1.29,1.29,0,0,1,.94,1.56.19.19,0,0,0,0,.07Z"/><path class="cls-2" d="M33.52,71l-.2.95v0a1,1,0,0,1-1.2.8,1,1,0,0,1-.81-1.08l.08-1a1.08,1.08,0,1,1,2.15.17.51.51,0,0,1,0,.13Z"/><path class="cls-2" d="M32.81,75.87l-.06,1v0a.72.72,0,0,1-.76.68.74.74,0,0,1-.68-.69l0-1A.79.79,0,0,1,32,75a.78.78,0,0,1,.81.74v.11Z"/><path class="cls-2" d="M32.83,80.78l.09,1h0a.51.51,0,0,1-.45.56.52.52,0,0,1-.56-.43l-.16-1a.55.55,0,0,1,.44-.63.56.56,0,0,1,.63.45v0Z"/><path class="cls-2" d="M33.65,85.65l.26.95h0a.46.46,0,0,1-.88.25h0l-.27-1a.45.45,0,0,1,.87-.24Z"/><path class="cls-2" d="M35.27,90.3l.41.9h0a.55.55,0,0,1-.27.72.54.54,0,0,1-.71-.27v0l-.38-.94a.51.51,0,0,1,.29-.67.5.5,0,0,1,.65.26Z"/><path class="cls-2" d="M37.61,94.63l.54.82h0a.74.74,0,0,1-.2,1,.73.73,0,0,1-1-.2.16.16,0,0,1,0-.07l-.48-.9a.69.69,0,0,1,1.17-.71Z"/><path class="cls-2" d="M40.56,98.53l.65.73v0a1,1,0,1,1-1.48,1.33l-.07-.08-.6-.83a.95.95,0,0,1,1.47-1.19Z"/><path class="cls-2" d="M44,102l.72.63,0,0a1.23,1.23,0,0,1-1.61,1.85l-.08-.07-.72-.74A1.19,1.19,0,0,1,44,102Z"/><path class="cls-2" d="M47.75,105l.8.55,0,0A1.37,1.37,0,0,1,47,107.81l-.05,0-.83-.63A1.34,1.34,0,0,1,47.72,105Z"/><path class="cls-2" d="M51.86,107.49l.86.43,0,0a1.48,1.48,0,1,1-1.33,2.64l-.05,0-.91-.51a1.45,1.45,0,0,1,1.36-2.57Z"/><path class="cls-2" d="M56.24,109.42l.91.31,0,0a1.56,1.56,0,1,1-1,3h0l-1-.38a1.55,1.55,0,0,1,1.06-2.91Z"/><path class="cls-2" d="M60.83,110.77l.94.2h0a1.6,1.6,0,1,1-.68,3.13h0l-1-.23a1.6,1.6,0,1,1,.69-3.12Z"/><path class="cls-2" d="M65.55,111.55l1,.09h0a1.57,1.57,0,0,1-.25,3.13l-1-.07a1.58,1.58,0,0,1,.2-3.16h.09Z"/><path class="cls-2" d="M70.34,111.75l1,0h0a1.48,1.48,0,0,1,.16,3l-1,.08a1.5,1.5,0,0,1-.24-3h.12Z"/><path class="cls-2" d="M75.13,111.37l1-.16h0a1.33,1.33,0,0,1,.5,2.61l-1,.22a1.36,1.36,0,1,1-.59-2.65l.07,0Z"/><path class="cls-2" d="M79.86,110.38l.93-.27h0a1.12,1.12,0,0,1,1.4.76,1.14,1.14,0,0,1-.68,1.37l-1,.37a1.17,1.17,0,0,1-.84-2.18l.09,0Z"/><path class="cls-2" d="M84.45,108.8l.9-.39h0a.87.87,0,0,1,1.13.46.86.86,0,0,1-.37,1.08l-.89.51a.91.91,0,0,1-1.25-.34.92.92,0,0,1,.34-1.26l.09,0Z"/><path class="cls-2" d="M88.87,106.65l.85-.49h0a.51.51,0,0,1,.7.19.52.52,0,0,1-.12.66l-.8.64a.6.6,0,0,1-.83-.09.59.59,0,0,1,.09-.84l.07,0Z"/><path class="cls-2" d="M93,104l.27-.2a.15.15,0,0,1,.21,0,.15.15,0,0,1,0,.19l-.23.25a.19.19,0,0,1-.26,0,.17.17,0,0,1,0-.25Z"/><path class="cls-2" d="M76.2,107.61l1,0a.16.16,0,0,1,0,.32h-1a.15.15,0,0,1-.16-.14A.16.16,0,0,1,76.2,107.61Z"/><path class="cls-2" d="M81.16,107.25l1-.15h0a.18.18,0,0,1,.21.15.19.19,0,0,1-.15.22h0l-1,.14a.2.2,0,0,1-.21-.16A.19.19,0,0,1,81.16,107.25Z"/><path class="cls-2" d="M86,106.17l.95-.3h0a.28.28,0,1,1,.18.54h0l-1,.27a.27.27,0,0,1-.32-.19.26.26,0,0,1,.17-.32Z"/><path class="cls-2" d="M90.63,104.39l.89-.44h0a.43.43,0,0,1,.38.78h0l-.94.39a.41.41,0,0,1-.33-.74Z"/><path class="cls-2" d="M94.93,102l.81-.55h0a.63.63,0,1,1,.71,1l0,0-.88.5a.59.59,0,0,1-.63-1Z"/><path class="cls-2" d="M98.82,99l.73-.65,0,0a.83.83,0,0,1,1.11,1.23s0,0-.05,0l-.81.62a.8.8,0,0,1-1.11-.15.78.78,0,0,1,.1-1.06Z"/><path class="cls-2" d="M102.27,95.52l.63-.74v0a1,1,0,0,1,1.45-.12,1,1,0,0,1,.12,1.44l-.06.06-.72.73a1,1,0,0,1-1.45-1.32Z"/><path class="cls-2" d="M105.21,91.66l.53-.8,0,0a1.19,1.19,0,1,1,2,1.31l0,0-.61.84a1.15,1.15,0,0,1-1.62.25,1.17,1.17,0,0,1-.29-1.57Z"/><path class="cls-2" d="M107.65,87.49l.42-.86,0,0a1.29,1.29,0,1,1,2.32,1.15v0l-.48.92a1.28,1.28,0,0,1-2.29-1.16Z"/><path class="cls-2" d="M109.55,83.07l.3-.92v0a1.35,1.35,0,1,1,2.56.86v0l-.35,1a1.34,1.34,0,0,1-2.53-.88Z"/><path class="cls-2" d="M110.88,78.44l.19-.94v0a1.33,1.33,0,1,1,2.61.53l-.2,1a1.34,1.34,0,1,1-2.62-.52h0Z"/><path class="cls-2" d="M111.61,73.68l.07-1v0a1.28,1.28,0,0,1,2.55.16l0,1a1.3,1.3,0,0,1-2.59-.12v-.07Z"/><path class="cls-2" d="M111.75,68.85l0-1v0a1.16,1.16,0,0,1,2.32-.17l.1,1A1.19,1.19,0,0,1,113.06,70,1.21,1.21,0,0,1,111.75,69v-.1Z"/><path class="cls-2" d="M111.28,64l-.17-1v0a1,1,0,0,1,2-.41l.24,1a1,1,0,0,1-2,.49s0,0,0-.06Z"/><path class="cls-2" d="M110.16,59.28l-.3-.93v0a.87.87,0,0,1,1.64-.59l.38,1a.9.9,0,0,1-1.68.66l0,0Z"/><path class="cls-2" d="M108.4,54.72l-.43-.88v0a.72.72,0,0,1,1.28-.67l.5.89a.75.75,0,1,1-1.31.74l0,0Z"/><path class="cls-2" d="M106,50.43l-.56-.82h0a.58.58,0,0,1,1-.67l.6.81a.6.6,0,0,1-1,.72v0Z"/><path class="cls-2" d="M103,46.52l-.66-.74h0a.48.48,0,0,1,0-.69.5.5,0,0,1,.68,0l.71.73a.52.52,0,0,1,0,.72.51.51,0,0,1-.72,0h0Z"/><path class="cls-2" d="M99.51,43.07l-.76-.62h0a.46.46,0,0,1-.07-.65.48.48,0,0,1,.65-.07l.79.64a.47.47,0,1,1-.59.72h0Z"/><path class="cls-2" d="M95.52,40.17l-.84-.51h0a.47.47,0,1,1,.48-.8h0l.86.54a.45.45,0,0,1,.15.63.45.45,0,0,1-.63.15Z"/><path class="cls-2" d="M91.17,37.86l-.91-.38h0a.51.51,0,1,1,.4-.93h0l.92.42a.5.5,0,0,1-.39.91Z"/><path class="cls-2" d="M86.53,36.2l-1-.24h0a.59.59,0,0,1,.29-1.14h0l1,.29a.57.57,0,0,1,.37.71.56.56,0,0,1-.67.38Z"/><path class="cls-2" d="M81.71,35.25l-1-.11h0a.72.72,0,0,1-.63-.79.71.71,0,0,1,.79-.62h0l1,.17a.68.68,0,0,1-.19,1.35Z"/><path class="cls-2" d="M76.82,35l-1,0h0a.83.83,0,0,1,0-1.66h0l1,0a.81.81,0,0,1,0,1.61Z"/><path class="cls-2" d="M72,35.34l-1,.15h0a1,1,0,0,1-1.11-.81,1,1,0,0,1,.8-1.11h.06l1-.11a1,1,0,0,1,1,.85.94.94,0,0,1-.79,1Z"/><path class="cls-2" d="M67.2,36.37l-.93.29h0a1.11,1.11,0,1,1-.65-2.12l.06,0,1-.25a1.1,1.1,0,0,1,1.32.8,1.08,1.08,0,0,1-.74,1.29Z"/><path class="cls-2" d="M62.64,38l-.88.39,0,0a1.21,1.21,0,1,1-1-2.21h0l.95-.39A1.19,1.19,0,0,1,62.67,38Z"/><path class="cls-2" d="M58.35,40.23l-.82.51,0,0a1.31,1.31,0,1,1-1.39-2.21l.05,0,.89-.52a1.28,1.28,0,0,1,1.32,2.2Z"/><path class="cls-2" d="M54.41,43l-.75.61,0,0a1.38,1.38,0,1,1-1.75-2.13h0l.82-.64A1.36,1.36,0,0,1,54.44,43Z"/><path class="cls-2" d="M50.86,46.24l-.65.71,0,0A1.43,1.43,0,1,1,48.09,45l0,0,.72-.75a1.42,1.42,0,0,1,2.06,2Z"/><path class="cls-2" d="M47.79,49.93l-.56.79,0,0A1.48,1.48,0,0,1,44.79,49l0,0,.62-.84a1.47,1.47,0,0,1,2.38,1.72Z"/><path class="cls-2" d="M45.24,54l-.44.85v0a1.54,1.54,0,1,1-2.73-1.41l0,0,.5-.91A1.52,1.52,0,0,1,45.27,54Z"/><path class="cls-2" d="M43.28,58.36l-.32.9v0a1.59,1.59,0,0,1-3-1.06v0l.37-1a1.58,1.58,0,0,1,3,1.08Z"/><path class="cls-2" d="M41.9,62.93l-.2.94v0a1.6,1.6,0,0,1-3.12-.68h0l.22-1a1.6,1.6,0,1,1,3.12.68Z"/><path class="cls-2" d="M41.14,67.65l-.07.95v.05a1.6,1.6,0,0,1-3.2-.25h0l.08-1a1.61,1.61,0,1,1,3.2.26Z"/><path class="cls-2" d="M41,72.43l0,1v0a1.58,1.58,0,0,1-3.15.17l-.07-1a1.59,1.59,0,0,1,3.17-.2v.07Z"/><path class="cls-2" d="M41.48,77.2l.17.94v0A1.55,1.55,0,0,1,40.43,80a1.53,1.53,0,0,1-1.78-1.21l-.21-1a1.55,1.55,0,1,1,3-.61v.07Z"/><path class="cls-2" d="M42.6,81.85l.29.92v0a1.48,1.48,0,0,1-2.8,1l-.35-1a1.5,1.5,0,1,1,2.82-1l0,0Z"/><path class="cls-2" d="M44.3,86.34l.41.87,0,0a1.37,1.37,0,0,1-.66,1.84,1.39,1.39,0,0,1-1.82-.6l-.48-.92a1.41,1.41,0,0,1,2.49-1.31l0,0Z"/><path class="cls-2" d="M46.57,90.6l.52.81,0,0a1.23,1.23,0,0,1-2,1.39L44.46,92a1.27,1.27,0,0,1,2-1.5l0,.07Z"/><path class="cls-2" d="M49.37,94.55l.62.74,0,0a1,1,0,0,1-1.55,1.39L47.74,96a1.09,1.09,0,1,1,1.55-1.52l.06.06Z"/><path class="cls-2" d="M52.67,98.12l.72.66,0,0a.82.82,0,0,1,.05,1.17.84.84,0,0,1-1.13.1l-.81-.63a.88.88,0,0,1,1.08-1.38l0,0Z"/><path class="cls-2" d="M56.45,101.23l.81.56h0a.63.63,0,0,1-.67,1.06l-.88-.51a.66.66,0,0,1-.24-.91.67.67,0,0,1,.91-.25l0,0Z"/><path class="cls-2" d="M60.64,103.81l.89.44h0a.43.43,0,0,1,.19.58.44.44,0,0,1-.56.21l-.93-.39A.47.47,0,0,1,60,104a.46.46,0,0,1,.61-.25h0Z"/><path class="cls-2" d="M65.19,105.76l.94.31h0a.29.29,0,0,1,.18.37.3.3,0,0,1-.35.19l-1-.27a.31.31,0,0,1-.22-.39.32.32,0,0,1,.38-.22h0Z"/><path class="cls-2" d="M70,107l1,.17h0a.2.2,0,0,1,.16.22.19.19,0,0,1-.22.16l-1-.14a.2.2,0,0,1-.17-.23A.21.21,0,0,1,70,107Z"/><path class="cls-2" d="M74.92,107.58l1,0a.15.15,0,0,1,.15.15.16.16,0,0,1-.15.16l-1,0a.16.16,0,0,1-.16-.16.17.17,0,0,1,.17-.16Z"/><path class="cls-2" d="M80.08,52.28l-.27.44a.28.28,0,0,1-.47-.29.28.28,0,0,1,.09-.1l.44-.26a.15.15,0,0,1,.21,0A.15.15,0,0,1,80.08,52.28Z"/><path class="cls-2" d="M77.65,55.77c-.19.25-.39.48-.58.72a1,1,0,0,1-1.58-1.25,1.21,1.21,0,0,1,.16-.16c.25-.19.48-.4.73-.58a.91.91,0,0,1,1.27,1.27Z"/><path class="cls-2" d="M74.66,59.3,74,60a1.32,1.32,0,0,1-1.94-1.79l.08-.08.68-.62a1.28,1.28,0,0,1,1.81,1.81Z"/><path class="cls-2" d="M71.4,62.56c-.23.2-.46.4-.71.59a1.2,1.2,0,0,1-1.7-.21,1.22,1.22,0,0,1,0-1.49c.19-.24.4-.47.6-.71a1.29,1.29,0,1,1,2,1.67A1.06,1.06,0,0,1,71.4,62.56Z"/><path class="cls-2" d="M67.75,65.43,67,66a.62.62,0,0,1-.88-.1.65.65,0,0,1,0-.78l.58-.73a.74.74,0,1,1,1.15.92Z"/><path class="cls-2" d="M64.3,68.5l-.64.66a.47.47,0,0,1-.67,0,.47.47,0,0,1,0-.67h0l.66-.64a.46.46,0,0,1,.65,0A.47.47,0,0,1,64.3,68.5Z"/><path class="cls-2" d="M61.26,72l-.31.39V71.2l.4.31a.9.9,0,0,1,.14,1.26.89.89,0,0,1-1.25.14.67.67,0,0,1-.15-.14l-.31-.4-.12-.15a.72.72,0,0,1,.12-1l.39-.32A.78.78,0,0,1,61.26,72Z"/><path class="cls-2" d="M64.21,73.83l.68.61a1.33,1.33,0,1,1-1.75,2,.68.68,0,0,1-.12-.12l-.61-.68a1.28,1.28,0,0,1,1.8-1.8Z"/><path class="cls-2" d="M67.61,76.9l.68.62a1.55,1.55,0,0,1-2.1,2.27l-.09-.08L65.48,79a1.51,1.51,0,0,1,2.13-2.13Z"/><path class="cls-2" d="M70.92,80.07l.64.66A1.59,1.59,0,0,1,69.31,83l-.66-.64A1.61,1.61,0,1,1,70.88,80Z"/><path class="cls-2" d="M74,83.45l.6.69a1.35,1.35,0,0,1-1.9,1.9l-.69-.6a1.41,1.41,0,0,1,1.86-2.12Z"/><path class="cls-2" d="M77,87l.57.73A.89.89,0,0,1,77.37,89a.87.87,0,0,1-1.07,0l-.73-.57a1,1,0,1,1,1.22-1.56Z"/><path class="cls-2" d="M79.69,90.74l.27.43a.15.15,0,0,1,0,.21.15.15,0,0,1-.17,0l-.43-.27a.27.27,0,1,1,.29-.45A.3.3,0,0,1,79.69,90.74Z"/></g></svg>