<svg xmlns="http://www.w3.org/2000/svg" viewBox="0 0 145.03 147.43"><defs><style>.cls-1,.cls-2{fill:#fff;}.cls-1{opacity:0.3;}</style></defs><title>bouton-droite</title><g id="fleche"><circle class="cls-1" cx="75.34" cy="79.23" r="36.81"/><path class="cls-2" d="M92,46.23l.94.37a.27.27,0,0,1,.15.34.25.25,0,0,1-.34.14l0,0h0l-.83-.55a.16.16,0,0,1,0-.21A.16.16,0,0,1,92,46.23Z"/><path class="cls-2" d="M96.57,48.42l.87.53a.68.68,0,0,1,.23.94.69.69,0,0,1-.94.23l-.08-.06h0l-.75-.63h0a.62.62,0,0,1-.08-.86A.63.63,0,0,1,96.57,48.42Z"/><path class="cls-2" d="M100.76,51.34l.78.67a1,1,0,0,1-1.27,1.48l-.07-.06v0l-.68-.7h0a.93.93,0,0,1,1.27-1.36Z"/><path class="cls-2" d="M104.46,54.9l.68.78a1.18,1.18,0,1,1-1.78,1.54l0-.06,0,0-.59-.77,0,0a1.14,1.14,0,0,1,1.77-1.44Z"/><path class="cls-2" d="M107.61,59l.55.88A1.29,1.29,0,0,1,106,61.25l0,0,0,0-.49-.83,0,0A1.28,1.28,0,0,1,107.61,59Z"/><path class="cls-2" d="M110.12,63.52l.41.95a1.35,1.35,0,0,1-2.47,1.08v0l-.39-.88v0a1.35,1.35,0,1,1,2.46-1.09Z"/><path class="cls-2" d="M111.87,68.39l.25,1a1.26,1.26,0,0,1-2.42.69v0l-.29-.92v0a1.27,1.27,0,0,1,.84-1.61,1.29,1.29,0,0,1,1.62.84A.19.19,0,0,0,111.87,68.39Z"/><path class="cls-2" d="M112.79,73.47l.08,1a1,1,0,0,1-2,.28v0l-.19-1v0a1.08,1.08,0,0,1,2.12-.43S112.78,73.43,112.79,73.47Z"/><path class="cls-2" d="M112.92,78.6l-.06,1a.71.71,0,0,1-.75.68.72.72,0,0,1-.69-.67v0l-.06-1v0a.78.78,0,1,1,1.56-.1Z"/><path class="cls-2" d="M112.43,83.67l-.17,1a.51.51,0,0,1-1-.13v0l.1-1h0a.54.54,0,1,1,1.08.1Z"/><path class="cls-2" d="M111.4,88.63l-.26,1a.46.46,0,0,1-.89-.24h0l.27-1v0a.45.45,0,0,1,.56-.31A.46.46,0,0,1,111.4,88.63Z"/><path class="cls-2" d="M109.85,93.46l-.37.94a.55.55,0,0,1-.7.3.53.53,0,0,1-.3-.7v0h0l.41-.9h0a.51.51,0,0,1,.94.41Z"/><path class="cls-2" d="M107.76,98.08l-.48.9a.74.74,0,1,1-1.31-.7l0-.06h0l.55-.82v0a.68.68,0,0,1,1-.18A.69.69,0,0,1,107.76,98.08Z"/><path class="cls-2" d="M105.1,102.45l-.6.84a1,1,0,0,1-1.39.22,1,1,0,0,1-.22-1.39L103,102l0,0,.65-.73,0,0a.94.94,0,0,1,1.46,1.18Z"/><path class="cls-2" d="M101.85,106.44l-.72.74a1.23,1.23,0,1,1-1.76-1.71l.08-.07,0,0,.73-.63,0,0a1.18,1.18,0,0,1,1.62,1.72Z"/><path class="cls-2" d="M98,109.91l-.83.63a1.37,1.37,0,0,1-1.64-2.19l0,0,0,0,.79-.55,0,0A1.34,1.34,0,0,1,98,109.91Z"/><path class="cls-2" d="M93.71,112.8l-.9.51a1.48,1.48,0,0,1-1.44-2.58l0,0,0,0,.86-.43,0,0a1.45,1.45,0,0,1,1.36,2.57Z"/><path class="cls-2" d="M89,115.07l-1,.37a1.56,1.56,0,1,1-1.12-2.92h0l0,0,.9-.31,0,0A1.55,1.55,0,0,1,89,115.07Z"/><path class="cls-2" d="M84.07,116.64l-1,.23a1.6,1.6,0,0,1-.69-3.13h0l.93-.2h0a1.6,1.6,0,0,1,.68,3.12Z"/><path class="cls-2" d="M78.92,117.46l-1,.07a1.57,1.57,0,0,1-.25-3.13h0l1-.09h0a1.59,1.59,0,0,1,.3,3.16Z"/><path class="cls-2" d="M73.71,117.51l-1-.08a1.48,1.48,0,0,1,.15-3h0l1,0h0a1.5,1.5,0,0,1,1.46,1.54,1.52,1.52,0,0,1-1.55,1.47Z"/><path class="cls-2" d="M68.57,116.8l-1-.22a1.33,1.33,0,0,1,.5-2.62h0l1,.16h0a1.36,1.36,0,0,1-.43,2.69Z"/><path class="cls-2" d="M63.6,115.36l-1-.37a1.13,1.13,0,0,1-.64-1.46,1.11,1.11,0,0,1,1.36-.67h0l.93.27h0a1.17,1.17,0,0,1-.66,2.24Z"/><path class="cls-2" d="M58.92,113.21,58,112.7a.86.86,0,0,1,.77-1.54h0l.9.39h0a.91.91,0,0,1,.49,1.2.93.93,0,0,1-1.21.49A.31.31,0,0,1,58.92,113.21Z"/><path class="cls-2" d="M54.65,110.4l-.79-.64a.51.51,0,0,1-.08-.73.52.52,0,0,1,.66-.12h0l.86.49h0a.59.59,0,0,1-.59,1Z"/><path class="cls-2" d="M50.89,107l-.22-.25a.14.14,0,0,1,0-.21.17.17,0,0,1,.2,0l.26.2a.18.18,0,0,1-.21.29Z"/><path class="cls-2" d="M68,110.67H67a.16.16,0,0,1-.15-.16.16.16,0,0,1,.16-.16h0l1,0a.15.15,0,0,1,0,.3Z"/><path class="cls-2" d="M63,110.37l-1-.14a.2.2,0,0,1-.16-.22.2.2,0,0,1,.21-.16h0l1,.15a.18.18,0,0,1,.16.2A.19.19,0,0,1,63,110.37Z"/><path class="cls-2" d="M58,109.44l-1-.27a.29.29,0,1,1,.15-.55h0l.94.3h0a.25.25,0,0,1,.17.33A.26.26,0,0,1,58,109.44Z"/><path class="cls-2" d="M53.22,107.89l-.93-.39a.43.43,0,0,1-.24-.57.44.44,0,0,1,.57-.24l0,0h0l.88.44h0a.41.41,0,0,1,.19.54A.42.42,0,0,1,53.22,107.89Z"/><path class="cls-2" d="M48.64,105.73l-.89-.51a.63.63,0,0,1,.63-1.09l0,0h0l.82.55h0a.59.59,0,0,1-.62,1Z"/><path class="cls-2" d="M44.36,103l-.81-.63a.83.83,0,0,1-.16-1.16.84.84,0,0,1,1.17-.15l0,0h0l.73.66,0,0a.78.78,0,0,1,.05,1.11A.79.79,0,0,1,44.36,103Z"/><path class="cls-2" d="M40.47,99.63l-.72-.73a1,1,0,0,1,1.46-1.44l0,.06,0,0,.63.74v0a1,1,0,0,1-1.45,1.33Z"/><path class="cls-2" d="M37.07,95.78l-.61-.84a1.19,1.19,0,0,1,1.92-1.4l0,0,0,0,.53.8,0,0a1.16,1.16,0,0,1-1.91,1.33Z"/><path class="cls-2" d="M34.26,91.45l-.48-.92a1.29,1.29,0,1,1,2.29-1.2v0l0,0,.43.86v0a1.28,1.28,0,0,1-2.28,1.17Z"/><path class="cls-2" d="M32.11,86.74l-.35-1a1.35,1.35,0,0,1,2.54-.91v.06l.31.92v0a1.34,1.34,0,0,1-2.53.88Z"/><path class="cls-2" d="M30.68,81.76l-.2-1a1.34,1.34,0,0,1,2.62-.52v0l.19.94v0a1.34,1.34,0,0,1-2.63.54Z"/><path class="cls-2" d="M30,76.63l0-1a1.28,1.28,0,0,1,2.55-.16v0l.08,1v0a1.29,1.29,0,0,1-2.58.2Z"/><path class="cls-2" d="M30,71.47l.1-1a1.17,1.17,0,0,1,2.33.16v0l0,1v0a1.2,1.2,0,0,1-2.4-.1A.2.2,0,0,0,30,71.47Z"/><path class="cls-2" d="M30.83,66.37l.24-1a1,1,0,0,1,2,.42v0l-.17,1v0a1.05,1.05,0,0,1-2.07-.38S30.83,66.39,30.83,66.37Z"/><path class="cls-2" d="M32.3,61.46l.38-1a.87.87,0,0,1,1.64.58v0L34,62v0a.92.92,0,0,1-1.14.58.9.9,0,0,1-.58-1.14A.43.43,0,0,1,32.3,61.46Z"/><path class="cls-2" d="M34.43,56.8l.5-.89a.72.72,0,0,1,1.28.67v0l-.43.88v0a.76.76,0,0,1-1.36-.66Z"/><path class="cls-2" d="M37.16,52.5l.6-.81a.58.58,0,0,1,1,.67h0l-.55.82h0a.62.62,0,0,1-.84.16.61.61,0,0,1-.15-.84Z"/><path class="cls-2" d="M40.39,48.59l.7-.73a.49.49,0,0,1,.72.67h0l-.66.73h0a.51.51,0,0,1-.72,0,.52.52,0,0,1,0-.72Z"/><path class="cls-2" d="M44.07,45.12l.79-.64a.46.46,0,0,1,.64.07.47.47,0,0,1-.06.65h0l-.76.63h0a.47.47,0,0,1-.66-.06.48.48,0,0,1,.06-.66Z"/><path class="cls-2" d="M48.16,42.14l.86-.53a.47.47,0,0,1,.64.16.46.46,0,0,1-.15.64h0l-.85.51h0a.46.46,0,0,1-.63-.15A.47.47,0,0,1,48.16,42.14Z"/><path class="cls-2" d="M52.6,39.72l.92-.42a.51.51,0,1,1,.42.93h0l-.91.38h0a.49.49,0,0,1-.4-.9Z"/><path class="cls-2" d="M57.33,37.88l1-.3a.59.59,0,0,1,.34,1.13h0l-1,.24h0a.57.57,0,0,1-.3-1.09Z"/><path class="cls-2" d="M62.26,36.65l1-.16a.71.71,0,1,1,.23,1.4h-.05l-1,.11h0a.69.69,0,0,1-.19-1.36Z"/><path class="cls-2" d="M67.33,36.1l1,0a.83.83,0,0,1,.86.8.84.84,0,0,1-.81.86h-.07l-1,0h0a.81.81,0,0,1,0-1.62Z"/><path class="cls-2" d="M72.45,36.22l1,.11a1,1,0,0,1-.21,1.93h-.07l-1-.15h0A.93.93,0,0,1,71.42,37,1,1,0,0,1,72.45,36.22Z"/><path class="cls-2" d="M77.52,37l1,.25A1.11,1.11,0,1,1,78,39.44H77.9L77,39.13h0a1.08,1.08,0,0,1-.73-1.35A1.1,1.1,0,0,1,77.52,37Z"/><path class="cls-2" d="M82.44,38.57l1,.39a1.2,1.2,0,1,1-.91,2.23h0l0,0-.88-.39,0,0a1.19,1.19,0,0,1,.94-2.18Z"/><path class="cls-2" d="M87.11,40.77l.9.52a1.3,1.3,0,1,1-1.3,2.25l0,0,0,0L85.82,43l0,0a1.28,1.28,0,0,1,1.32-2.2Z"/><path class="cls-2" d="M91.44,43.6l.82.65a1.37,1.37,0,0,1-1.7,2.16l0,0,0,0-.74-.62,0,0a1.36,1.36,0,0,1,1.7-2.13Z"/><path class="cls-2" d="M95.34,47l.72.75a1.43,1.43,0,1,1-2,2h0l0,0L93.31,49l0,0a1.41,1.41,0,0,1,2-1.95Z"/><path class="cls-2" d="M98.75,50.94l.61.84A1.48,1.48,0,1,1,97,53.53v0l0,0-.55-.78,0,0a1.47,1.47,0,0,1,2.39-1.72Z"/><path class="cls-2" d="M101.6,55.29l.49.91a1.52,1.52,0,0,1-.61,2.08,1.54,1.54,0,0,1-2.08-.61v0l0,0-.44-.85,0,0a1.52,1.52,0,0,1,2.69-1.42Z"/><path class="cls-2" d="M103.83,60l.37,1a1.58,1.58,0,1,1-3,1.13v0l0,0-.32-.91v0a1.57,1.57,0,0,1,3-1.08Z"/><path class="cls-2" d="M105.38,65l.23,1a1.6,1.6,0,1,1-3.13.69h0v0l-.2-.94v0a1.6,1.6,0,0,1,1.22-1.9A1.58,1.58,0,0,1,105.38,65Z"/><path class="cls-2" d="M106.22,70.11l.09,1a1.61,1.61,0,0,1-3.2.26h0v0l-.07-1v0a1.6,1.6,0,1,1,3.19-.26Z"/><path class="cls-2" d="M106.34,75.32l-.07,1a1.57,1.57,0,0,1-3.14-.17v0l0-1v0a1.59,1.59,0,0,1,3.17.14Z"/><path class="cls-2" d="M105.73,80.5l-.2,1a1.54,1.54,0,0,1-3-.58v0l.17-.94v0a1.54,1.54,0,0,1,3,.55Z"/><path class="cls-2" d="M104.43,85.54l-.36,1a1.48,1.48,0,0,1-2.8-1v0l.29-.92,0,0a1.5,1.5,0,0,1,2.86.9Z"/><path class="cls-2" d="M102.4,90.32l-.48.92A1.38,1.38,0,0,1,99.44,90l0,0,.41-.87,0,0a1.41,1.41,0,0,1,2.54,1.21Z"/><path class="cls-2" d="M99.72,94.76l-.61.83a1.24,1.24,0,0,1-1.73.27,1.23,1.23,0,0,1-.31-1.66l0,0,.52-.82v0a1.27,1.27,0,0,1,2.14,1.36Z"/><path class="cls-2" d="M96.44,98.74l-.73.73a1,1,0,0,1-1.54-1.39l0,0,.62-.75,0,0a1.08,1.08,0,0,1,1.52-.14,1.09,1.09,0,0,1,.15,1.53Z"/><path class="cls-2" d="M92.65,102.2l-.81.63a.83.83,0,0,1-1.08-1.27l0,0,.72-.66,0,0a.88.88,0,0,1,1.24.06.87.87,0,0,1-.05,1.23Z"/><path class="cls-2" d="M88.45,105.11l-.88.51a.62.62,0,0,1-.85-.23.64.64,0,0,1,.18-.83h0l.8-.56h0a.67.67,0,0,1,.76,1.1Z"/><path class="cls-2" d="M83.93,107.42l-.93.39a.44.44,0,0,1-.57-.24.44.44,0,0,1,.21-.56h0l.88-.44h0a.47.47,0,0,1,.63.21.46.46,0,0,1-.21.63Z"/><path class="cls-2" d="M79.18,109.12l-1,.27a.29.29,0,0,1-.36-.21.29.29,0,0,1,.19-.35h0l.94-.31h0a.3.3,0,0,1,.39.2.31.31,0,0,1-.2.39Z"/><path class="cls-2" d="M74.26,110.2l-1,.14a.18.18,0,0,1-.22-.16.19.19,0,0,1,.16-.22h0l1-.17h0a.2.2,0,0,1,.23.17.2.2,0,0,1-.17.24Z"/><path class="cls-2" d="M69.26,110.66h-1a.15.15,0,0,1-.16-.15.16.16,0,0,1,.16-.15l1,0a.16.16,0,0,1,.17.15.16.16,0,0,1-.15.17Z"/><path class="cls-2" d="M64.31,54.83l.44.26a.29.29,0,0,1,.09.39.28.28,0,0,1-.38.09.29.29,0,0,1-.1-.09L64.09,55a.15.15,0,0,1,.06-.21A.14.14,0,0,1,64.31,54.83Z"/><path class="cls-2" d="M67.8,57.26c.25.18.48.39.72.58a1,1,0,0,1-1.25,1.57.81.81,0,0,1-.16-.16c-.2-.24-.4-.47-.58-.72a.9.9,0,0,1,.19-1.27A.92.92,0,0,1,67.8,57.26Z"/><path class="cls-2" d="M71.33,60.25l.68.62a1.32,1.32,0,0,1-1.79,1.94l-.08-.07-.63-.68a1.28,1.28,0,0,1,1.82-1.81Z"/><path class="cls-2" d="M74.59,63.5c.2.24.4.47.59.71a1.21,1.21,0,0,1-1.7,1.7l-.71-.59a1.29,1.29,0,1,1,1.67-2Z"/><path class="cls-2" d="M77.46,67.15l.57.73a.63.63,0,0,1-.88.88l-.73-.57a.74.74,0,0,1-.12-1,.75.75,0,0,1,1-.12Z"/><path class="cls-2" d="M80.52,70.6l.67.64a.49.49,0,0,1,0,.68.47.47,0,0,1-.67,0h0l-.64-.67a.46.46,0,0,1,0-.65A.45.45,0,0,1,80.52,70.6Z"/><path class="cls-2" d="M84,73.64l.4.31a.74.74,0,0,1,.12,1l-.12.15-.31.4a.9.9,0,0,1-1.41-1.12,1,1,0,0,1,.15-.14l.39-.31v1.17l-.31-.39A.78.78,0,0,1,84,73.64Z"/><path class="cls-2" d="M81.76,78.38l-.6.69a1.33,1.33,0,0,1-2-1.75,1.36,1.36,0,0,1,.12-.12l.69-.61a1.27,1.27,0,0,1,1.79,1.79Z"/><path class="cls-2" d="M78.69,81.79l-.62.68a1.55,1.55,0,0,1-2.27-2.1l.09-.09.67-.62a1.51,1.51,0,0,1,2.13,2.13Z"/><path class="cls-2" d="M75.53,85.1l-.67.64a1.59,1.59,0,0,1-2.24-2.25l.63-.66a1.61,1.61,0,1,1,2.32,2.23Z"/><path class="cls-2" d="M72.14,88.2l-.69.6a1.35,1.35,0,0,1-1.9-1.9l.6-.69a1.41,1.41,0,0,1,2.13,1.86Z"/><path class="cls-2" d="M68.6,91.14l-.72.57a.89.89,0,0,1-1.23-.16.87.87,0,0,1,0-1.07l.57-.73a1,1,0,0,1,1.38-.17A1,1,0,0,1,68.78,91,1.45,1.45,0,0,1,68.6,91.14Z"/><path class="cls-2" d="M64.85,93.87l-.43.27a.15.15,0,0,1-.21,0,.17.17,0,0,1,0-.17l.28-.43a.26.26,0,1,1,.44.29Z"/></g></svg>