<svg xmlns="http://www.w3.org/2000/svg" viewBox="0 0 602.99 609.77"><defs><style>* {opacity:0.8}.cls-1{fill:#fff;}</style></defs><title>cercle</title><g id="cercle"><path class="cls-1" d="M601.32,305.55v2.84a.43.43,0,0,1-.43.43.43.43,0,0,1-.43-.43h0l0-2.83a.43.43,0,0,1,.85,0Z"/><path class="cls-1" d="M601,319.72l-.14,2.83a.46.46,0,1,1-.92-.05h0l.15-2.82a.45.45,0,0,1,.47-.44A.47.47,0,0,1,601,319.72Z"/><path class="cls-1" d="M600.06,333.85l-.28,2.82a.49.49,0,1,1-1-.09h0l.28-2.81a.49.49,0,1,1,1,.09Z"/><path class="cls-1" d="M598.43,347.93l-.4,2.8a.53.53,0,1,1-1-.15h0l.42-2.8a.52.52,0,0,1,.58-.44A.53.53,0,0,1,598.43,347.93Z"/><path class="cls-1" d="M596.16,361.92l-.53,2.78a.58.58,0,0,1-1.15-.21v0l.57-2.77a.56.56,0,0,1,.66-.44A.58.58,0,0,1,596.16,361.92Z"/><path class="cls-1" d="M593.28,375.79l-.66,2.76a.7.7,0,0,1-.83.52.71.71,0,0,1-.52-.84h0l.69-2.74a.67.67,0,0,1,1.31.31Z"/><path class="cls-1" d="M589.73,389.52l-.78,2.73a.79.79,0,0,1-1,.54.78.78,0,0,1-.54-1v0l.82-2.7a.79.79,0,0,1,1-.53A.78.78,0,0,1,589.73,389.52Z"/><path class="cls-1" d="M585.54,403.07l-.92,2.7a.9.9,0,1,1-1.71-.58v0l1-2.67a.88.88,0,0,1,1.67.57Z"/><path class="cls-1" d="M580.76,416.45l-1,2.65a1.09,1.09,0,1,1-2-.8v0l1.09-2.6a1.05,1.05,0,0,1,2,.78Z"/><path class="cls-1" d="M575.36,429.58l-1.15,2.59a1.28,1.28,0,0,1-2.33-1l0,0,1.21-2.53a1.23,1.23,0,0,1,1.64-.61A1.25,1.25,0,0,1,575.36,429.58Z"/><path class="cls-1" d="M569.35,442.44,568.07,445a1.46,1.46,0,1,1-2.61-1.31l0-.05,1.33-2.48a1.42,1.42,0,0,1,1.92-.6A1.44,1.44,0,0,1,569.35,442.44Z"/><path class="cls-1" d="M562.72,455l-1.4,2.48a1.65,1.65,0,1,1-2.87-1.62l0,0v0l1.45-2.41h0a1.61,1.61,0,0,1,2.79,1.61Z"/><path class="cls-1" d="M555.49,467.27,554,469.68a1.83,1.83,0,0,1-3.1-1.95l0,0,0,0,1.55-2.34v0a1.79,1.79,0,0,1,3,1.95Z"/><path class="cls-1" d="M547.69,479.17l-1.62,2.34a2,2,0,0,1-3.31-2.3l0,0v0l1.67-2.26v0a2,2,0,0,1,3.21,2.3Z"/><path class="cls-1" d="M539.34,490.7,537.61,493a2.2,2.2,0,0,1-3.5-2.68l0,0,0,0,1.77-2.18h0a2.16,2.16,0,0,1,3.4,2.68Z"/><path class="cls-1" d="M530.45,501.84,528.61,504a2.39,2.39,0,1,1-3.66-3.09l0,0,0,0,1.87-2.09v0a2.36,2.36,0,0,1,3.56,3.1Z"/><path class="cls-1" d="M521.05,512.55l-1.95,2.09a2.59,2.59,0,1,1-3.79-3.53l0,0,0,0,2-2,0,0a2.55,2.55,0,0,1,3.69,3.53Z"/><path class="cls-1" d="M511.14,522.81l-2,2a2.78,2.78,0,1,1-3.89-4l0-.05,0,0,2.06-1.91v0a2.75,2.75,0,0,1,3.79,4Z"/><path class="cls-1" d="M500.75,532.59l-2.13,1.9a3,3,0,1,1-3.95-4.44l.05,0,0,0,2.14-1.8,0,0a2.93,2.93,0,0,1,3.84,4.43Z"/><path class="cls-1" d="M489.91,541.89l-2.22,1.8a3.17,3.17,0,0,1-4-4.93l.05,0,0,0L486,537l0,0a3.13,3.13,0,0,1,3.87,4.92Z"/><path class="cls-1" d="M478.62,550.63l-2.32,1.68a3.3,3.3,0,1,1-3.88-5.34l0,0,0,0,2.29-1.61h0a3.28,3.28,0,0,1,3.81,5.33Z"/><path class="cls-1" d="M466.9,558.82l-2.39,1.57a3.43,3.43,0,0,1-3.77-5.73l0,0,0,0,2.36-1.49,0,0a3.4,3.4,0,0,1,3.69,5.72Z"/><path class="cls-1" d="M454.8,566.44l-2.46,1.46a3.55,3.55,0,0,1-3.62-6.11l0,0,.05,0,2.43-1.38,0,0a3.52,3.52,0,0,1,3.53,6.1Z"/><path class="cls-1" d="M442.34,573.47l-2.53,1.33a3.65,3.65,0,0,1-3.38-6.46h0l0,0L439,567l0,0a3.63,3.63,0,0,1,3.34,6.45Z"/><path class="cls-1" d="M429.54,579.86l-2.6,1.2a3.7,3.7,0,0,1-3.11-6.71h.06l2.54-1.16h0a3.69,3.69,0,0,1,3.08,6.7Z"/><path class="cls-1" d="M416.44,585.63l-2.65,1.08a3.75,3.75,0,1,1-2.83-7H411l2.6-1,0,0a3.74,3.74,0,0,1,2.79,6.94Z"/><path class="cls-1" d="M403.08,590.77l-2.7,1a3.8,3.8,0,1,1-2.53-7.17h.06l2.64-.91h0a3.79,3.79,0,0,1,2.49,7.16Z"/><path class="cls-1" d="M389.47,595.22l-2.75.81a3.79,3.79,0,0,1-2.15-7.27h0l2.68-.8h0a3.8,3.8,0,0,1,2.18,7.28Z"/><path class="cls-1" d="M375.65,599l-2.78.67a3.74,3.74,0,0,1-1.78-7.27h0l2.71-.67h0a3.76,3.76,0,0,1,1.81,7.29Z"/><path class="cls-1" d="M361.67,602.06l-2.81.54a3.7,3.7,0,0,1-1.41-7.26h0l2.74-.54h0a3.71,3.71,0,0,1,1.44,7.27Z"/><path class="cls-1" d="M347.56,604.48l-2.83.4a3.65,3.65,0,0,1-1.05-7.22h0l2.76-.41h0a3.66,3.66,0,1,1,1.08,7.24Z"/><path class="cls-1" d="M333.36,606.23l-2.85.27a3.61,3.61,0,0,1-.71-7.18h0l2.78-.28h0a3.61,3.61,0,0,1,.73,7.19Z"/><path class="cls-1" d="M319.08,607.3l-2.84.13a3.56,3.56,0,0,1-.36-7.11h0l2.78-.15h0a3.57,3.57,0,0,1,.38,7.13Z"/><path class="cls-1" d="M304.8,607.71h-2.71a3.52,3.52,0,0,1,0-7h0l2.66,0h0a3.53,3.53,0,1,1,.05,7.05Z"/><path class="cls-1" d="M290.65,607.42l-2.86-.15a3.42,3.42,0,0,1,.28-6.83h0l2.8.09h0a3.44,3.44,0,1,1-.22,6.88Z"/><path class="cls-1" d="M276.38,606.4l-2.85-.28a3.27,3.27,0,0,1,.58-6.52h0l2.79.22h0a3.31,3.31,0,0,1-.53,6.59Z"/><path class="cls-1" d="M262.18,604.71l-2.83-.42a3.12,3.12,0,0,1,.85-6.19h0l2.78.35h0a3.16,3.16,0,0,1-.8,6.26Z"/><path class="cls-1" d="M248.08,602.35l-2.8-.55a3,3,0,0,1,1.09-5.86h0l2.76.49h0a3,3,0,0,1-1.05,5.94Z"/><path class="cls-1" d="M234.12,599.33l-2.77-.68a2.84,2.84,0,0,1,1.3-5.53h0l2.73.62h0a2.87,2.87,0,1,1-1.26,5.59Z"/><path class="cls-1" d="M220.33,595.65l-2.74-.82a2.69,2.69,0,0,1,1.48-5.18h0l2.7.74h0a2.72,2.72,0,1,1-1.45,5.25Z"/><path class="cls-1" d="M206.73,591.31l-2.69-.95a2.55,2.55,0,0,1,1.63-4.83h0l2.66.88h0a2.58,2.58,0,1,1-1.61,4.91Z"/><path class="cls-1" d="M193.36,586.33l-2.64-1.08a2.4,2.4,0,0,1,1.75-4.46h0l2.62,1h0a2.43,2.43,0,0,1-1.73,4.55Z"/><path class="cls-1" d="M180.26,580.72l-2.58-1.2a2.25,2.25,0,0,1,1.84-4.1h0l2.57,1.12h0a2.29,2.29,0,0,1-1.83,4.19Z"/><path class="cls-1" d="M167.45,574.5l-2.53-1.32a2.1,2.1,0,0,1,1.9-3.75h0l2.52,1.24h0a2.14,2.14,0,0,1-1.89,3.83Z"/><path class="cls-1" d="M155,567.67l-2.46-1.43a2,2,0,0,1,1.93-3.4h0l2.45,1.37h0a2,2,0,0,1-1.93,3.47Z"/><path class="cls-1" d="M142.79,560.27l-2.39-1.55a1.8,1.8,0,0,1,1.93-3.05h0l2.39,1.48h0a1.83,1.83,0,1,1-1.93,3.12Z"/><path class="cls-1" d="M131,552.31l-2.32-1.65a1.68,1.68,0,0,1,1.93-2.75h0l2.31,1.61h0a1.69,1.69,0,1,1-1.94,2.77Z"/><path class="cls-1" d="M119.56,543.87l-2.24-1.75a1.62,1.62,0,0,1,2-2.56h0l2.23,1.71h0a1.63,1.63,0,0,1-2,2.59Z"/><path class="cls-1" d="M108.53,534.9l-2.16-1.85a1.56,1.56,0,0,1,2-2.38h0l2.15,1.82h0a1.57,1.57,0,0,1-2,2.4Z"/><path class="cls-1" d="M97.93,525.43l-2.06-1.95a1.5,1.5,0,0,1,2.06-2.19h0l2.06,1.91h0a1.52,1.52,0,0,1-2.07,2.22Z"/><path class="cls-1" d="M87.8,515.47l-2-2a1.44,1.44,0,1,1,2.08-2l2,2a1.45,1.45,0,1,1-2.06,2Z"/><path class="cls-1" d="M78.15,505.05l-1.87-2.14a1.38,1.38,0,0,1,2.08-1.82l1.87,2.11a1.39,1.39,0,1,1-2.06,1.87Z"/><path class="cls-1" d="M69,494.19,67.23,492a1.32,1.32,0,0,1,.22-1.86,1.34,1.34,0,0,1,1.86.21l1.77,2.19a1.34,1.34,0,0,1-2.06,1.7Z"/><path class="cls-1" d="M60.38,482.92l-1.67-2.3a1.28,1.28,0,1,1,2.06-1.51v0l1.66,2.27a1.28,1.28,0,1,1-2.06,1.52Z"/><path class="cls-1" d="M52.22,471.3l-1.57-2.37A1.32,1.32,0,0,1,51,467.1a1.33,1.33,0,0,1,1.84.37v0l1.54,2.36a1.31,1.31,0,0,1-2.19,1.45Z"/><path class="cls-1" d="M44.6,459.31l-1.45-2.43a1.37,1.37,0,1,1,2.35-1.4h0l1.43,2.43a1.36,1.36,0,0,1-2.34,1.39Z"/><path class="cls-1" d="M37.57,447l-1.34-2.51a1.41,1.41,0,0,1,2.49-1.32v0L40,445.66A1.4,1.4,0,1,1,37.57,447Z"/><path class="cls-1" d="M31.12,434.32l-1.21-2.56a1.46,1.46,0,0,1,2.63-1.25v0l1.19,2.55a1.45,1.45,0,0,1-.68,1.93A1.47,1.47,0,0,1,31.12,434.32Z"/><path class="cls-1" d="M25.29,421.37l-1.09-2.62A1.5,1.5,0,1,1,27,417.6h0l1.07,2.6v0a1.49,1.49,0,0,1-2.75,1.13Z"/><path class="cls-1" d="M20.07,408.16l-1-2.68a1.54,1.54,0,0,1,2.9-1.05h0v0l.94,2.65h0a1.53,1.53,0,0,1-.93,2A1.54,1.54,0,0,1,20.07,408.16Z"/><path class="cls-1" d="M15.5,394.7,14.66,392a1.59,1.59,0,1,1,3-.94h0l.81,2.7h0a1.58,1.58,0,0,1-3,.92Z"/><path class="cls-1" d="M11.5,381.06l-.72-2.75a1.71,1.71,0,1,1,3.3-.87v0l.67,2.73v0a1.69,1.69,0,0,1-3.27.83Z"/><path class="cls-1" d="M8.15,367.24l-.59-2.79a1.83,1.83,0,0,1,3.57-.76v.05l.54,2.76v0a1.81,1.81,0,0,1-3.54.72Z"/><path class="cls-1" d="M5.46,353.26,5,350.45a1.94,1.94,0,0,1,3.84-.62v.05l.41,2.78v0a1.92,1.92,0,0,1-3.8.58Z"/><path class="cls-1" d="M3.43,339.17l-.32-2.83a2.06,2.06,0,1,1,4.1-.47v.05l.27,2.8v0a2,2,0,0,1-4.06.43Z"/><path class="cls-1" d="M2.07,325l-.19-2.85a2.18,2.18,0,1,1,4.36-.29v.05l.14,2.81v0a2.16,2.16,0,0,1-4.32.26Z"/><path class="cls-1" d="M1.38,310.76l-.06-2.84a2.31,2.31,0,1,1,4.61-.1v2.89a2.28,2.28,0,0,1-4.56.05Z"/><path class="cls-1" d="M1.33,296.51l.07-2.85a2.45,2.45,0,0,1,4.89.12v.07l-.13,2.8v0a2.42,2.42,0,0,1-4.83-.17Z"/><path class="cls-1" d="M2,282.26l.2-2.85a2.58,2.58,0,0,1,5.15.37v.08L7,282.65v0A2.55,2.55,0,0,1,2,282.26Z"/><path class="cls-1" d="M3.24,268.05l.33-2.84a2.72,2.72,0,0,1,5.4.65v.08l-.38,2.77v0a2.69,2.69,0,0,1-5.33-.69Z"/><path class="cls-1" d="M5.19,253.91l.48-2.82a2.85,2.85,0,1,1,5.63.94v.09l-.52,2.75v0a2.83,2.83,0,0,1-5.58-1Z"/><path class="cls-1" d="M7.82,239.87l.61-2.79a3,3,0,1,1,5.85,1.27v.08l-.64,2.72v0a3,3,0,0,1-5.79-1.31Z"/><path class="cls-1" d="M11.12,226l.74-2.76a3.13,3.13,0,1,1,6.05,1.62v.09l-.78,2.69v0a3.1,3.1,0,0,1-6-1.67Z"/><path class="cls-1" d="M15.1,212.23l.88-2.72a3.24,3.24,0,0,1,6.16,2v.07l-.9,2.65v0a3.22,3.22,0,0,1-6.11-2Z"/><path class="cls-1" d="M19.75,198.71l1-2.68A3.33,3.33,0,1,1,27,198.38v.07l-1,2.6,0,0a3.31,3.31,0,0,1-6.18-2.37Z"/><path class="cls-1" d="M25.05,185.43l1.13-2.62a3.42,3.42,0,0,1,6.28,2.71v0l0,.05-1.14,2.55,0,0a3.4,3.4,0,0,1-6.22-2.74Z"/><path class="cls-1" d="M31,172.41l1.26-2.57a3.51,3.51,0,1,1,6.3,3.09v0l0,.05-1.26,2.49,0,0A3.49,3.49,0,0,1,31,172.41Z"/><path class="cls-1" d="M37.51,159.68l1.38-2.51a3.6,3.6,0,0,1,6.31,3.47l0,0,0,0-1.38,2.43,0,0a3.58,3.58,0,0,1-6.25-3.49Z"/><path class="cls-1" d="M44.64,147.27l1.5-2.44a3.69,3.69,0,1,1,6.29,3.86v0l0,0-1.49,2.36,0,0a3.67,3.67,0,0,1-6.24-3.88Z"/><path class="cls-1" d="M52.36,135.21,54,132.84a3.78,3.78,0,0,1,6.25,4.26v0l0,0-1.6,2.29,0,0a3.76,3.76,0,0,1-6.19-4.28Z"/><path class="cls-1" d="M60.65,123.54l1.73-2.29a3.85,3.85,0,1,1,6.14,4.65l0,0,0,0-1.7,2.21,0,0a3.84,3.84,0,0,1-6.11-4.65Z"/><path class="cls-1" d="M69.5,112.28l1.84-2.2a3.9,3.9,0,0,1,6,5l0,0,0,0-1.8,2.14,0,0a3.89,3.89,0,0,1-6-5Z"/><path class="cls-1" d="M78.87,101.45l1.94-2.11a4,4,0,1,1,5.83,5.34l0,0,0,0-1.9,2,0,0a3.95,3.95,0,0,1-5.8-5.35Z"/><path class="cls-1" d="M88.75,91.07l2-2a4,4,0,0,1,5.65,5.69l0,0,0,0-2,2,0,0a4,4,0,0,1-5.61-5.69Z"/><path class="cls-1" d="M99.1,81.17l2.13-1.92a4.06,4.06,0,0,1,5.44,6l0,0,0,0-2.08,1.86,0,0a4,4,0,0,1-5.41-6Z"/><path class="cls-1" d="M109.91,71.76l2.21-1.82a4.11,4.11,0,1,1,5.22,6.35l0,0,0,0-2.17,1.75,0,0a4.1,4.1,0,0,1-5.18-6.36Z"/><path class="cls-1" d="M121.15,62.88l2.3-1.72a4.16,4.16,0,0,1,5,6.68h0l0,0-2.25,1.65,0,0a4.15,4.15,0,0,1-4.94-6.67Z"/><path class="cls-1" d="M132.8,54.53l2.37-1.61a4.22,4.22,0,0,1,4.72,7l0,0,0,0-2.32,1.54,0,0a4.2,4.2,0,0,1-4.67-7Z"/><path class="cls-1" d="M144.83,46.73l2.45-1.49a4.27,4.27,0,1,1,4.43,7.29l0,0,0,0L149.26,54l0,0a4.25,4.25,0,0,1-4.39-7.29Z"/><path class="cls-1" d="M157.22,39.52l2.52-1.37a4.32,4.32,0,0,1,4.13,7.58l0,0h0l-2.45,1.32,0,0a4.31,4.31,0,0,1-4.09-7.58Z"/><path class="cls-1" d="M169.94,32.9l2.58-1.25a4.37,4.37,0,1,1,3.81,7.86l0,0h0l-2.52,1.2,0,0a4.36,4.36,0,0,1-3.77-7.86Z"/><path class="cls-1" d="M183,26.89l2.64-1.13a4.42,4.42,0,0,1,3.48,8.13l0,0h0L186.44,35h0A4.41,4.41,0,0,1,183,26.89Z"/><path class="cls-1" d="M196.26,21.5l2.69-1a4.48,4.48,0,0,1,3.12,8.39H202l-2.62,1h0a4.46,4.46,0,0,1-3.08-8.38Z"/><path class="cls-1" d="M209.81,16.77l2.74-.86a4.5,4.5,0,0,1,2.69,8.59h0l-2.66.84h0a4.51,4.51,0,0,1-2.72-8.59Z"/><path class="cls-1" d="M223.58,12.74l2.78-.73a4.49,4.49,0,0,1,2.27,8.68h0l-2.69.72h0a4.49,4.49,0,0,1-2.29-8.68Z"/><path class="cls-1" d="M237.54,9.38l2.8-.6a4.46,4.46,0,0,1,1.85,8.73h0l-2.73.58h0a4.46,4.46,0,1,1-1.87-8.73Z"/><path class="cls-1" d="M251.63,6.68l2.84-.46A4.44,4.44,0,0,1,255.89,15h0l-2.75.45h0a4.45,4.45,0,0,1-1.45-8.78Z"/><path class="cls-1" d="M265.84,4.66l2.85-.33a4.42,4.42,0,1,1,1,8.79h0l-2.77.32h0a4.42,4.42,0,1,1-1-8.79Z"/><path class="cls-1" d="M280.13,3.31,283,3.12a4.4,4.4,0,1,1,.58,8.78h0l-2.78.19h0a4.41,4.41,0,1,1-.6-8.79Z"/><path class="cls-1" d="M294.46,2.63l2.87-.06a4.39,4.39,0,0,1,.17,8.77h0l-2.78.06h0a4.39,4.39,0,1,1-.2-8.77Z"/><path class="cls-1" d="M308.81,2.62l2.87.08a4.36,4.36,0,1,1-.24,8.72h0l-2.79-.07h0a4.37,4.37,0,1,1,.21-8.73Z"/><path class="cls-1" d="M323.14,3.28l2.86.21a4.34,4.34,0,0,1-.64,8.66h0l-2.78-.2h0a4.35,4.35,0,0,1,.62-8.67Z"/><path class="cls-1" d="M337.43,4.61l2.85.35a4.32,4.32,0,1,1-1,8.58h0l-2.76-.32h0a4.33,4.33,0,1,1,1-8.59Z"/><path class="cls-1" d="M351.64,6.62l2.83.48A4.3,4.3,0,1,1,353,15.58h0l-2.74-.46h-.05a4.31,4.31,0,0,1,1.43-8.5Z"/><path class="cls-1" d="M365.74,9.29l2.8.62a4.28,4.28,0,0,1-1.84,8.36h0L364,17.68h0a4.29,4.29,0,0,1,1.81-8.38Z"/><path class="cls-1" d="M379.69,12.64l2.77.75a4.26,4.26,0,0,1-2.23,8.23h0l-2.7-.72h0a4.27,4.27,0,1,1,2.21-8.24Z"/><path class="cls-1" d="M393.46,16.65l2.73.88a4.24,4.24,0,0,1-2.58,8.07h0l-2.66-.85h0a4.24,4.24,0,1,1,2.56-8.09Z"/><path class="cls-1" d="M407,21.39l2.69,1a4.11,4.11,0,0,1-2.88,7.7h0l-2.63-1h0a4.14,4.14,0,0,1,2.84-7.78Z"/><path class="cls-1" d="M420.29,26.78l2.62,1.16a4,4,0,0,1-3.14,7.33l0,0-2.57-1.07,0,0a4,4,0,1,1,3.11-7.4Z"/><path class="cls-1" d="M433.3,32.8l2.56,1.28a3.86,3.86,0,0,1-3.38,7h0l-2.52-1.2,0,0a3.89,3.89,0,0,1,3.35-7Z"/><path class="cls-1" d="M446,39.43l2.5,1.39a3.75,3.75,0,0,1-3.6,6.58l0,0-2.46-1.32,0,0a3.77,3.77,0,1,1,3.56-6.64Z"/><path class="cls-1" d="M458.36,46.64l2.43,1.52A3.62,3.62,0,0,1,457,54.35l0,0-2.4-1.44,0,0a3.65,3.65,0,1,1,3.75-6.26Z"/><path class="cls-1" d="M470.37,54.44l2.35,1.62a3.5,3.5,0,0,1-3.92,5.8l0,0-2.33-1.55h0a3.53,3.53,0,0,1,3.91-5.88Z"/><path class="cls-1" d="M482,62.78l2.28,1.74a3.38,3.38,0,0,1-4.05,5.41l0,0-2.25-1.66,0,0a3.4,3.4,0,1,1,4-5.48Z"/><path class="cls-1" d="M493.15,71.71l2.18,1.85a3.18,3.18,0,0,1-4,4.91l0,0-2.19-1.75,0,0a3.22,3.22,0,0,1,4-5Z"/><path class="cls-1" d="M503.86,81.16l2.09,2a3,3,0,0,1-4,4.41l0,0-2.1-1.85,0,0a3,3,0,1,1,4-4.52Z"/><path class="cls-1" d="M514.11,91.1l2,2.05a2.77,2.77,0,0,1-3.91,3.92l0,0-2-2,0,0a2.81,2.81,0,1,1,3.91-4Z"/><path class="cls-1" d="M523.87,101.51l1.89,2.13A2.56,2.56,0,0,1,522,107.1l0,0L520,105l0,0a2.61,2.61,0,0,1,3.8-3.57Z"/><path class="cls-1" d="M533.12,112.35l1.79,2.22a2.35,2.35,0,0,1-3.62,3l0,0-1.82-2.13h0a2.4,2.4,0,1,1,3.65-3.12Z"/><path class="cls-1" d="M541.85,123.61l1.68,2.3a2.15,2.15,0,0,1-3.44,2.59v0l-1.72-2.21v0a2.19,2.19,0,1,1,3.46-2.69Z"/><path class="cls-1" d="M550,135.25l1.57,2.38a2,2,0,0,1-3.24,2.21v0l-1.61-2.3h0a2,2,0,1,1,3.27-2.3Z"/><path class="cls-1" d="M557.67,147.26l1.46,2.44a1.77,1.77,0,0,1-3,1.86v0l-1.51-2.37h0a1.81,1.81,0,0,1,.57-2.5,1.79,1.79,0,0,1,2.49.56Z"/><path class="cls-1" d="M564.72,159.6l1.34,2.51a1.59,1.59,0,0,1-2.78,1.54v0l-1.39-2.44v0a1.62,1.62,0,1,1,2.82-1.6Z"/><path class="cls-1" d="M571.17,172.26l1.22,2.57a1.39,1.39,0,0,1-.66,1.86,1.42,1.42,0,0,1-1.86-.64l-1.27-2.51a1.44,1.44,0,1,1,2.55-1.32Z"/><path class="cls-1" d="M577,185.21l1.09,2.62a1.2,1.2,0,0,1-.65,1.58,1.23,1.23,0,0,1-1.58-.63l-1.15-2.57a1.25,1.25,0,1,1,2.27-1.05Z"/><path class="cls-1" d="M582.23,198.4l1,2.67a1,1,0,0,1-1.92.72l-1-2.63a1.06,1.06,0,1,1,2-.79Z"/><path class="cls-1" d="M586.84,211.82l.86,2.7a.91.91,0,0,1-.58,1.12.9.9,0,0,1-1.11-.58l-.89-2.67a.91.91,0,0,1,.56-1.16.92.92,0,0,1,1.16.57Z"/><path class="cls-1" d="M590.85,225.42l.72,2.74a.78.78,0,0,1-.55,1,.79.79,0,0,1-.95-.55l-.76-2.71a.8.8,0,1,1,1.53-.45Z"/><path class="cls-1" d="M594.2,239.19l.59,2.78a.66.66,0,0,1-1.3.28l-.63-2.75a.68.68,0,1,1,1.33-.32Z"/><path class="cls-1" d="M596.89,253.11l.47,2.79a.56.56,0,0,1-.47.66.58.58,0,0,1-.66-.47l-.48-2.78a.58.58,0,1,1,1.14-.21Z"/><path class="cls-1" d="M599,267.12l.33,2.81a.52.52,0,0,1-.46.59.54.54,0,0,1-.59-.46l-.35-2.8a.54.54,0,1,1,1.06-.15Z"/><path class="cls-1" d="M600.41,281.21l.21,2.83a.48.48,0,0,1-.45.52.49.49,0,0,1-.52-.45l-.23-2.82a.49.49,0,0,1,.45-.53.48.48,0,0,1,.54.45Z"/><path class="cls-1" d="M601.18,295.36l.07,2.83a.45.45,0,0,1-.89,0l-.09-2.82a.45.45,0,0,1,.43-.47.46.46,0,0,1,.47.44Z"/></g></svg>