<svg id="Calque_1" data-name="Calque 1" xmlns="http://www.w3.org/2000/svg" viewBox="0 0 94.83 92.54"><defs><style>.cls-1,.cls-2{fill:#fff;}.cls-1{stroke:#fff;stroke-miterlimit:10;stroke-width:0.25px;opacity:0.05;}</style></defs><title>fleche-droite-bas</title><circle class="cls-1" cx="46.77" cy="51.67" r="36.81"/><path class="cls-2" d="M63.43,18.67l.94.37a.26.26,0,0,1-.19.49l-.05,0h0l-.84-.56a.15.15,0,0,1,0-.21A.16.16,0,0,1,63.43,18.67Z"/><path class="cls-2" d="M68,20.86l.88.53a.68.68,0,0,1-.71,1.17l-.08-.06h0l-.76-.63h0a.61.61,0,0,1,.7-1Z"/><path class="cls-2" d="M72.19,23.78l.78.67a1,1,0,1,1-1.27,1.48l-.06-.06,0,0-.68-.69,0,0a.93.93,0,0,1,1.27-1.36Z"/><path class="cls-2" d="M75.9,27.34l.67.78a1.17,1.17,0,1,1-1.77,1.54l0-.05,0,0-.59-.77,0,0a1.14,1.14,0,0,1,.21-1.6A1.15,1.15,0,0,1,75.9,27.34Z"/><path class="cls-2" d="M79.05,31.44l.55.87a1.3,1.3,0,0,1-2.2,1.38v0l0,0-.49-.83,0,0a1.28,1.28,0,0,1,2.19-1.33Z"/><path class="cls-2" d="M81.56,36l.41.95A1.35,1.35,0,0,1,79.5,38v0l-.39-.88,0,0A1.35,1.35,0,1,1,81.55,36Z"/><path class="cls-2" d="M83.3,40.83l.26,1a1.26,1.26,0,0,1-2.42.68v0l-.29-.92v0a1.28,1.28,0,1,1,2.45-.77A.19.19,0,0,1,83.3,40.83Z"/><path class="cls-2" d="M84.22,45.91l.09,1a1,1,0,0,1-2,.28v0l-.2-.95v0a1.08,1.08,0,1,1,2.12-.42S84.22,45.87,84.22,45.91Z"/><path class="cls-2" d="M84.35,51l0,1a.72.72,0,0,1-1.44,0v0l-.06-1v0A.78.78,0,1,1,84.35,51Z"/><path class="cls-2" d="M83.87,56.11l-.17,1a.51.51,0,0,1-.59.42.5.5,0,0,1-.42-.55h0l.09-1h0a.53.53,0,0,1,.59-.49.55.55,0,0,1,.49.6Z"/><path class="cls-2" d="M82.84,61.07l-.26,1a.46.46,0,1,1-.89-.23h0l.26-.95h0a.45.45,0,0,1,.55-.32A.46.46,0,0,1,82.84,61.07Z"/><path class="cls-2" d="M81.29,65.9l-.38.94a.54.54,0,1,1-1-.4v0h0l.41-.89v0a.5.5,0,0,1,.68-.25A.51.51,0,0,1,81.29,65.9Z"/><path class="cls-2" d="M79.19,70.53l-.48.89a.74.74,0,0,1-1,.31.73.73,0,0,1-.3-1,.16.16,0,0,1,0-.07h0l.54-.82h0a.68.68,0,0,1,1.17.71Z"/><path class="cls-2" d="M76.54,74.9l-.6.83a1,1,0,0,1-1.62-1.17l.07-.08v0l.65-.72,0,0a.95.95,0,0,1,1.47,1.19Z"/><path class="cls-2" d="M73.29,78.88l-.72.74a1.23,1.23,0,1,1-1.76-1.71l.07-.06,0,0,.73-.63,0,0a1.19,1.19,0,0,1,1.63,1.72Z"/><path class="cls-2" d="M69.46,82.35l-.83.63A1.37,1.37,0,0,1,67,80.79l0,0,0,0,.8-.55,0,0a1.34,1.34,0,0,1,1.57,2.18Z"/><path class="cls-2" d="M65.15,85.24l-.91.51a1.48,1.48,0,0,1-1.44-2.58l.06,0,0,0,.85-.43,0,0a1.45,1.45,0,0,1,1.36,2.57Z"/><path class="cls-2" d="M60.47,87.51l-1,.38A1.57,1.57,0,0,1,58.37,85l.05,0,0,0,.91-.31h0a1.54,1.54,0,0,1,1.06,2.9Z"/><path class="cls-2" d="M55.5,89.08l-1,.23a1.6,1.6,0,0,1-.68-3.13h.05l.93-.2h0a1.6,1.6,0,0,1,.68,3.12Z"/><path class="cls-2" d="M50.35,89.9l-1,.07a1.57,1.57,0,0,1-.25-3.13h0l1-.09h0a1.59,1.59,0,0,1,.3,3.16Z"/><path class="cls-2" d="M45.15,90l-1-.08a1.48,1.48,0,0,1,.16-3h0l1,0h0a1.51,1.51,0,0,1-.08,3Z"/><path class="cls-2" d="M40,89.24,39,89a1.33,1.33,0,0,1,.5-2.61h0l.95.16h0a1.36,1.36,0,0,1-.44,2.69Z"/><path class="cls-2" d="M35,87.8l-1-.37A1.13,1.13,0,0,1,33.42,86a1.12,1.12,0,0,1,1.37-.67h0l.93.27h0a1.17,1.17,0,1,1-.66,2.24Z"/><path class="cls-2" d="M30.36,85.65l-.89-.51a.86.86,0,0,1,.76-1.54h0l.9.39h0a.92.92,0,0,1-.73,1.69Z"/><path class="cls-2" d="M26.09,82.84l-.8-.64a.52.52,0,0,1-.08-.72.53.53,0,0,1,.66-.13h0l.85.49h0a.6.6,0,1,1-.6,1Z"/><path class="cls-2" d="M22.33,79.44l-.23-.25a.15.15,0,0,1,0-.21.15.15,0,0,1,.19,0l.27.2a.18.18,0,0,1-.21.29Z"/></svg>