<svg xmlns="http://www.w3.org/2000/svg" viewBox="0 0 145.03 70.96"><defs><style>.cls-1{fill:#fff;}</style></defs><title>fleche-bas</title><g id="fleche"><path class="cls-1" d="M94.48,28.06l-.34.37a0,0,0,0,1,0,0,0,0,0,0,1,0,0h0Z"/><path class="cls-1" d="M91.68,31.18l-.62.69a.28.28,0,0,1-.39,0,.26.26,0,0,1,0-.39l0,0,.69-.62a.22.22,0,0,1,.32,0A.24.24,0,0,1,91.68,31.18Z"/><path class="cls-1" d="M88.59,34.62,88,35.3a.53.53,0,0,1-.75,0,.53.53,0,0,1,0-.74l0,0,.69-.62a.48.48,0,0,1,.67.68Z"/><path class="cls-1" d="M85.51,38.05l-.62.69a.78.78,0,1,1-1.15-1l.06-.06.68-.61a.73.73,0,0,1,1,1Z"/><path class="cls-1" d="M82.43,41.49l-.62.68a1,1,0,1,1-1.53-1.37l.08-.07.69-.62a1,1,0,0,1,1.38.07A1,1,0,0,1,82.43,41.49Z"/><path class="cls-1" d="M79.34,44.92l-.61.69a1.27,1.27,0,1,1-1.9-1.7.47.47,0,0,1,.1-.1l.68-.62a1.23,1.23,0,0,1,1.73,1.73Z"/><path class="cls-1" d="M76.26,48.36l-.33.37a1.44,1.44,0,0,1-2,.11l-.11-.11-.33-.37a1.48,1.48,0,0,1,2.08-2.09l.38.34H73.8l.38-.34a1.48,1.48,0,0,1,2.08,2.09Z"/><path class="cls-1" d="M71,45.63l-.61-.69a1.22,1.22,0,0,1,1.73-1.73l.68.61a1.27,1.27,0,1,1-1.7,1.9Z"/><path class="cls-1" d="M68,42.21l-.62-.68a1,1,0,0,1,.08-1.38,1,1,0,0,1,1.3,0l.69.61a1,1,0,0,1,.07,1.45,1,1,0,0,1-1.44.08Z"/><path class="cls-1" d="M64.89,38.79l-.61-.68a.73.73,0,0,1,1-1l.68.61a.76.76,0,0,1,.06,1.09.78.78,0,0,1-1.1.06Z"/><path class="cls-1" d="M61.83,35.38l-.61-.68a.48.48,0,0,1,.67-.68l.69.62a.53.53,0,1,1-.71.78Z"/><path class="cls-1" d="M58.77,32l-.61-.68a.22.22,0,0,1,0-.32.23.23,0,0,1,.31,0l.68.61a.28.28,0,0,1,0,.39.27.27,0,0,1-.39,0Z"/><path class="cls-1" d="M55.71,28.55l-.34-.37.37.33a0,0,0,0,1,0,0Z"/></g></svg>