<svg id="Calque_1" data-name="Calque 1" xmlns="http://www.w3.org/2000/svg" viewBox="0 0 94.83 92.54"><defs><style>.cls-1{fill:#fff;}</style></defs><title>fleche-gauche-haut</title><path class="cls-1" d="M54.32,82.81h1a.14.14,0,0,1,.16.14.16.16,0,0,1-.14.17h-1a.15.15,0,0,1-.16-.14A.16.16,0,0,1,54.32,82.81Z"/><path class="cls-1" d="M59.28,82.45l1-.15h0a.18.18,0,0,1,.21.15.19.19,0,0,1-.15.22h0l-1,.14a.18.18,0,1,1,0-.36Z"/><path class="cls-1" d="M64.13,81.37l1-.3h0a.28.28,0,1,1,.18.54h0l-1,.27a.26.26,0,0,1-.32-.19.26.26,0,0,1,.17-.32Z"/><path class="cls-1" d="M68.75,79.59l.89-.44h0a.43.43,0,1,1,.38.78h0l-.94.39a.41.41,0,0,1-.33-.74Z"/><path class="cls-1" d="M73.05,77.16l.81-.55h0a.63.63,0,1,1,.71,1l0,0-.88.5a.59.59,0,0,1-.63-1Z"/><path class="cls-1" d="M76.94,74.18l.73-.65,0,0a.83.83,0,0,1,1.11,1.23s0,0,0,.05l-.81.62a.8.8,0,0,1-1.11-.15.78.78,0,0,1,.1-1.06Z"/><path class="cls-1" d="M80.39,70.72,81,70v0a1,1,0,1,1,1.57,1.33l-.06,0-.72.73a1,1,0,0,1-1.45-1.32Z"/><path class="cls-1" d="M83.33,66.87l.53-.81,0,0a1.19,1.19,0,0,1,2,1.31l0,0-.61.83a1.15,1.15,0,0,1-1.62.25,1.17,1.17,0,0,1-.29-1.57Z"/><path class="cls-1" d="M85.77,62.69l.42-.86,0,0A1.29,1.29,0,1,1,88.53,63v0l-.48.92a1.28,1.28,0,0,1-2.29-1.16Z"/><path class="cls-1" d="M87.67,58.27l.3-.92v0a1.35,1.35,0,0,1,2.56.86v0l-.35,1a1.34,1.34,0,0,1-2.53-.88Z"/><path class="cls-1" d="M89,53.64l.19-.94v0a1.33,1.33,0,1,1,2.61.53l-.2,1A1.34,1.34,0,1,1,89,53.68h0Z"/><path class="cls-1" d="M89.73,48.88l.07-1v0a1.28,1.28,0,0,1,2.55.16l0,1A1.3,1.3,0,0,1,89.72,49v-.07Z"/><path class="cls-1" d="M89.87,44.05l0-1v0a1.16,1.16,0,0,1,2.32-.17l.1,1a1.19,1.19,0,0,1-1.07,1.31,1.21,1.21,0,0,1-1.31-1.07v-.1Z"/><path class="cls-1" d="M89.4,39.22l-.17-1v0a1,1,0,0,1,2-.41l.24,1a1,1,0,0,1-2,.49s0,0,0-.06Z"/><path class="cls-1" d="M88.28,34.48l-.3-.93v0a.87.87,0,0,1,1.64-.59l.38,1a.9.9,0,0,1-1.68.66l0-.05Z"/><path class="cls-1" d="M86.52,29.92,86.09,29v0a.72.72,0,0,1,1.28-.67l.5.89a.74.74,0,0,1-.29,1,.75.75,0,0,1-1-.29l0,0Z"/><path class="cls-1" d="M84.15,25.63l-.56-.82h0a.58.58,0,0,1,1-.67l.6.81a.6.6,0,1,1-1,.72v0Z"/><path class="cls-1" d="M81.16,21.72,80.5,21h0a.48.48,0,0,1,0-.69.5.5,0,0,1,.68,0l.71.73a.52.52,0,0,1,0,.72.51.51,0,0,1-.72,0h0Z"/><path class="cls-1" d="M77.63,18.27l-.76-.62h0a.46.46,0,0,1-.07-.65.47.47,0,0,1,.65-.06l.79.63a.46.46,0,0,1,.07.65.47.47,0,0,1-.66.08h0Z"/><path class="cls-1" d="M73.64,15.37l-.84-.51h0a.47.47,0,0,1,.48-.8h0l.86.54a.45.45,0,0,1,.15.63.45.45,0,0,1-.63.15Z"/><path class="cls-1" d="M69.29,13.06l-.91-.38h0a.51.51,0,1,1,.4-.93h0l.92.42a.5.5,0,0,1-.39.91Z"/><path class="cls-1" d="M64.65,11.4l-1-.24h0A.59.59,0,0,1,64,10h0l1,.29a.57.57,0,0,1,.37.71.56.56,0,0,1-.67.38Z"/><path class="cls-1" d="M59.83,10.45l-1-.11h0a.72.72,0,0,1-.63-.79A.71.71,0,0,1,59,8.93h0l1,.17a.68.68,0,0,1-.19,1.35Z"/><path class="cls-1" d="M54.94,10.16l-1,0h0a.83.83,0,1,1,0-1.66H54l1,0a.81.81,0,0,1,0,1.61Z"/><path class="cls-1" d="M50.07,10.54l-1,.15h0A1,1,0,0,1,48,9.89a1,1,0,0,1,.8-1.11h.06l1-.11a.95.95,0,0,1,.25,1.88Z"/><path class="cls-1" d="M45.32,11.57l-.93.29h0A1.13,1.13,0,0,1,43,11.13a1.12,1.12,0,0,1,.74-1.39l.06,0,1-.25a1.1,1.1,0,0,1,1.32.8,1.08,1.08,0,0,1-.74,1.29Z"/><path class="cls-1" d="M40.76,13.21l-.88.39,0,0a1.21,1.21,0,1,1-1-2.21h0l1-.39a1.19,1.19,0,0,1,.94,2.18Z"/><path class="cls-1" d="M36.47,15.43l-.82.51,0,0a1.31,1.31,0,1,1-1.39-2.21l0,0,.89-.52a1.28,1.28,0,0,1,1.32,2.2Z"/><path class="cls-1" d="M32.53,18.2l-.75.61,0,0A1.38,1.38,0,0,1,30,16.7h0l.82-.64a1.36,1.36,0,0,1,1.71,2.12Z"/><path class="cls-1" d="M29,21.44l-.65.71,0,0a1.43,1.43,0,1,1-2.09-1.94l0,0,.72-.75A1.42,1.42,0,0,1,29,21.41Z"/><path class="cls-1" d="M25.91,25.13l-.56.79,0,0a1.48,1.48,0,1,1-2.42-1.71l0,0,.62-.84a1.47,1.47,0,0,1,2.38,1.72Z"/><path class="cls-1" d="M23.36,29.19l-.44.85v0a1.54,1.54,0,0,1-2.73-1.41l0,0,.5-.91a1.52,1.52,0,0,1,2.69,1.42Z"/><path class="cls-1" d="M21.4,33.56l-.32.9v0a1.59,1.59,0,0,1-3-1.06v0l.37-1a1.58,1.58,0,0,1,3,1.08Z"/><path class="cls-1" d="M20,38.13l-.2.94v0a1.6,1.6,0,0,1-3.12-.68h0l.22-1a1.6,1.6,0,1,1,3.12.68Z"/><path class="cls-1" d="M19.26,42.85l-.07.95v.05A1.6,1.6,0,0,1,16,43.6h0l.08-1a1.61,1.61,0,0,1,3.2.26Z"/><path class="cls-1" d="M19.12,47.63l.05,1v0A1.58,1.58,0,0,1,16,48.8l-.07-1a1.59,1.59,0,0,1,3.17-.2v.07Z"/><path class="cls-1" d="M19.6,52.4l.17.94v0a1.55,1.55,0,0,1-1.23,1.79A1.53,1.53,0,0,1,16.77,54l-.21-1a1.55,1.55,0,0,1,3-.61v.07Z"/><path class="cls-1" d="M20.72,57.05,21,58v0a1.48,1.48,0,0,1-2.8,1l-.35-1a1.5,1.5,0,1,1,2.82-1l0,0Z"/><path class="cls-1" d="M22.42,61.54l.41.87,0,0a1.37,1.37,0,0,1-.66,1.84,1.39,1.39,0,0,1-1.82-.6l-.48-.92a1.41,1.41,0,0,1,2.49-1.31l0,0Z"/><path class="cls-1" d="M24.69,65.8l.52.81,0,0a1.23,1.23,0,0,1-2,1.39l-.61-.83a1.27,1.27,0,0,1,2.05-1.5l0,.07Z"/><path class="cls-1" d="M27.49,69.75l.62.74,0,0a1,1,0,0,1-1.55,1.39l-.72-.73a1.09,1.09,0,1,1,1.55-1.52l.06.06Z"/><path class="cls-1" d="M30.79,73.32l.72.66,0,0a.84.84,0,0,1,0,1.18.85.85,0,0,1-1.13.09l-.81-.63a.88.88,0,1,1,1.08-1.38l.05,0Z"/><path class="cls-1" d="M34.57,76.43l.81.56h0a.63.63,0,0,1-.67,1.06l-.88-.51a.66.66,0,0,1-.24-.91.67.67,0,0,1,.91-.25l0,0Z"/><path class="cls-1" d="M38.76,79l.89.44h0a.43.43,0,0,1,.19.58.44.44,0,0,1-.56.21l-.93-.39a.47.47,0,0,1-.25-.62.46.46,0,0,1,.61-.25h0Z"/><path class="cls-1" d="M43.31,81l.94.31h0a.29.29,0,0,1,.18.37.29.29,0,0,1-.35.19l-1-.27a.31.31,0,0,1-.22-.39.31.31,0,0,1,.38-.21h0Z"/><path class="cls-1" d="M48.1,82.24l1,.16h0a.2.2,0,0,1,.16.22.19.19,0,0,1-.22.16l-1-.14a.2.2,0,0,1-.17-.23.21.21,0,0,1,.23-.18h0Z"/><path class="cls-1" d="M53,82.78l1,0a.15.15,0,0,1,.15.15.16.16,0,0,1-.15.16l-1,0a.16.16,0,0,1-.16-.16.17.17,0,0,1,.17-.16Z"/><path class="cls-1" d="M58.2,27.48l-.27.44a.28.28,0,1,1-.47-.29.2.2,0,0,1,.09-.09l.44-.27a.15.15,0,0,1,.21.05A.15.15,0,0,1,58.2,27.48Z"/><path class="cls-1" d="M55.77,31c-.19.25-.39.48-.58.72a1,1,0,0,1-1.58-1.25,1.21,1.21,0,0,1,.16-.16c.25-.19.48-.4.73-.58A.91.91,0,0,1,55.77,31Z"/><path class="cls-1" d="M52.78,34.5l-.63.68a1.32,1.32,0,0,1-1.94-1.79l.08-.08.68-.62a1.28,1.28,0,0,1,1.81,1.81Z"/><path class="cls-1" d="M49.52,37.76c-.23.2-.46.4-.71.59a1.2,1.2,0,0,1-1.7-.21,1.22,1.22,0,0,1,0-1.49c.19-.24.4-.47.6-.71a1.29,1.29,0,1,1,2,1.67Z"/><path class="cls-1" d="M45.87,40.63l-.73.57a.62.62,0,0,1-.88-.1.65.65,0,0,1,0-.78l.58-.72a.72.72,0,0,1,1-.12.73.73,0,0,1,.12,1Z"/><path class="cls-1" d="M42.42,43.7l-.64.66a.47.47,0,0,1-.67,0,.47.47,0,0,1,0-.67h0l.66-.64a.46.46,0,0,1,.65,0A.47.47,0,0,1,42.42,43.7Z"/><path class="cls-1" d="M39.38,47.18l-.31.39V46.4l.4.31A.9.9,0,0,1,39.61,48a.89.89,0,0,1-1.25.14.67.67,0,0,1-.15-.14l-.31-.4-.12-.15a.72.72,0,0,1,.12-1l.39-.32a.78.78,0,0,1,1.09,1.1Z"/><path class="cls-1" d="M42.33,49l.68.61a1.33,1.33,0,0,1-1.75,2l-.12-.12-.61-.68a1.28,1.28,0,0,1,1.8-1.8Z"/><path class="cls-1" d="M45.73,52.1l.68.62A1.55,1.55,0,0,1,44.31,55l-.09-.08-.62-.68a1.51,1.51,0,0,1,2.13-2.13Z"/><path class="cls-1" d="M49,55.27l.64.66a1.59,1.59,0,0,1-2.25,2.25l-.66-.64A1.61,1.61,0,1,1,49,55.22Z"/><path class="cls-1" d="M52.14,58.65l.6.69a1.35,1.35,0,0,1-1.9,1.9l-.69-.6A1.41,1.41,0,0,1,52,58.52Z"/><path class="cls-1" d="M55.08,62.19l.57.73a.89.89,0,0,1-.16,1.23.87.87,0,0,1-1.07,0l-.73-.57A1,1,0,0,1,54.91,62,1.37,1.37,0,0,1,55.08,62.19Z"/><path class="cls-1" d="M57.81,65.94l.27.43a.15.15,0,0,1,0,.21.14.14,0,0,1-.17,0l-.43-.27a.27.27,0,0,1,.29-.45A.3.3,0,0,1,57.81,65.94Z"/></svg>