<svg xmlns="http://www.w3.org/2000/svg" viewBox="0 0 145.03 70.96"><defs><style>.cls-1{fill:#fff;}</style></defs><title>fleche-haut</title><g id="fleche"><path class="cls-1" d="M94.48,48.41l-.38-.33a0,0,0,0,1,0,0h0Z"/><path class="cls-1" d="M91.36,45.61,90.67,45a.28.28,0,1,1,.37-.41l0,0,.62.68a.23.23,0,0,1,0,.32A.22.22,0,0,1,91.36,45.61Z"/><path class="cls-1" d="M87.92,42.53l-.69-.62a.53.53,0,1,1,.71-.78s0,0,0,0l.61.69a.47.47,0,0,1,0,.67A.49.49,0,0,1,87.92,42.53Z"/><path class="cls-1" d="M84.48,39.45l-.68-.62a.77.77,0,1,1,1-1.15l.06.06.62.68a.73.73,0,0,1-1,1Z"/><path class="cls-1" d="M81.05,36.37l-.69-.62a1,1,0,1,1,1.37-1.53l.08.08.62.69a1,1,0,0,1-1.38,1.38Z"/><path class="cls-1" d="M77.61,33.28l-.68-.61a1.27,1.27,0,1,1,1.7-1.9l.1.09.61.69a1.22,1.22,0,0,1-.09,1.73A1.24,1.24,0,0,1,77.61,33.28Z"/><path class="cls-1" d="M74.18,30.2l-.37-.34h2.12l-.38.34a1.47,1.47,0,0,1-2.08-2.08l.33-.38a1.44,1.44,0,0,1,2-.11,1.14,1.14,0,0,0,.11.11l.33.38a1.47,1.47,0,0,1-2.08,2.08Z"/><path class="cls-1" d="M72.82,32.65l-.68.61a1.22,1.22,0,0,1-1.73-1.73l.61-.68a1.27,1.27,0,0,1,1.9,1.7A.94.94,0,0,1,72.82,32.65Z"/><path class="cls-1" d="M69.41,35.71l-.69.61A1,1,0,0,1,67.34,35l.62-.69a1,1,0,0,1,1.45-.07,1,1,0,0,1,.07,1.44Z"/><path class="cls-1" d="M66,38.78l-.68.61a.73.73,0,0,1-1-1l.61-.68a.78.78,0,0,1,1.16,1Z"/><path class="cls-1" d="M62.58,41.84l-.69.61a.47.47,0,0,1-.67,0,.47.47,0,0,1,0-.63l.61-.69a.53.53,0,1,1,.79.71Z"/><path class="cls-1" d="M59.16,44.9l-.68.61a.22.22,0,0,1-.32,0,.23.23,0,0,1,0-.31l.61-.68a.28.28,0,0,1,.41.37Z"/><path class="cls-1" d="M55.74,48l-.37.34.34-.37s0,0,0,0a0,0,0,0,1,0,0Z"/></g></svg>