<svg id="Calque_1" data-name="Calque 1" xmlns="http://www.w3.org/2000/svg" viewBox="0 0 94.83 92.54"><defs><style>.cls-1{fill:#fff;}</style></defs><title>fleche-droite-haut</title><path class="cls-1" d="M47,83.11H46A.16.16,0,0,1,45.8,83,.14.14,0,0,1,46,82.8h1a.15.15,0,0,1,.15.15A.15.15,0,0,1,47,83.11Z"/><path class="cls-1" d="M41.94,82.81l-1-.14a.2.2,0,0,1-.16-.22A.18.18,0,0,1,41,82.3h0l1,.15a.18.18,0,0,1,.16.2A.19.19,0,0,1,41.94,82.81Z"/><path class="cls-1" d="M37,81.88l-1-.27a.28.28,0,0,1-.2-.35.29.29,0,0,1,.35-.2h0l.94.3h0a.25.25,0,0,1,.17.33A.26.26,0,0,1,37,81.88Z"/><path class="cls-1" d="M32.2,80.33l-.93-.39a.43.43,0,0,1-.24-.57.43.43,0,0,1,.57-.23h0l.88.44h0a.41.41,0,0,1-.33.74Z"/><path class="cls-1" d="M27.62,78.17l-.89-.5a.63.63,0,0,1,.63-1.1l0,0h0l.82.55h0a.59.59,0,0,1-.62,1Z"/><path class="cls-1" d="M23.34,75.41l-.81-.62a.83.83,0,1,1,1-1.32l.05,0v0l.73.65,0,0a.79.79,0,0,1-1,1.21Z"/><path class="cls-1" d="M19.45,72.07l-.72-.73a1,1,0,0,1,0-1.44,1,1,0,0,1,1.45,0l0,.06,0,0,.62.74,0,0a1,1,0,0,1-1.45,1.32Z"/><path class="cls-1" d="M16.05,68.22l-.61-.83A1.19,1.19,0,1,1,17.36,66l0,0,0,0,.53.81,0,0a1.16,1.16,0,0,1-1.91,1.33Z"/><path class="cls-1" d="M13.24,63.89,12.76,63a1.29,1.29,0,0,1,2.29-1.2v0l0,0,.43.86v0a1.28,1.28,0,0,1-2.28,1.17Z"/><path class="cls-1" d="M11.09,59.18l-.35-1a1.35,1.35,0,0,1,2.54-.91v.06l.31.92v0a1.34,1.34,0,0,1-2.53.88Z"/><path class="cls-1" d="M9.66,54.2l-.2-1a1.34,1.34,0,0,1,2.62-.53v0l.19.94v0a1.32,1.32,0,0,1-1,1.57,1.34,1.34,0,0,1-1.58-1Z"/><path class="cls-1" d="M9,49.07l-.05-1a1.28,1.28,0,0,1,1.21-1.34,1.29,1.29,0,0,1,1.34,1.18v0l.08,1v0a1.3,1.3,0,0,1-1.19,1.39A1.28,1.28,0,0,1,9,49.11Z"/><path class="cls-1" d="M9,43.91l.1-1a1.17,1.17,0,0,1,2.33.16v0l0,1v0A1.2,1.2,0,0,1,9,44S9,43.93,9,43.91Z"/><path class="cls-1" d="M9.81,38.82l.24-1a1,1,0,0,1,2,.41v0l-.17,1v0a1.05,1.05,0,1,1-2.07-.37S9.81,38.83,9.81,38.82Z"/><path class="cls-1" d="M11.28,33.9l.38-1a.87.87,0,0,1,1.64.59v0l-.3.93v0a.9.9,0,0,1-1.13.58A.91.91,0,0,1,11.26,34Z"/><path class="cls-1" d="M13.41,29.24l.5-.89a.72.72,0,0,1,1.28.67v0l-.43.88v0a.75.75,0,0,1-1,.35.76.76,0,0,1-.35-1S13.4,29.26,13.41,29.24Z"/><path class="cls-1" d="M16.14,24.94l.6-.81a.58.58,0,0,1,.82-.12.57.57,0,0,1,.13.79h0l-.55.82h0a.6.6,0,1,1-1-.68Z"/><path class="cls-1" d="M19.37,21l.7-.73a.49.49,0,0,1,.69,0,.5.5,0,0,1,0,.68h0l-.66.74h0a.52.52,0,0,1-.72,0,.51.51,0,0,1,0-.72Z"/><path class="cls-1" d="M23.05,17.56l.79-.63a.45.45,0,0,1,.64.07.46.46,0,0,1-.06.64h0l-.76.62h0a.46.46,0,0,1-.66-.06.48.48,0,0,1,.06-.66Z"/><path class="cls-1" d="M27.14,14.59l.86-.54a.47.47,0,0,1,.64.16.46.46,0,0,1-.15.64h0l-.85.51h0a.45.45,0,0,1-.63-.15A.45.45,0,0,1,27.14,14.59Z"/><path class="cls-1" d="M31.58,12.16l.92-.42a.51.51,0,0,1,.67.26.5.5,0,0,1-.25.67h0l-.91.38h0a.5.5,0,0,1-.4-.91Z"/><path class="cls-1" d="M36.3,10.32l1-.29a.58.58,0,0,1,.74.38.59.59,0,0,1-.39.74h0l-1,.24h0a.57.57,0,0,1-.69-.41A.58.58,0,0,1,36.3,10.32Z"/><path class="cls-1" d="M41.24,9.1l1-.17a.72.72,0,0,1,.82.59.71.71,0,0,1-.59.81h0l-1,.11h0a.68.68,0,0,1-.19-1.35Z"/><path class="cls-1" d="M46.31,8.55l1,0a.83.83,0,0,1,.05,1.66h-.07l-1,0h0a.81.81,0,0,1-.79-.83A.8.8,0,0,1,46.31,8.55Z"/><path class="cls-1" d="M51.42,8.66l1,.11a1,1,0,0,1-.21,1.94h-.07l-1-.15h0a.95.95,0,0,1,.24-1.88Z"/><path class="cls-1" d="M56.5,9.47l1,.25A1.11,1.11,0,1,1,57,11.88h-.09L56,11.57h0a1.09,1.09,0,0,1-.72-1.35A1.1,1.1,0,0,1,56.5,9.47Z"/><path class="cls-1" d="M61.42,11l1,.39a1.21,1.21,0,1,1-.92,2.23h0l0,0-.89-.39,0,0A1.19,1.19,0,0,1,61.42,11Z"/><path class="cls-1" d="M66.09,13.21l.9.52A1.3,1.3,0,1,1,65.69,16l0,0,0,0-.82-.51,0,0a1.28,1.28,0,0,1,1.32-2.2Z"/><path class="cls-1" d="M70.42,16.05l.82.64a1.37,1.37,0,1,1-1.7,2.16l0,0,0,0-.74-.61,0,0a1.36,1.36,0,0,1,1.7-2.12Z"/><path class="cls-1" d="M74.32,19.46l.72.75a1.43,1.43,0,0,1-2.05,2v0l0,0-.66-.71,0,0a1.41,1.41,0,0,1,2-1.95Z"/><path class="cls-1" d="M77.73,23.38l.61.84A1.48,1.48,0,1,1,76,26v0l0,0-.55-.79,0,0a1.47,1.47,0,0,1,2.39-1.72Z"/><path class="cls-1" d="M80.58,27.73l.49.91a1.53,1.53,0,1,1-2.69,1.47v0l0-.05-.44-.85,0,0a1.52,1.52,0,0,1,2.69-1.43Z"/><path class="cls-1" d="M82.81,32.43l.37,1a1.58,1.58,0,1,1-3,1.13v0l0,0-.32-.9v-.05a1.57,1.57,0,0,1,3-1.08Z"/><path class="cls-1" d="M84.36,37.41l.23,1a1.6,1.6,0,0,1-3.13.68h0v0l-.2-.94v0a1.6,1.6,0,0,1,1.22-1.9A1.58,1.58,0,0,1,84.36,37.41Z"/><path class="cls-1" d="M85.2,42.55l.09,1a1.61,1.61,0,1,1-3.2.26h0V43.8L82,42.85v0a1.6,1.6,0,1,1,3.19-.26Z"/><path class="cls-1" d="M85.32,47.76l-.07,1a1.58,1.58,0,0,1-3.15-.17v0l0-1v0a1.59,1.59,0,0,1,3.17.15Z"/><path class="cls-1" d="M84.71,52.94l-.2,1a1.54,1.54,0,0,1-3-.58v0l.17-.94v0a1.54,1.54,0,0,1,3,.55Z"/><path class="cls-1" d="M83.41,58l-.36,1a1.48,1.48,0,0,1-2.8-1v0l.29-.92,0,0a1.5,1.5,0,1,1,2.85.91Z"/><path class="cls-1" d="M81.38,62.77l-.48.92a1.39,1.39,0,0,1-2.48-1.24l0,0,.41-.87,0,0a1.4,1.4,0,0,1,2.53,1.21Z"/><path class="cls-1" d="M78.7,67.2l-.61.83a1.24,1.24,0,0,1-2-1.39l0,0,.52-.81v0a1.27,1.27,0,0,1,2.14,1.36Z"/><path class="cls-1" d="M75.41,71.18l-.72.73a1,1,0,0,1-1.54-1.39l0,0,.62-.74v0a1.09,1.09,0,1,1,1.68,1.38Z"/><path class="cls-1" d="M71.63,74.64l-.81.63A.83.83,0,0,1,69.74,74l0,0,.72-.66,0,0a.88.88,0,0,1,1.24.06.87.87,0,0,1-.06,1.23A.12.12,0,0,1,71.63,74.64Z"/><path class="cls-1" d="M67.43,77.55l-.88.51a.62.62,0,0,1-.67-1l0,0,.8-.56h0a.67.67,0,1,1,.76,1.1Z"/><path class="cls-1" d="M62.91,79.86l-.93.39a.44.44,0,0,1-.57-.24.43.43,0,0,1,.2-.55h0l.88-.44h0a.48.48,0,0,1,.63.21.47.47,0,0,1-.21.63Z"/><path class="cls-1" d="M58.16,81.56l-1,.27a.29.29,0,0,1-.36-.21.29.29,0,0,1,.19-.35h0L58,81h0a.31.31,0,0,1,.19.59Z"/><path class="cls-1" d="M53.24,82.64l-1,.14a.2.2,0,0,1-.23-.16.2.2,0,0,1,.17-.22h0l1-.16h0a.21.21,0,0,1,.23.17.2.2,0,0,1-.17.24Z"/><path class="cls-1" d="M48.24,83.1l-1,0a.16.16,0,1,1,0-.31l1,0a.17.17,0,0,1,.17.15.16.16,0,0,1-.15.17Z"/><path class="cls-1" d="M43.29,27.27l.43.27a.27.27,0,0,1,.1.38.29.29,0,0,1-.39.09.26.26,0,0,1-.09-.09l-.27-.44a.16.16,0,0,1,0-.21A.17.17,0,0,1,43.29,27.27Z"/><path class="cls-1" d="M46.78,29.7c.25.18.48.39.72.58a1,1,0,0,1-1.25,1.57.61.61,0,0,1-.16-.16c-.2-.24-.4-.47-.58-.72a.9.9,0,0,1,.19-1.27A.92.92,0,0,1,46.78,29.7Z"/><path class="cls-1" d="M50.31,32.69l.67.62a1.32,1.32,0,1,1-1.79,1.94l-.07-.07-.63-.68a1.28,1.28,0,0,1,1.82-1.81Z"/><path class="cls-1" d="M53.57,35.94c.2.24.4.47.59.71a1.21,1.21,0,0,1-1.7,1.7l-.71-.59a1.29,1.29,0,1,1,1.67-2Z"/><path class="cls-1" d="M56.43,39.6l.58.72a.63.63,0,0,1-.88.88l-.73-.57a.73.73,0,0,1-.12-1,.72.72,0,0,1,1-.12A.34.34,0,0,1,56.43,39.6Z"/><path class="cls-1" d="M59.5,43.05l.67.64a.48.48,0,1,1-.67.68h0l-.64-.66a.47.47,0,0,1,0-.65A.46.46,0,0,1,59.5,43.05Z"/><path class="cls-1" d="M63,46.08l.4.32a.72.72,0,0,1,.11,1l-.11.15-.31.4a.9.9,0,0,1-1.26.14.88.88,0,0,1-.15-1.25.71.71,0,0,1,.15-.15l.39-.31v1.17l-.31-.39A.78.78,0,0,1,63,46.08Z"/><path class="cls-1" d="M60.74,50.83l-.6.68a1.33,1.33,0,0,1-2-1.75l.12-.12L59,49a1.27,1.27,0,0,1,1.79,1.8Z"/><path class="cls-1" d="M57.67,54.23l-.62.68a1.55,1.55,0,0,1-2.27-2.1l.09-.09.67-.62a1.51,1.51,0,0,1,2.13,2.13Z"/><path class="cls-1" d="M54.5,57.54l-.66.64a1.59,1.59,0,0,1-2.24-2.25l.63-.66a1.61,1.61,0,1,1,2.32,2.23Z"/><path class="cls-1" d="M51.12,60.64l-.69.6a1.35,1.35,0,0,1-1.9-1.9l.6-.69a1.41,1.41,0,0,1,2.13,1.86Z"/><path class="cls-1" d="M47.58,63.58l-.73.57a.87.87,0,0,1-1.22-1.23l.57-.73A1,1,0,0,1,47.58,62a1,1,0,0,1,.17,1.39A1.37,1.37,0,0,1,47.58,63.58Z"/><path class="cls-1" d="M43.83,66.31l-.43.27a.15.15,0,0,1-.21,0,.17.17,0,0,1,0-.17l.28-.43a.26.26,0,1,1,.44.29A.3.3,0,0,1,43.83,66.31Z"/></svg>