<svg id="Calque_1" data-name="Calque 1" xmlns="http://www.w3.org/2000/svg" viewBox="0 0 94.83 92.54"><defs><style>.cls-1,.cls-2{fill:#fff;}.cls-1{stroke:#fff;stroke-miterlimit:10;stroke-width:0.25px;opacity:0.05;}</style></defs><title>Plan de travail 1 copie</title><circle class="cls-1" cx="46.96" cy="51.67" r="36.81"/><path class="cls-2" d="M30.44,18.94l-.84.56h0a.26.26,0,1,1-.29-.43l.05,0,.94-.37a.16.16,0,0,1,.2.09A.18.18,0,0,1,30.44,18.94Z"/><path class="cls-2" d="M26.42,21.86l-.76.63h0a.69.69,0,0,1-1-.09.68.68,0,0,1,.09-1l.09-.06.87-.53a.61.61,0,0,1,.7,1Z"/><path class="cls-2" d="M22.79,25.16l-.68.69,0,0a1,1,0,0,1-1.38,0,1,1,0,0,1,0-1.38l.07-.06.78-.67a.93.93,0,0,1,1.27,1.35Z"/><path class="cls-2" d="M19.58,28.81l-.58.77,0,0a1.17,1.17,0,0,1-1.87-1.42l.05-.06.67-.78a1.15,1.15,0,0,1,1.78,1.44Z"/><path class="cls-2" d="M16.85,32.8l-.49.83v0a1.3,1.3,0,0,1-1.78.45,1.29,1.29,0,0,1-.45-1.77v0l.56-.87a1.28,1.28,0,0,1,2.18,1.33Z"/><path class="cls-2" d="M14.63,37.07l-.39.88v0a1.34,1.34,0,0,1-2.46-1.08l.41-.95A1.35,1.35,0,0,1,14.65,37h0Z"/><path class="cls-2" d="M12.9,41.56l-.29.92,0,0a1.25,1.25,0,0,1-1.57.82,1.27,1.27,0,0,1-.85-1.5l.26-1A1.27,1.27,0,0,1,12,39.9a1.29,1.29,0,0,1,.94,1.56.19.19,0,0,0,0,.07Z"/><path class="cls-2" d="M11.64,46.24l-.2.95v0a1,1,0,0,1-1.2.8,1,1,0,0,1-.81-1.08l.08-1a1.08,1.08,0,1,1,2.15.18.5.5,0,0,1,0,.12Z"/><path class="cls-2" d="M10.93,51.07l-.06,1v0a.72.72,0,0,1-.76.68.74.74,0,0,1-.68-.69l0-1a.79.79,0,0,1,.74-.82.78.78,0,0,1,.81.74v.11Z"/><path class="cls-2" d="M11,56,11,57h0a.51.51,0,0,1-.45.56.52.52,0,0,1-.56-.43l-.16-1a.54.54,0,0,1,.44-.62.55.55,0,0,1,.63.44v0Z"/><path class="cls-2" d="M11.77,60.85l.26.95h0a.46.46,0,0,1-.88.25h0l-.27-1a.46.46,0,0,1,.32-.55.45.45,0,0,1,.55.32Z"/><path class="cls-2" d="M13.39,65.51l.41.89h0a.55.55,0,0,1-.27.72.54.54,0,0,1-.71-.27v0l-.38-.94a.51.51,0,0,1,.29-.67.5.5,0,0,1,.65.26Z"/><path class="cls-2" d="M15.73,69.83l.54.82h0a.74.74,0,0,1-.2,1,.73.73,0,0,1-1-.2.16.16,0,0,1,0-.07l-.48-.89a.69.69,0,0,1,.28-.94.68.68,0,0,1,.89.22Z"/><path class="cls-2" d="M18.68,73.74l.65.72v0a1,1,0,1,1-1.48,1.33l-.07-.08-.6-.83a.95.95,0,0,1,1.47-1.19Z"/><path class="cls-2" d="M22.09,77.19l.73.63,0,0a1.23,1.23,0,1,1-1.61,1.85l-.08-.07-.72-.74a1.19,1.19,0,0,1,1.63-1.72Z"/><path class="cls-2" d="M25.87,80.19l.8.55,0,0A1.37,1.37,0,0,1,25.15,83l0,0-.83-.63a1.34,1.34,0,0,1,1.57-2.18Z"/><path class="cls-2" d="M30,82.69l.86.43,0,0a1.48,1.48,0,1,1-1.33,2.64l-.05,0-.91-.51a1.45,1.45,0,0,1,1.36-2.57Z"/><path class="cls-2" d="M34.36,84.62l.91.31,0,0a1.56,1.56,0,0,1-1,3h-.05l-1-.38a1.55,1.55,0,0,1,1.06-2.91Z"/><path class="cls-2" d="M39,86l.94.2h0a1.6,1.6,0,1,1-.68,3.13h0l-1-.23A1.6,1.6,0,1,1,38.92,86Z"/><path class="cls-2" d="M43.67,86.75l.95.09h.05A1.57,1.57,0,0,1,44.42,90l-1-.07a1.58,1.58,0,0,1,.2-3.16h.09Z"/><path class="cls-2" d="M48.46,87l1,0h0a1.48,1.48,0,0,1,.16,3l-1,.08a1.5,1.5,0,1,1-.24-3h.12Z"/><path class="cls-2" d="M53.25,86.57l1-.16h0a1.33,1.33,0,0,1,.5,2.61l-1,.22a1.36,1.36,0,1,1-.59-2.65l.07,0Z"/><path class="cls-2" d="M58,85.58l.93-.27h0a1.12,1.12,0,0,1,1.4.76,1.14,1.14,0,0,1-.68,1.37l-1,.37a1.17,1.17,0,1,1-.84-2.18l.09,0Z"/><path class="cls-2" d="M62.57,84l.9-.39h0a.87.87,0,0,1,1.13.46.86.86,0,0,1-.37,1.08l-.89.51a.92.92,0,1,1-.91-1.59l.09,0Z"/><path class="cls-2" d="M67,81.85l.85-.49h0a.52.52,0,0,1,.58.85l-.8.64a.59.59,0,0,1-.74-.93l.07,0Z"/><path class="cls-2" d="M71.16,79.17l.27-.2a.15.15,0,0,1,.21,0,.15.15,0,0,1,0,.19l-.23.25a.19.19,0,0,1-.26,0,.17.17,0,0,1,0-.25Z"/></svg>