<svg xmlns="http://www.w3.org/2000/svg" viewBox="0 0 252 261.05"><defs><style>.cls-1,.cls-2{fill:#fff;}.cls-1{opacity:0.3;}</style></defs><title>picto-menu-02</title><g id="Calque_2" data-name="Calque 2"><circle class="cls-1" cx="126" cy="130.53" r="117.47"/><path class="cls-2" d="M197.56,74a.15.15,0,0,1-.15-.15.15.15,0,1,1,.3,0A.15.15,0,0,1,197.56,74Z"/><path class="cls-2" d="M197.31,78a.17.17,0,0,1-.17-.17.17.17,0,1,1,.34,0A.17.17,0,0,1,197.31,78Z"/><circle class="cls-2" cx="196.56" cy="81.76" r="0.19"/><path class="cls-2" d="M195.36,85.83a.26.26,0,0,1-.26-.26.25.25,0,0,1,.26-.26.26.26,0,0,1,.26.26A.26.26,0,0,1,195.36,85.83Z"/><path class="cls-2" d="M193.75,89.56a.34.34,0,1,1,.34-.34A.34.34,0,0,1,193.75,89.56Z"/><path class="cls-2" d="M191.8,93.17a.47.47,0,0,1-.46-.46.46.46,0,0,1,.46-.46.45.45,0,0,1,.46.46A.46.46,0,0,1,191.8,93.17Z"/><path class="cls-2" d="M189.58,96.61a.58.58,0,1,1,0-1.16.58.58,0,0,1,0,1.16Z"/><circle class="cls-2" cx="187.13" cy="99.19" r="0.7"/><circle class="cls-2" cx="184.52" cy="102.21" r="0.83"/><path class="cls-2" d="M181.77,106.07a1,1,0,1,1,0-1.91,1,1,0,0,1,0,1.91Z"/><path class="cls-2" d="M178.83,108.91a1.09,1.09,0,1,1,1.09-1.08A1.09,1.09,0,0,1,178.83,108.91Z"/><path class="cls-2" d="M175.63,111.38a1.18,1.18,0,1,1,1.18-1.18A1.18,1.18,0,0,1,175.63,111.38Z"/><path class="cls-2" d="M172.17,113.47a1.27,1.27,0,1,1,1.26-1.27A1.27,1.27,0,0,1,172.17,113.47Z"/><path class="cls-2" d="M168.51,115.13a1.31,1.31,0,1,1,1.31-1.31A1.31,1.31,0,0,1,168.51,115.13Z"/><circle class="cls-2" cx="164.72" cy="115.06" r="1.34"/><circle class="cls-2" cx="160.82" cy="115.95" r="1.34"/><circle class="cls-2" cx="156.87" cy="116.52" r="1.33"/><path class="cls-2" d="M152.89,118.12a1.29,1.29,0,1,1,1.29-1.28A1.28,1.28,0,0,1,152.89,118.12Z"/><path class="cls-2" d="M148.89,118.16a1.24,1.24,0,1,1,1.24-1.24A1.23,1.23,0,0,1,148.89,118.16Z"/><path class="cls-2" d="M144.9,117.9a1.14,1.14,0,1,1,1.14-1.14A1.15,1.15,0,0,1,144.9,117.9Z"/><path class="cls-2" d="M140.92,117.36a1,1,0,1,1,1.05-1A1,1,0,0,1,140.92,117.36Z"/><path class="cls-2" d="M137,116.5a.95.95,0,0,1,0-1.9,1,1,0,1,1,0,1.9Z"/><path class="cls-2" d="M133.15,115.33a.86.86,0,1,1,.85-.85A.85.85,0,0,1,133.15,115.33Z"/><path class="cls-2" d="M129.4,113.83a.76.76,0,1,1,.76-.75A.76.76,0,0,1,129.4,113.83Z"/><path class="cls-2" d="M125.8,112a.66.66,0,1,1,.66-.66A.66.66,0,0,1,125.8,112Z"/><circle class="cls-2" cx="122.37" cy="109.3" r="0.57"/><circle class="cls-2" cx="119.16" cy="106.93" r="0.51"/><path class="cls-2" d="M116.19,104.74a.48.48,0,0,1-.48-.48.47.47,0,0,1,.48-.48.48.48,0,0,1,.48.48A.49.49,0,0,1,116.19,104.74Z"/><circle class="cls-2" cx="113.5" cy="101.3" r="0.46"/><path class="cls-2" d="M111.13,98.54a.46.46,0,0,1-.46-.46.47.47,0,0,1,.46-.46.46.46,0,0,1,.46.46A.45.45,0,0,1,111.13,98.54Z"/><circle class="cls-2" cx="109.1" cy="94.64" r="0.47"/><circle class="cls-2" cx="107.41" cy="91.02" r="0.51"/><circle class="cls-2" cx="106.09" cy="87.25" r="0.55"/><path class="cls-2" d="M105.12,84a.62.62,0,1,1,.63-.62A.62.62,0,0,1,105.12,84Z"/><circle class="cls-2" cx="104.5" cy="79.43" r="0.7"/><path class="cls-2" d="M104.22,76.23a.78.78,0,1,1,.78-.78A.78.78,0,0,1,104.22,76.23Z"/><path class="cls-2" d="M104.26,72.32a.87.87,0,1,1,.87-.87A.87.87,0,0,1,104.26,72.32Z"/><circle class="cls-2" cx="104.69" cy="67.48" r="0.96"/><path class="cls-2" d="M105.53,64.62a1,1,0,1,1,1-1.05A1,1,0,0,1,105.53,64.62Z"/><path class="cls-2" d="M106.76,60.91a1.14,1.14,0,1,1,1.13-1.14A1.13,1.13,0,0,1,106.76,60.91Z"/><path class="cls-2" d="M108.38,57.32a1.2,1.2,0,1,1,0-2.39,1.2,1.2,0,0,1,0,2.39Z"/><path class="cls-2" d="M110.36,53.91a1.26,1.26,0,1,1,1.25-1.26A1.26,1.26,0,0,1,110.36,53.91Z"/><circle class="cls-2" cx="112.67" cy="49.39" r="1.31"/><path class="cls-2" d="M115.28,47.73a1.36,1.36,0,1,1,1.36-1.36A1.36,1.36,0,0,1,115.28,47.73Z"/><path class="cls-2" d="M118.15,45a1.4,1.4,0,1,1,1.4-1.4A1.39,1.39,0,0,1,118.15,45Z"/><path class="cls-2" d="M121.26,42.51a1.44,1.44,0,1,1,1.43-1.43A1.44,1.44,0,0,1,121.26,42.51Z"/><circle class="cls-2" cx="124.55" cy="38.82" r="1.47"/><path class="cls-2" d="M128,38.34a1.5,1.5,0,1,1,1.5-1.5A1.5,1.5,0,0,1,128,38.34Z"/><path class="cls-2" d="M131.62,36.66a1.54,1.54,0,1,1,1.54-1.53A1.54,1.54,0,0,1,131.62,36.66Z"/><circle class="cls-2" cx="135.35" cy="33.68" r="1.57"/><path class="cls-2" d="M139.17,34.11a1.6,1.6,0,1,1,0-3.19,1.6,1.6,0,0,1,0,3.19Z"/><path class="cls-2" d="M143.06,33.22a1.6,1.6,0,1,1,1.6-1.6A1.6,1.6,0,0,1,143.06,33.22Z"/><circle class="cls-2" cx="147.01" cy="31" r="1.6"/><path class="cls-2" d="M151,32.26a1.61,1.61,0,1,1,1.61-1.61A1.61,1.61,0,0,1,151,32.26Z"/><path class="cls-2" d="M155,32.17a1.58,1.58,0,1,1,1.57-1.58A1.58,1.58,0,0,1,155,32.17Z"/><path class="cls-2" d="M159,32.36a1.55,1.55,0,1,1,1.55-1.55A1.55,1.55,0,0,1,159,32.36Z"/><circle class="cls-2" cx="162.94" cy="31.33" r="1.52"/><path class="cls-2" d="M166.85,33.67a1.49,1.49,0,1,1,1.49-1.49A1.49,1.49,0,0,1,166.85,33.67Z"/><path class="cls-2" d="M170.67,34.79a1.43,1.43,0,1,1,1.42-1.43A1.43,1.43,0,0,1,170.67,34.79Z"/><path class="cls-2" d="M174.36,36.24a1.36,1.36,0,1,1,1.36-1.36A1.35,1.35,0,0,1,174.36,36.24Z"/><circle class="cls-2" cx="177.89" cy="36.75" r="1.25"/><path class="cls-2" d="M181.22,40.1A1.14,1.14,0,1,1,182.36,39,1.14,1.14,0,0,1,181.22,40.1Z"/><circle class="cls-2" cx="184.31" cy="41.5" r="1"/><circle class="cls-2" cx="187.11" cy="44.34" r="0.87"/><path class="cls-2" d="M189.61,48.19a.74.74,0,0,1,0-1.47.74.74,0,0,1,0,1.47Z"/><circle class="cls-2" cx="191.77" cy="50.82" r="0.61"/><path class="cls-2" d="M193.59,54.86a.48.48,0,0,1-.48-.49.47.47,0,0,1,.48-.48.48.48,0,0,1,.49.48A.49.49,0,0,1,193.59,54.86Z"/><circle class="cls-2" cx="195.06" cy="58.09" r="0.36"/><circle class="cls-2" cx="196.18" cy="61.93" r="0.28"/><path class="cls-2" d="M197,66.05a.21.21,0,1,1,.2-.21A.21.21,0,0,1,197,66.05Z"/><path class="cls-2" d="M197.41,70a.18.18,0,1,1,.18-.18A.18.18,0,0,1,197.41,70Z"/><path class="cls-2" d="M96.69,119.2a.14.14,0,0,1-.15-.15.15.15,0,0,1,.15-.15.15.15,0,0,1,.15.15A.15.15,0,0,1,96.69,119.2Z"/><path class="cls-2" d="M96.47,123.2a.18.18,0,0,1-.18-.18.18.18,0,0,1,.18-.17.18.18,0,0,1,.17.17A.18.18,0,0,1,96.47,123.2Z"/><path class="cls-2" d="M95.79,127.16a.22.22,0,0,1-.22-.22.23.23,0,1,1,.22.22Z"/><path class="cls-2" d="M94.66,131.06a.32.32,0,0,1,0-.63.32.32,0,1,1,0,.63Z"/><path class="cls-2" d="M93.07,134.83a.45.45,0,0,1-.45-.45.46.46,0,0,1,.45-.46.47.47,0,0,1,.46.46A.46.46,0,0,1,93.07,134.83Z"/><path class="cls-2" d="M91.05,138.41a.62.62,0,0,1-.62-.62.61.61,0,0,1,.62-.61.61.61,0,0,1,.61.61A.61.61,0,0,1,91.05,138.41Z"/><path class="cls-2" d="M88.62,141.71a.78.78,0,1,1,.78-.78A.78.78,0,0,1,88.62,141.71Z"/><path class="cls-2" d="M85.83,144.7a.94.94,0,1,1,.94-.94A.94.94,0,0,1,85.83,144.7Z"/><circle class="cls-2" cx="82.73" cy="146.24" r="1.1"/><path class="cls-2" d="M79.37,149.56a1.22,1.22,0,1,1,1.21-1.22A1.22,1.22,0,0,1,79.37,149.56Z"/><circle class="cls-2" cx="75.79" cy="150.06" r="1.3"/><path class="cls-2" d="M72.05,152.72a1.34,1.34,0,1,1,1.34-1.34A1.34,1.34,0,0,1,72.05,152.72Z"/><circle class="cls-2" cx="68.18" cy="152.3" r="1.34"/><circle class="cls-2" cx="64.25" cy="152.82" r="1.31"/><path class="cls-2" d="M60.28,154.21A1.25,1.25,0,1,1,61.53,153,1.25,1.25,0,0,1,60.28,154.21Z"/><circle class="cls-2" cx="56.32" cy="152.71" r="1.14"/><circle class="cls-2" cx="52.4" cy="152.06" r="1.02"/><circle class="cls-2" cx="48.56" cy="151.02" r="0.9"/><circle class="cls-2" cx="44.87" cy="149.58" r="0.77"/><circle class="cls-2" cx="41.35" cy="147.74" r="0.65"/><circle class="cls-2" cx="38.06" cy="145.52" r="0.55"/><path class="cls-2" d="M35.05,143.42a.49.49,0,1,1,0-1,.49.49,0,0,1,0,1Z"/><circle class="cls-2" cx="32.37" cy="140.01" r="0.46"/><path class="cls-2" d="M30.06,137.25a.47.47,0,1,1,.46-.47A.47.47,0,0,1,30.06,137.25Z"/><path class="cls-2" d="M28.16,133.78a.48.48,0,0,1-.48-.48.49.49,0,0,1,.48-.48.48.48,0,0,1,.48.48A.47.47,0,0,1,28.16,133.78Z"/><path class="cls-2" d="M26.71,130.15a.54.54,0,1,1,.54-.54A.54.54,0,0,1,26.71,130.15Z"/><circle class="cls-2" cx="25.72" cy="125.77" r="0.62"/><path class="cls-2" d="M25.18,122.56a.72.72,0,1,1,.72-.72A.72.72,0,0,1,25.18,122.56Z"/><path class="cls-2" d="M25.1,118.69a.82.82,0,1,1,.82-.82A.83.83,0,0,1,25.1,118.69Z"/><circle class="cls-2" cx="25.47" cy="113.92" r="0.94"/><circle class="cls-2" cx="26.31" cy="110.04" r="1.05"/><path class="cls-2" d="M27.6,107.43a1.15,1.15,0,1,1,1.16-1.15A1.15,1.15,0,0,1,27.6,107.43Z"/><circle class="cls-2" cx="29.32" cy="102.7" r="1.23"/><circle class="cls-2" cx="31.43" cy="99.34" r="1.3"/><path class="cls-2" d="M33.89,97.59a1.37,1.37,0,1,1,1.36-1.37A1.37,1.37,0,0,1,33.89,97.59Z"/><path class="cls-2" d="M36.67,94.8a1.41,1.41,0,1,1,1.41-1.41A1.42,1.42,0,0,1,36.67,94.8Z"/><circle class="cls-2" cx="39.72" cy="90.86" r="1.45"/><circle class="cls-2" cx="43.03" cy="88.66" r="1.5"/><circle class="cls-2" cx="46.54" cy="86.81" r="1.54"/><path class="cls-2" d="M50.23,86.92a1.59,1.59,0,1,1,1.58-1.58A1.59,1.59,0,0,1,50.23,86.92Z"/><circle class="cls-2" cx="54.05" cy="84.26" r="1.6"/><circle class="cls-2" cx="57.96" cy="83.58" r="1.6"/><circle class="cls-2" cx="61.92" cy="83.34" r="1.6"/><circle class="cls-2" cx="65.89" cy="83.52" r="1.56"/><path class="cls-2" d="M69.81,85.67a1.53,1.53,0,1,1,1.53-1.53A1.53,1.53,0,0,1,69.81,85.67Z"/><circle class="cls-2" cx="73.63" cy="85.22" r="1.48"/><path class="cls-2" d="M77.3,88.15a1.41,1.41,0,1,1,1.4-1.41A1.41,1.41,0,0,1,77.3,88.15Z"/><path class="cls-2" d="M80.76,90a1.3,1.3,0,1,1,1.29-1.3A1.3,1.3,0,0,1,80.76,90Z"/><path class="cls-2" d="M84,92.2A1.16,1.16,0,1,1,85.11,91,1.16,1.16,0,0,1,84,92.2Z"/><path class="cls-2" d="M86.86,94.74a1,1,0,1,1,1-1A1,1,0,0,1,86.86,94.74Z"/><path class="cls-2" d="M89.42,97.59a.81.81,0,0,1-.81-.81.82.82,0,0,1,.81-.82.82.82,0,0,1,.82.82A.82.82,0,0,1,89.42,97.59Z"/><circle class="cls-2" cx="91.63" cy="100.08" r="0.64"/><path class="cls-2" d="M93.45,104.08a.47.47,0,0,1-.48-.48.48.48,0,0,1,.48-.48.49.49,0,0,1,.48.48A.48.48,0,0,1,93.45,104.08Z"/><path class="cls-2" d="M94.87,107.65a.34.34,0,0,1-.34-.34.34.34,0,0,1,.34-.34.34.34,0,0,1,.34.34A.35.35,0,0,1,94.87,107.65Z"/><path class="cls-2" d="M95.88,111.39a.25.25,0,1,1,.25-.25A.25.25,0,0,1,95.88,111.39Z"/><path class="cls-2" d="M96.49,115.25a.18.18,0,0,1-.19-.18.18.18,0,0,1,.19-.19.18.18,0,0,1,.18.19A.18.18,0,0,1,96.49,115.25Z"/><path class="cls-2" d="M174.41,149.34a.15.15,0,0,1-.15-.15.15.15,0,0,1,.3,0A.15.15,0,0,1,174.41,149.34Z"/><circle class="cls-2" cx="174.88" cy="153.19" r="0.17"/><path class="cls-2" d="M175,157.41a.19.19,0,0,1-.19-.2A.19.19,0,0,1,175,157a.2.2,0,0,1,.19.19A.2.2,0,0,1,175,157.41Z"/><path class="cls-2" d="M174.73,161.49a.26.26,0,0,1-.26-.26.26.26,0,1,1,.52,0A.26.26,0,0,1,174.73,161.49Z"/><path class="cls-2" d="M174.1,165.55a.34.34,0,1,1,.34-.34A.34.34,0,0,1,174.1,165.55Z"/><path class="cls-2" d="M173.1,169.57a.46.46,0,0,1-.46-.46.45.45,0,0,1,.46-.46.46.46,0,0,1,.46.46A.47.47,0,0,1,173.1,169.57Z"/><path class="cls-2" d="M171.73,173.48a.6.6,0,0,1-.59-.59.59.59,0,0,1,.59-.58.58.58,0,0,1,.58.58A.59.59,0,0,1,171.73,173.48Z"/><path class="cls-2" d="M170,177.23a.71.71,0,1,1,.71-.71A.71.71,0,0,1,170,177.23Z"/><path class="cls-2" d="M167.91,180.8a.83.83,0,1,1,.84-.83A.83.83,0,0,1,167.91,180.8Z"/><path class="cls-2" d="M165.5,184.15a1,1,0,1,1,1-1A1,1,0,0,1,165.5,184.15Z"/><circle class="cls-2" cx="162.79" cy="186.16" r="1.08"/><circle class="cls-2" cx="159.79" cy="188.84" r="1.18"/><circle class="cls-2" cx="156.53" cy="191.22" r="1.26"/><path class="cls-2" d="M153.06,194.56a1.31,1.31,0,1,1,1.31-1.31A1.31,1.31,0,0,1,153.06,194.56Z"/><path class="cls-2" d="M149.4,196.27a1.34,1.34,0,1,1,1.35-1.34A1.34,1.34,0,0,1,149.4,196.27Z"/><circle class="cls-2" cx="145.6" cy="196.24" r="1.34"/><path class="cls-2" d="M141.69,198.52a1.34,1.34,0,1,1,1.33-1.33A1.34,1.34,0,0,1,141.69,198.52Z"/><path class="cls-2" d="M137.71,199a1.29,1.29,0,1,1,1.28-1.29A1.29,1.29,0,0,1,137.71,199Z"/><circle class="cls-2" cx="133.69" cy="197.96" r="1.24"/><circle class="cls-2" cx="129.66" cy="197.83" r="1.14"/><circle class="cls-2" cx="125.66" cy="197.39" r="1.05"/><path class="cls-2" d="M121.7,197.6a1,1,0,1,1,1-.95A.95.95,0,0,1,121.7,197.6Z"/><path class="cls-2" d="M117.82,196.45a.86.86,0,1,1,.85-.85A.85.85,0,0,1,117.82,196.45Z"/><path class="cls-2" d="M114,195a.76.76,0,0,1,0-1.51.76.76,0,1,1,0,1.51Z"/><path class="cls-2" d="M110.37,193.2a.66.66,0,1,1,.66-.65A.66.66,0,0,1,110.37,193.2Z"/><circle class="cls-2" cx="106.87" cy="190.56" r="0.57"/><path class="cls-2" d="M103.55,188.8a.52.52,0,0,1-.51-.52.52.52,0,0,1,1,0A.52.52,0,0,1,103.55,188.8Z"/><path class="cls-2" d="M100.45,186.2a.48.48,0,0,1-.47-.48.48.48,0,1,1,1,0A.48.48,0,0,1,100.45,186.2Z"/><circle class="cls-2" cx="97.6" cy="182.89" r="0.46"/><path class="cls-2" d="M95,180.26a.46.46,0,0,1-.46-.46.46.46,0,0,1,.92,0A.46.46,0,0,1,95,180.26Z"/><path class="cls-2" d="M92.72,177a.48.48,0,1,1,0-.95.48.48,0,0,1,0,.95Z"/><circle class="cls-2" cx="90.74" cy="172.99" r="0.51"/><path class="cls-2" d="M89.1,169.86a.54.54,0,0,1-.55-.55.55.55,0,0,1,.55-.55.55.55,0,0,1,.55.55A.55.55,0,0,1,89.1,169.86Z"/><circle class="cls-2" cx="87.8" cy="165.51" r="0.62"/><path class="cls-2" d="M86.85,162.3a.7.7,0,1,1,.7-.7A.7.7,0,0,1,86.85,162.3Z"/><path class="cls-2" d="M86.25,158.4a.78.78,0,1,1,.78-.78A.78.78,0,0,1,86.25,158.4Z"/><path class="cls-2" d="M86,154.47a.87.87,0,1,1,.86-.87A.87.87,0,0,1,86,154.47Z"/><path class="cls-2" d="M86.06,150.53a1,1,0,1,1,1-.95A1,1,0,0,1,86.06,150.53Z"/><path class="cls-2" d="M86.47,146.62a1.05,1.05,0,1,1,1-1.05A1,1,0,0,1,86.47,146.62Z"/><circle class="cls-2" cx="87.2" cy="141.61" r="1.13"/><circle class="cls-2" cx="88.27" cy="137.73" r="1.19"/><circle class="cls-2" cx="89.66" cy="133.95" r="1.25"/><circle class="cls-2" cx="91.37" cy="130.3" r="1.31"/><path class="cls-2" d="M93.38,128.18a1.37,1.37,0,1,1,1.36-1.36A1.36,1.36,0,0,1,93.38,128.18Z"/><circle class="cls-2" cx="95.68" cy="123.51" r="1.4"/><path class="cls-2" d="M98.25,121.85a1.43,1.43,0,1,1,1.44-1.43A1.43,1.43,0,0,1,98.25,121.85Z"/><path class="cls-2" d="M101.09,119a1.47,1.47,0,1,1,1.47-1.47A1.46,1.46,0,0,1,101.09,119Z"/><path class="cls-2" d="M104.17,116.48a1.5,1.5,0,1,1,1.5-1.5A1.5,1.5,0,0,1,104.17,116.48Z"/><circle class="cls-2" cx="107.47" cy="112.68" r="1.54"/><path class="cls-2" d="M111,112.27a1.57,1.57,0,1,1,1.57-1.57A1.57,1.57,0,0,1,111,112.27Z"/><path class="cls-2" d="M114.64,110.65a1.6,1.6,0,1,1,1.6-1.6A1.6,1.6,0,0,1,114.64,110.65Z"/><path class="cls-2" d="M118.45,109.36a1.6,1.6,0,1,1,1.6-1.6A1.6,1.6,0,0,1,118.45,109.36Z"/><circle class="cls-2" cx="122.37" cy="106.85" r="1.6"/><circle class="cls-2" cx="126.36" cy="106.31" r="1.61"/><path class="cls-2" d="M130.38,107.73a1.58,1.58,0,1,1,1.58-1.58A1.58,1.58,0,0,1,130.38,107.73Z"/><path class="cls-2" d="M134.4,107.92a1.55,1.55,0,1,1,1.55-1.55A1.55,1.55,0,0,1,134.4,107.92Z"/><circle class="cls-2" cx="138.4" cy="106.85" r="1.52"/><path class="cls-2" d="M142.35,109.09a1.49,1.49,0,1,1,1.49-1.49A1.49,1.49,0,0,1,142.35,109.09Z"/><path class="cls-2" d="M146.24,110.07a1.43,1.43,0,1,1,1.42-1.42A1.43,1.43,0,0,1,146.24,110.07Z"/><path class="cls-2" d="M150,111.39a1.36,1.36,0,1,1,1.35-1.35A1.36,1.36,0,0,1,150,111.39Z"/><circle class="cls-2" cx="153.63" cy="111.8" r="1.25"/><path class="cls-2" d="M157,115.11a1.14,1.14,0,1,1,1.14-1.14A1.14,1.14,0,0,1,157,115.11Z"/><path class="cls-2" d="M160.12,117.53a1,1,0,1,1,1-1A1,1,0,0,1,160.12,117.53Z"/><circle class="cls-2" cx="162.9" cy="119.45" r="0.87"/><circle class="cls-2" cx="165.31" cy="122.66" r="0.73"/><circle class="cls-2" cx="167.38" cy="126.12" r="0.61"/><path class="cls-2" d="M169.13,130.22a.48.48,0,0,1-.49-.48.49.49,0,0,1,1,0A.48.48,0,0,1,169.13,130.22Z"/><path class="cls-2" d="M170.6,133.85a.37.37,0,0,1-.36-.37.36.36,0,0,1,.72,0A.37.37,0,0,1,170.6,133.85Z"/><path class="cls-2" d="M171.82,137.6a.29.29,0,0,1-.28-.28.28.28,0,0,1,.28-.28.27.27,0,0,1,.28.28A.28.28,0,0,1,171.82,137.6Z"/><path class="cls-2" d="M172.84,141.42a.21.21,0,1,1,.21-.21A.21.21,0,0,1,172.84,141.42Z"/><path class="cls-2" d="M173.69,145.32a.18.18,0,0,1-.18-.18.18.18,0,0,1,.36,0A.18.18,0,0,1,173.69,145.32Z"/><path class="cls-2" d="M203.63,182.76a.15.15,0,0,1-.15-.15.15.15,0,0,1,.15-.15.14.14,0,0,1,.15.15A.15.15,0,0,1,203.63,182.76Z"/><path class="cls-2" d="M203.46,186.76a.17.17,0,0,1-.17-.17.18.18,0,0,1,.17-.17.17.17,0,0,1,.17.17A.16.16,0,0,1,203.46,186.76Z"/><path class="cls-2" d="M203,190.74a.18.18,0,0,1-.19-.19.19.19,0,0,1,.19-.19.2.2,0,0,1,.19.19A.19.19,0,0,1,203,190.74Z"/><path class="cls-2" d="M202.09,194.71a.26.26,0,1,1,.25-.26A.26.26,0,0,1,202.09,194.71Z"/><path class="cls-2" d="M200.89,198.59a.34.34,0,1,1,0-.67.34.34,0,0,1,0,.67Z"/><path class="cls-2" d="M199.36,202.39a.45.45,0,0,1-.45-.45.45.45,0,1,1,.9,0A.45.45,0,0,1,199.36,202.39Z"/><path class="cls-2" d="M197.52,206.05a.58.58,0,1,1,.57-.58A.58.58,0,0,1,197.52,206.05Z"/><path class="cls-2" d="M195.37,209.53a.7.7,0,1,1,.69-.69A.69.69,0,0,1,195.37,209.53Z"/><path class="cls-2" d="M192.94,212.82a.82.82,0,1,1,.82-.82A.82.82,0,0,1,192.94,212.82Z"/><path class="cls-2" d="M190.24,215.88a.94.94,0,1,1,.95-.94A.94.94,0,0,1,190.24,215.88Z"/><path class="cls-2" d="M187.31,218.7a1.07,1.07,0,1,1,1.06-1.06A1.07,1.07,0,0,1,187.31,218.7Z"/><circle class="cls-2" cx="184.14" cy="220.07" r="1.17"/><path class="cls-2" d="M180.78,223.46a1.25,1.25,0,1,1,1.25-1.25A1.25,1.25,0,0,1,180.78,223.46Z"/><circle class="cls-2" cx="177.25" cy="224.06" r="1.3"/><path class="cls-2" d="M173.57,226.92a1.34,1.34,0,1,1,1.33-1.33A1.33,1.33,0,0,1,173.57,226.92Z"/><path class="cls-2" d="M169.76,228.13a1.35,1.35,0,0,1,0-2.69,1.35,1.35,0,1,1,0,2.69Z"/><circle class="cls-2" cx="165.87" cy="227.65" r="1.33"/><circle class="cls-2" cx="161.91" cy="228.17" r="1.3"/><circle class="cls-2" cx="157.93" cy="228.34" r="1.25"/><path class="cls-2" d="M153.94,229.34a1.17,1.17,0,1,1,1.16-1.17A1.17,1.17,0,0,1,153.94,229.34Z"/><circle class="cls-2" cx="149.98" cy="227.66" r="1.07"/><circle class="cls-2" cx="146.08" cy="226.8" r="0.98"/><circle class="cls-2" cx="142.28" cy="225.6" r="0.88"/><path class="cls-2" d="M138.59,224.87a.79.79,0,1,1,.79-.79A.79.79,0,0,1,138.59,224.87Z"/><circle class="cls-2" cx="135.05" cy="222.24" r="0.69"/><path class="cls-2" d="M131.69,220.69a.59.59,0,0,1-.59-.6.58.58,0,0,1,.59-.59.59.59,0,0,1,.6.59A.6.6,0,0,1,131.69,220.69Z"/><circle class="cls-2" cx="128.53" cy="217.67" r="0.54"/><path class="cls-2" d="M125.58,215.46a.49.49,0,0,1-.48-.49.49.49,0,0,1,1,0A.49.49,0,0,1,125.58,215.46Z"/><path class="cls-2" d="M122.89,212.5a.47.47,0,1,1,.46-.47A.47.47,0,0,1,122.89,212.5Z"/><path class="cls-2" d="M120.45,209.33a.46.46,0,0,1,0-.91.46.46,0,1,1,0,.91Z"/><circle class="cls-2" cx="118.31" cy="205.52" r="0.47"/><path class="cls-2" d="M116.46,202.47A.49.49,0,0,1,116,202a.48.48,0,0,1,.49-.48.47.47,0,0,1,.48.48A.48.48,0,0,1,116.46,202.47Z"/><path class="cls-2" d="M114.93,198.83a.53.53,0,1,1,.53-.53A.54.54,0,0,1,114.93,198.83Z"/><path class="cls-2" d="M113.72,195.08a.59.59,0,1,1,.59-.58A.58.58,0,0,1,113.72,195.08Z"/><path class="cls-2" d="M112.86,191.27a.67.67,0,1,1,0-1.33.67.67,0,0,1,0,1.33Z"/><circle class="cls-2" cx="112.34" cy="186.65" r="0.74"/><path class="cls-2" d="M112.16,183.48a.82.82,0,1,1,.82-.82A.82.82,0,0,1,112.16,183.48Z"/><circle class="cls-2" cx="112.33" cy="178.67" r="0.91"/><circle class="cls-2" cx="112.84" cy="174.72" r="1"/><path class="cls-2" d="M113.7,171.91a1.09,1.09,0,1,1,1.09-1.09A1.09,1.09,0,0,1,113.7,171.91Z"/><circle class="cls-2" cx="114.89" cy="167.01" r="1.16"/><path class="cls-2" d="M116.41,164.55a1.22,1.22,0,0,1,0-2.44,1.22,1.22,0,0,1,0,2.44Z"/><path class="cls-2" d="M118.25,161.07a1.28,1.28,0,0,1,0-2.56,1.28,1.28,0,0,1,0,2.56Z"/><circle class="cls-2" cx="120.4" cy="156.42" r="1.34"/><circle class="cls-2" cx="122.82" cy="153.26" r="1.38"/><circle class="cls-2" cx="125.51" cy="150.31" r="1.41"/><path class="cls-2" d="M128.45,149.06a1.45,1.45,0,1,1,0-2.89,1.45,1.45,0,0,1,0,2.89Z"/><circle class="cls-2" cx="131.61" cy="145.18" r="1.48"/><path class="cls-2" d="M135,144.54a1.52,1.52,0,1,1,1.52-1.51A1.52,1.52,0,0,1,135,144.54Z"/><circle class="cls-2" cx="138.5" cy="141.18" r="1.55"/><circle class="cls-2" cx="142.18" cy="139.64" r="1.58"/><circle class="cls-2" cx="145.98" cy="138.44" r="1.6"/><path class="cls-2" d="M149.87,139.17a1.6,1.6,0,1,1,1.6-1.6A1.6,1.6,0,0,1,149.87,139.17Z"/><circle class="cls-2" cx="153.83" cy="137.05" r="1.6"/><circle class="cls-2" cx="157.81" cy="136.87" r="1.6"/><circle class="cls-2" cx="161.8" cy="137.04" r="1.57"/><path class="cls-2" d="M165.76,139.09a1.55,1.55,0,1,1,1.55-1.55A1.54,1.54,0,0,1,165.76,139.09Z"/><circle class="cls-2" cx="169.66" cy="138.4" r="1.52"/><circle class="cls-2" cx="173.47" cy="139.59" r="1.48"/><path class="cls-2" d="M177.15,142.52a1.41,1.41,0,1,1,1.42-1.41A1.41,1.41,0,0,1,177.15,142.52Z"/><circle class="cls-2" cx="180.69" cy="142.95" r="1.34"/><circle class="cls-2" cx="184.06" cy="145.09" r="1.24"/><circle class="cls-2" cx="187.23" cy="147.51" r="1.12"/><circle class="cls-2" cx="190.17" cy="150.2" r="0.99"/><path class="cls-2" d="M192.87,154a.86.86,0,1,1,.86-.85A.85.85,0,0,1,192.87,154Z"/><path class="cls-2" d="M195.31,157a.72.72,0,1,1,.72-.72A.72.72,0,0,1,195.31,157Z"/><path class="cls-2" d="M197.46,160.25a.6.6,0,1,1,.6-.6A.6.6,0,0,1,197.46,160.25Z"/><circle class="cls-2" cx="199.31" cy="163.18" r="0.48"/><circle class="cls-2" cx="200.85" cy="166.86" r="0.36"/><path class="cls-2" d="M202.06,170.94a.29.29,0,0,1-.28-.28.28.28,0,0,1,.28-.27.27.27,0,0,1,.27.27A.28.28,0,0,1,202.06,170.94Z"/><circle class="cls-2" cx="202.93" cy="174.56" r="0.21"/><path class="cls-2" d="M203.45,178.69a.18.18,0,1,1,.18-.18A.18.18,0,0,1,203.45,178.69Z"/><path class="cls-2" d="M112.16,166.14a.15.15,0,1,1,0-.3.15.15,0,0,1,0,.3Z"/><circle class="cls-2" cx="111.84" cy="169.98" r="0.18"/><path class="cls-2" d="M110.88,174.16a.29.29,0,0,1,0-.58.29.29,0,0,1,0,.58Z"/><path class="cls-2" d="M109.32,178a.45.45,0,0,1-.45-.45.46.46,0,0,1,.45-.46.47.47,0,0,1,.46.46A.46.46,0,0,1,109.32,178Z"/><path class="cls-2" d="M107.23,181.64a.67.67,0,1,1,.67-.67A.67.67,0,0,1,107.23,181.64Z"/><path class="cls-2" d="M104.67,184.94a.89.89,0,1,1,.88-.89A.89.89,0,0,1,104.67,184.94Z"/><path class="cls-2" d="M101.7,187.84a1.1,1.1,0,1,1,1.1-1.1A1.1,1.1,0,0,1,101.7,187.84Z"/><path class="cls-2" d="M98.39,190.25A1.25,1.25,0,1,1,99.64,189,1.25,1.25,0,0,1,98.39,190.25Z"/><circle class="cls-2" cx="94.8" cy="190.78" r="1.33"/><circle class="cls-2" cx="91.01" cy="192.05" r="1.34"/><path class="cls-2" d="M87.06,194.06a1.3,1.3,0,1,1,1.3-1.29A1.29,1.29,0,0,1,87.06,194.06Z"/><path class="cls-2" d="M83.06,194.08a1.18,1.18,0,1,1,1.18-1.18A1.18,1.18,0,0,1,83.06,194.08Z"/><circle class="cls-2" cx="79.08" cy="192.42" r="1.02"/><circle class="cls-2" cx="75.23" cy="191.31" r="0.86"/><path class="cls-2" d="M71.61,190.29a.69.69,0,1,1,.69-.69A.68.68,0,0,1,71.61,190.29Z"/><path class="cls-2" d="M68.33,187.87a.56.56,0,1,1,.55-.56A.56.56,0,0,1,68.33,187.87Z"/><path class="cls-2" d="M65.45,185a.47.47,0,0,1-.48-.48.48.48,0,0,1,.48-.48.49.49,0,0,1,.48.48A.48.48,0,0,1,65.45,185Z"/><path class="cls-2" d="M63,181.79a.46.46,0,1,1,.45-.45A.45.45,0,0,1,63,181.79Z"/><path class="cls-2" d="M61.13,178.3a.49.49,0,1,1,.48-.48A.48.48,0,0,1,61.13,178.3Z"/><path class="cls-2" d="M59.76,174.61a.56.56,0,0,1,0-1.11.56.56,0,1,1,0,1.11Z"/><path class="cls-2" d="M58.93,170.82a.67.67,0,0,1-.68-.68.68.68,0,0,1,.68-.69.69.69,0,0,1,.69.69A.68.68,0,0,1,58.93,170.82Z"/><path class="cls-2" d="M58.65,167a.83.83,0,1,1,.82-.83A.82.82,0,0,1,58.65,167Z"/><path class="cls-2" d="M58.92,163.12a1,1,0,1,1,1-1A1,1,0,0,1,58.92,163.12Z"/><path class="cls-2" d="M59.79,159.36a1.13,1.13,0,1,1,1.12-1.12A1.13,1.13,0,0,1,59.79,159.36Z"/><circle class="cls-2" cx="61.23" cy="154.5" r="1.23"/><path class="cls-2" d="M63.22,152.35A1.33,1.33,0,1,1,64.55,151,1.33,1.33,0,0,1,63.22,152.35Z"/><circle class="cls-2" cx="65.71" cy="147.88" r="1.4"/><circle class="cls-2" cx="68.63" cy="145.14" r="1.45"/><circle class="cls-2" cx="71.92" cy="142.87" r="1.51"/><path class="cls-2" d="M75.52,142.69a1.57,1.57,0,1,1,1.57-1.57A1.57,1.57,0,0,1,75.52,142.69Z"/><circle class="cls-2" cx="79.34" cy="139.92" r="1.6"/><path class="cls-2" d="M83.3,140.92a1.61,1.61,0,1,1,1.61-1.61A1.61,1.61,0,0,1,83.3,140.92Z"/><path class="cls-2" d="M87.31,140.88a1.58,1.58,0,1,1,1.57-1.58A1.58,1.58,0,0,1,87.31,140.88Z"/><path class="cls-2" d="M91.27,141.41a1.53,1.53,0,1,1,1.53-1.53A1.54,1.54,0,0,1,91.27,141.41Z"/><path class="cls-2" d="M95.1,142.5a1.46,1.46,0,1,1,1.46-1.45A1.45,1.45,0,0,1,95.1,142.5Z"/><path class="cls-2" d="M98.72,144.11a1.34,1.34,0,1,1,1.33-1.34A1.34,1.34,0,0,1,98.72,144.11Z"/><path class="cls-2" d="M102,146.18a1.16,1.16,0,1,1,1.16-1.16A1.16,1.16,0,0,1,102,146.18Z"/><path class="cls-2" d="M105,148.67a.93.93,0,1,1,.93-.93A.93.93,0,0,1,105,148.67Z"/><path class="cls-2" d="M107.48,151.56a.7.7,0,1,1,.7-.7A.7.7,0,0,1,107.48,151.56Z"/><path class="cls-2" d="M109.49,154.8a.48.48,0,0,1-.48-.48.47.47,0,0,1,.48-.48.48.48,0,0,1,.48.48A.49.49,0,0,1,109.49,154.8Z"/><path class="cls-2" d="M111,158.35a.31.31,0,1,1,.31-.31A.31.31,0,0,1,111,158.35Z"/><path class="cls-2" d="M111.86,162.14a.2.2,0,1,1,.2-.2A.2.2,0,0,1,111.86,162.14Z"/></g></svg>