<svg xmlns="http://www.w3.org/2000/svg" viewBox="0 0 183.1 166.93"><defs><style>.cls-1{opacity:0.3;}.cls-2,.cls-3{fill:#fff;}.cls-2{opacity:0.05;}</style></defs><title>plus-bas</title><g id="plus"><g class="cls-1"><path class="cls-2" d="M84.92,69.7V21.39H104.8V69.7h48V89.58h-48v47.77H84.92V89.58H37.15V69.7Z"/></g><path class="cls-3" d="M146.84,69.55l1-.09a.25.25,0,1,1,0,.49h0l-1-.1a.16.16,0,0,1-.14-.16A.16.16,0,0,1,146.84,69.55Z"/><path class="cls-3" d="M151.84,69.14l1-.06a.63.63,0,0,1,.08,1.25h-.08l-1-.07a.56.56,0,0,1,0-1.12Z"/><path class="cls-3" d="M153.69,73.7l.05,1a.9.9,0,0,1-1.8.1.17.17,0,0,1,0-.1l.05-1a.84.84,0,0,1,.89-.8A.85.85,0,0,1,153.69,73.7Z"/><path class="cls-3" d="M153.91,78.7l0,1a1.11,1.11,0,0,1-2.22.09V79.7l0-1a1.06,1.06,0,0,1,1.11-1A1.08,1.08,0,0,1,153.91,78.7Z"/><path class="cls-3" d="M154.05,83.7l0,1a1.24,1.24,0,0,1-2.48.07V84.7l0-1a1.21,1.21,0,0,1,2.42,0Z"/><path class="cls-3" d="M154.14,88.7l0,.88a1.31,1.31,0,0,1-1.29,1.32h-.15a1.32,1.32,0,0,1,0-2.64h.15l-1.31,1.31V88.7a1.3,1.3,0,0,1,2.6,0Z"/><path class="cls-3" d="M148.72,90.92h-1a1.34,1.34,0,0,1,0-2.68h1a1.34,1.34,0,1,1,0,2.68Z"/><path class="cls-3" d="M143.72,90.85l-1,0a1.25,1.25,0,0,1,0-2.5l1,0a1.27,1.27,0,0,1,.06,2.54Z"/><path class="cls-3" d="M138.72,90.67l-1,0a1,1,0,0,1,0-2.07l1-.06a1.09,1.09,0,0,1,.11,2.18Z"/><path class="cls-3" d="M133.72,90.41l-1-.06a.76.76,0,0,1-.73-.81.77.77,0,0,1,.73-.73l1-.06a.83.83,0,0,1,.09,1.66Z"/><path class="cls-3" d="M128.72,90.17l-1,0a.56.56,0,0,1,0-1.12l1,0a.59.59,0,1,1,0,1.18Z"/><path class="cls-3" d="M123.72,90.06h-1a.47.47,0,0,1-.46-.47.47.47,0,0,1,.46-.47h1a.48.48,0,0,1,0,1Z"/><path class="cls-3" d="M118.72,90.05h-1a.48.48,0,0,1-.48-.48.47.47,0,0,1,.47-.47h1a.47.47,0,0,1,0,.94Z"/><path class="cls-3" d="M113.72,90.14l-1,0a.59.59,0,0,1-.61-.57.6.6,0,0,1,.57-.61h0l1,0a.56.56,0,0,1,.54.57A.57.57,0,0,1,113.72,90.14Z"/><path class="cls-3" d="M108.72,90.32l-1,0a.78.78,0,1,1-.07-1.56h.07l1,0a.74.74,0,0,1,0,1.48Z"/><path class="cls-3" d="M106,90.94l0,1a1,1,0,0,1-2,.09v-.09l.05-1a1,1,0,0,1,1.91,0Z"/><path class="cls-3" d="M106.25,95.94l0,1a1.21,1.21,0,1,1-2.41.08v-.08l0-1a1.18,1.18,0,0,1,2.35,0Z"/><path class="cls-3" d="M106.39,100.94l0,1a1.35,1.35,0,0,1-2.69.06v-.06l0-1a1.32,1.32,0,0,1,2.63,0Z"/><path class="cls-3" d="M106.49,105.94l0,1a1.44,1.44,0,1,1-2.87,0v0l0-1a1.42,1.42,0,0,1,2.83,0Z"/><path class="cls-3" d="M106.58,110.94l0,1a1.53,1.53,0,0,1-3,0v0l0-1a1.51,1.51,0,0,1,3,0Z"/><path class="cls-3" d="M106.66,115.94v1a1.6,1.6,0,1,1-3.19,0v-1a1.59,1.59,0,0,1,3.17,0Z"/><path class="cls-3" d="M106.68,120.94v1a1.61,1.61,0,0,1-3.21,0h0v-1a1.61,1.61,0,0,1,3.21,0Z"/><path class="cls-3" d="M106.65,125.94l0,1a1.56,1.56,0,0,1-3.11,0l0-1a1.58,1.58,0,0,1,3.15,0Z"/><path class="cls-3" d="M106.58,130.94l0,1a1.48,1.48,0,0,1-3,0l0-1a1.51,1.51,0,0,1,3-.08Z"/><path class="cls-3" d="M106.45,135.94l0,1a1.35,1.35,0,0,1-2.69,0l0-1a1.38,1.38,0,1,1,2.75-.07Z"/><path class="cls-3" d="M101.49,138.56l-1,0a1.18,1.18,0,0,1,0-2.35l1,0a1.22,1.22,0,0,1,.08,2.43Z"/><path class="cls-3" d="M96.49,138.36l-1-.05a1,1,0,0,1,0-1.93l1,0a1,1,0,0,1,.09,2Z"/><path class="cls-3" d="M91.49,138.11l-1-.06a.7.7,0,0,1-.67-.74.71.71,0,0,1,.67-.67l1,0a.76.76,0,0,1,.08,1.52Z"/><path class="cls-3" d="M86.49,137.79l-1-.07a.38.38,0,0,1,0-.75l1-.07a.45.45,0,1,1,.05.89Z"/></g></svg>