<svg xmlns="http://www.w3.org/2000/svg" viewBox="0 0 183.1 166.93"><defs><style>.cls-1{fill:#fff;}</style></defs><title>plus-haut</title><g id="plus"><path class="cls-1" d="M78.77,66.7l0-1a.18.18,0,0,1,.17-.18.18.18,0,0,1,.19.17h0l0,1a.15.15,0,1,1-.3,0Z"/><path class="cls-1" d="M78.63,61.7l0-1a.32.32,0,1,1,.64,0v0l0,1a.3.3,0,0,1-.3.29A.29.29,0,0,1,78.63,61.7Z"/><path class="cls-1" d="M78.51,56.7l0-1a.43.43,0,1,1,.86,0v0l0,1a.41.41,0,0,1-.82,0Z"/><path class="cls-1" d="M78.4,51.7l0-1a.54.54,0,0,1,1.08,0v0l0,1a.52.52,0,0,1-1,0Z"/><path class="cls-1" d="M78.29,46.7l0-1a.65.65,0,1,1,1.3,0v0l0,1a.63.63,0,0,1-1.26,0Z"/><path class="cls-1" d="M78.19,41.7l0-1a.75.75,0,0,1,.74-.75.73.73,0,0,1,.75.73s0,0,0,0v1a.73.73,0,0,1-1.46,0Z"/><path class="cls-1" d="M78.12,36.7l0-1a.82.82,0,0,1,1.64,0v0l0,1a.8.8,0,0,1-1.6,0Z"/><path class="cls-1" d="M78.05,31.7l0-1a.89.89,0,1,1,1.78,0v0l0,1a.87.87,0,0,1-1.74,0Z"/><path class="cls-1" d="M78,26.7l0-1a1,1,0,1,1,1.92,0v0l0,1a.94.94,0,0,1-1.88,0Z"/><path class="cls-1" d="M77.91,21.7l0-1a1,1,0,0,1,2.06,0v0l0,1a1,1,0,0,1-2,0Z"/><path class="cls-1" d="M80.6,17.3h1a1.1,1.1,0,1,1,0,2.19h-1a1.09,1.09,0,0,1,0-2.17Z"/><path class="cls-1" d="M85.6,17.25h1a1.13,1.13,0,0,1,1.15,1.13,1.15,1.15,0,0,1-1.13,1.15h-1a1.14,1.14,0,0,1,0-2.27Z"/><path class="cls-1" d="M90.6,17.22h1a1.17,1.17,0,1,1,0,2.33h-1a1.17,1.17,0,0,1,0-2.33Z"/><path class="cls-1" d="M95.6,17.19h1a1.2,1.2,0,1,1,0,2.39h-1a1.2,1.2,0,0,1,0-2.39Z"/><path class="cls-1" d="M100,20.19v1a1.23,1.23,0,0,1-2.46,0h0v-1a1.22,1.22,0,0,1,2.44,0Z"/><path class="cls-1" d="M100.05,25.19v1a1.24,1.24,0,0,1-1.24,1.26,1.26,1.26,0,0,1-1.27-1.25h0v-1a1.25,1.25,0,0,1,2.5,0Z"/><path class="cls-1" d="M100.08,30.19v1a1.27,1.27,0,0,1-1.27,1.29,1.28,1.28,0,0,1-1.29-1.28h0v-1a1.28,1.28,0,0,1,2.56,0Z"/><path class="cls-1" d="M100.11,35.19v1a1.31,1.31,0,1,1-2.62,0h0v-1a1.31,1.31,0,0,1,2.62,0Z"/><path class="cls-1" d="M100.13,40.19v1a1.34,1.34,0,1,1-2.68,0h0v-1a1.34,1.34,0,0,1,2.67,0Z"/><path class="cls-1" d="M100.15,45.19v1a1.34,1.34,0,1,1-2.68,0v-1a1.35,1.35,0,0,1,2.7,0Z"/><path class="cls-1" d="M100.14,50.19v1a1.34,1.34,0,0,1-2.68,0v-1a1.34,1.34,0,0,1,2.68,0Z"/><path class="cls-1" d="M100.13,55.19v1a1.33,1.33,0,0,1-2.66,0v-1a1.33,1.33,0,0,1,2.66,0Z"/><path class="cls-1" d="M100.09,60.19v1a1.29,1.29,0,0,1-2.58,0v-1a1.3,1.3,0,1,1,2.59,0Z"/><path class="cls-1" d="M100.05,65.19v1a1.25,1.25,0,0,1-2.5,0v-1a1.27,1.27,0,0,1,1.25-1.27,1.26,1.26,0,0,1,1.26,1.25Z"/><path class="cls-1" d="M102.29,65.5l1,0a1.19,1.19,0,0,1,0,2.37h-1a1.2,1.2,0,1,1,0-2.4Z"/><path class="cls-1" d="M107.29,65.58h1a1.11,1.11,0,0,1,0,2.22l-1,0a1.13,1.13,0,1,1,0-2.25Z"/><path class="cls-1" d="M112.29,65.65h1a1,1,0,0,1,0,2.08l-1,0a1.06,1.06,0,1,1,0-2.11Z"/><path class="cls-1" d="M117.29,65.72l1,0a1,1,0,0,1,.95,1,1,1,0,0,1-.95,1h-1a1,1,0,1,1,0-2Z"/><path class="cls-1" d="M122.29,65.79l1,0a.9.9,0,0,1,.88.91.89.89,0,0,1-.88.87l-1,0a.91.91,0,0,1,0-1.82Z"/><path class="cls-1" d="M127.29,65.87l1,0a.8.8,0,0,1,.8.82.82.82,0,0,1-.8.81h-1a.83.83,0,1,1,0-1.66Z"/><path class="cls-1" d="M132.29,66h1a.74.74,0,0,1,0,1.48l-1,0a.77.77,0,0,1-.77-.75.75.75,0,0,1,.74-.76Z"/><path class="cls-1" d="M137.29,66l1,0a.65.65,0,0,1,.65.67.67.67,0,0,1-.65.66h-1a.67.67,0,0,1-.69-.67.68.68,0,0,1,.67-.69Z"/><path class="cls-1" d="M142.29,66.1h1a.58.58,0,0,1,.58.6.6.6,0,0,1-.58.59h-1a.62.62,0,0,1-.62-.6.6.6,0,0,1,.6-.61Z"/><path class="cls-1" d="M147.4,67.15v1a.55.55,0,0,1-1.1,0v-1a.56.56,0,0,1,1.12,0Z"/><path class="cls-1" d="M147.35,72.15v1a.5.5,0,0,1-.5.5.51.51,0,0,1-.5-.5v-1a.52.52,0,0,1,.51-.52.51.51,0,0,1,.51.51Z"/><path class="cls-1" d="M147.32,77.15v1a.49.49,0,0,1-.48.48.48.48,0,0,1-.48-.48v-1a.48.48,0,1,1,1,0Z"/><path class="cls-1" d="M147.31,82.15v1a.47.47,0,0,1-.46.46.46.46,0,0,1-.46-.46v-1a.47.47,0,0,1,.94,0Z"/><path class="cls-1" d="M146.27,87h-1a.45.45,0,0,1,0-.9h1a.45.45,0,0,1,0,.9Z"/><path class="cls-1" d="M141.27,87.05h-1a.49.49,0,0,1-.48-.48.47.47,0,0,1,.48-.47h1a.47.47,0,0,1,0,.94Z"/><path class="cls-1" d="M136.27,87.07h-1a.5.5,0,0,1,0-1h1a.49.49,0,0,1,0,1Z"/><path class="cls-1" d="M131.27,87.1h-1a.52.52,0,0,1-.52-.52.52.52,0,0,1,.52-.52h1a.51.51,0,0,1,.51.52A.52.52,0,0,1,131.27,87.1Z"/><path class="cls-1" d="M126.27,87.12h-1a.54.54,0,0,1,0-1.08h1a.54.54,0,0,1,.54.54A.54.54,0,0,1,126.27,87.12Z"/><path class="cls-1" d="M121.27,87.14h-1a.58.58,0,0,1-.58-.56.57.57,0,0,1,.57-.58h1a.56.56,0,1,1,0,1.12Z"/><path class="cls-1" d="M116.27,87.2h-1a.63.63,0,0,1-.64-.62.64.64,0,0,1,.63-.64h1a.62.62,0,0,1,.61.63A.61.61,0,0,1,116.27,87.2Z"/><path class="cls-1" d="M111.27,87.26h-1a.69.69,0,0,1,0-1.38h1a.68.68,0,0,1,0,1.36Z"/><path class="cls-1" d="M106.27,87.32h-1a.75.75,0,1,1,0-1.5h1a.74.74,0,0,1,0,1.48Z"/><path class="cls-1" d="M101.27,87.38h-1a.81.81,0,1,1,0-1.62h1a.8.8,0,0,1,0,1.6Z"/><path class="cls-1" d="M99.67,89.11v1a.88.88,0,0,1-1.76,0v-1a.87.87,0,0,1,1.74,0Z"/><path class="cls-1" d="M99.74,94.11v1a1,1,0,0,1-1.9,0v-1a.94.94,0,0,1,1.88,0Z"/><path class="cls-1" d="M99.81,99.11v1a1,1,0,0,1-2,0v-1a1,1,0,0,1,2,0Z"/><path class="cls-1" d="M99.88,104.11v1a1.09,1.09,0,1,1-2.18,0v-1a1.08,1.08,0,0,1,2.16,0Z"/><path class="cls-1" d="M99.94,109.11v1a1.15,1.15,0,0,1-2.3,0v-1a1.14,1.14,0,0,1,2.28,0Z"/><path class="cls-1" d="M100,114.11v1a1.19,1.19,0,1,1-2.38,0v-1a1.2,1.2,0,0,1,1.2-1.18A1.18,1.18,0,0,1,100,114.11Z"/><path class="cls-1" d="M100,119.11v1a1.24,1.24,0,1,1-2.48,0v-1a1.23,1.23,0,0,1,2.46,0Z"/><path class="cls-1" d="M100.08,124.11v1a1.29,1.29,0,0,1-2.58,0v-1a1.28,1.28,0,0,1,2.56,0Z"/><path class="cls-1" d="M100.12,129.11v1a1.33,1.33,0,0,1-2.66,0v-1a1.32,1.32,0,0,1,2.64,0Z"/><path class="cls-1" d="M100.16,134.11v.24a1.35,1.35,0,0,1-1.35,1.36H98A1.37,1.37,0,1,1,98,133h.78l-1.36,1.36v-.24a1.36,1.36,0,0,1,2.72,0Z"/><path class="cls-1" d="M94,135.73H93A1.4,1.4,0,0,1,93,133h1a1.39,1.39,0,0,1,0,2.77Z"/><path class="cls-1" d="M89,135.76H88a1.42,1.42,0,0,1,0-2.84h1a1.42,1.42,0,0,1,0,2.83Z"/><path class="cls-1" d="M84,135.79H83a1.45,1.45,0,0,1,0-2.89h1a1.44,1.44,0,0,1,0,2.88Z"/><path class="cls-1" d="M79,135.81h-.12a1.46,1.46,0,0,1-1.47-1.45h0v-.88a1.47,1.47,0,1,1,2.94,0v.9l-1.47-1.47H79a1.47,1.47,0,0,1,0,2.93Z"/><path class="cls-1" d="M77.43,129.47v-1a1.5,1.5,0,0,1,3,0v1a1.49,1.49,0,0,1-3,0Z"/><path class="cls-1" d="M77.4,124.47v-1a1.52,1.52,0,1,1,3,0v1a1.52,1.52,0,0,1-3,0Z"/><path class="cls-1" d="M77.38,119.47v-1a1.55,1.55,0,0,1,3.1,0v1a1.54,1.54,0,0,1-3.08,0Z"/><path class="cls-1" d="M77.35,114.47v-1a1.58,1.58,0,0,1,3.16,0v1a1.57,1.57,0,0,1-3.14,0Z"/><path class="cls-1" d="M77.33,109.47v-1a1.59,1.59,0,1,1,3.18,0h0v1a1.59,1.59,0,0,1-3.18,0Z"/><path class="cls-1" d="M77.32,104.47v-1a1.6,1.6,0,0,1,3.2,0h0v1a1.6,1.6,0,0,1-3.2,0Z"/><path class="cls-1" d="M77.32,99.47v-1a1.6,1.6,0,1,1,3.2,0h0v1a1.6,1.6,0,0,1-3.2,0Z"/><path class="cls-1" d="M77.32,94.47v-1a1.6,1.6,0,1,1,3.2,0h0v1a1.6,1.6,0,1,1-3.2,0Z"/><path class="cls-1" d="M77.31,89.47v-1a1.61,1.61,0,1,1,3.22,0v1a1.61,1.61,0,0,1-3.22,0Z"/><path class="cls-1" d="M76.8,88.17h-1a1.59,1.59,0,0,1,0-3.17h1a1.59,1.59,0,1,1,0,3.18Z"/><path class="cls-1" d="M71.8,88.15h-1a1.56,1.56,0,0,1,0-3.12h1a1.57,1.57,0,0,1,0,3.14Z"/><path class="cls-1" d="M66.8,88.13h-1a1.54,1.54,0,0,1,0-3.08h1a1.55,1.55,0,0,1,0,3.1Z"/><path class="cls-1" d="M61.8,88.1h-1a1.52,1.52,0,0,1,0-3h1a1.52,1.52,0,1,1,0,3Z"/><path class="cls-1" d="M56.8,88.08h-1a1.5,1.5,0,0,1,0-3h1a1.5,1.5,0,1,1,0,3Z"/><path class="cls-1" d="M51.8,88h-1a1.44,1.44,0,0,1-1.43-1.46,1.46,1.46,0,0,1,1.43-1.44h1a1.46,1.46,0,1,1,0,2.92Z"/><path class="cls-1" d="M46.8,88h-1a1.4,1.4,0,0,1,0-2.8h1a1.41,1.41,0,1,1,0,2.82Z"/><path class="cls-1" d="M41.8,88h-1a1.36,1.36,0,0,1,0-2.71h1a1.35,1.35,0,0,1,1.38,1.35A1.37,1.37,0,0,1,41.83,88Z"/><path class="cls-1" d="M36.8,87.9h-1a1.31,1.31,0,0,1,0-2.62h1a1.32,1.32,0,0,1,0,2.64Z"/><path class="cls-1" d="M31.8,87.85h-.67a1.24,1.24,0,0,1-1.24-1.26v-.35A1.26,1.26,0,0,1,31.17,85a1.28,1.28,0,0,1,1.25,1.25v.35l-1.27-1.26h.65a1.27,1.27,0,1,1,0,2.54Z"/><path class="cls-1" d="M29.93,82.23v-1a1.22,1.22,0,0,1,2.43,0v1a1.23,1.23,0,1,1-2.45,0Z"/><path class="cls-1" d="M30,77.23v-1a1.17,1.17,0,0,1,2.33,0v1a1.18,1.18,0,1,1-2.35,0Z"/><path class="cls-1" d="M30,72.23v-1a1.12,1.12,0,0,1,2.23,0v1a1.13,1.13,0,0,1-2.25,0Z"/><path class="cls-1" d="M30.1,67.23v-.56a1,1,0,0,1,1-1h.48a1,1,0,0,1,0,2.08h-.48l1.05-1v.53a1.06,1.06,0,1,1-2.11,0Z"/><path class="cls-1" d="M35.63,65.72l1,0a1,1,0,0,1,0,1.93h-1a1,1,0,1,1,0-2Z"/><path class="cls-1" d="M40.63,65.8l1,0a.88.88,0,0,1,.87.9.89.89,0,0,1-.87.87h-1a.9.9,0,1,1,0-1.8Z"/><path class="cls-1" d="M45.63,65.88h1a.81.81,0,0,1,.79.82.8.8,0,0,1-.79.8l-1,0a.83.83,0,0,1-.84-.82.81.81,0,0,1,.81-.83Z"/><path class="cls-1" d="M50.63,66l1,0a.74.74,0,0,1,0,1.47h-1a.74.74,0,0,1-.76-.74A.75.75,0,0,1,50.6,66Z"/><path class="cls-1" d="M55.63,66l1,0a.65.65,0,0,1,0,1.3l-1,0a.67.67,0,0,1-.69-.65A.68.68,0,0,1,55.6,66Z"/><path class="cls-1" d="M60.63,66.14l1,0a.55.55,0,0,1,0,1.09l-1,0a.57.57,0,0,1-.58-.56.55.55,0,0,1,.55-.57Z"/><path class="cls-1" d="M65.63,66.24l1,0a.45.45,0,0,1,.43.45.44.44,0,0,1-.43.43l-1,0a.45.45,0,0,1-.47-.45.46.46,0,0,1,.45-.47Z"/><path class="cls-1" d="M70.63,66.35l1,0a.33.33,0,0,1,.32.34.34.34,0,0,1-.32.33l-1,0a.37.37,0,0,1-.37-.35.36.36,0,0,1,.35-.36Z"/><path class="cls-1" d="M75.63,66.47l1,0a.22.22,0,0,1,.2.22.2.2,0,0,1-.2.2l-1,0a.25.25,0,0,1-.25-.23.23.23,0,0,1,.23-.24Z"/></g></svg>