<svg xmlns="http://www.w3.org/2000/svg" viewBox="0 0 39.01 37.42">
	<defs><style>.cls-1{fill:#fff;}</style></defs>
	<title>slider-off</title>
	<g id="etapes">
		<path class="cls-1" d="M19.57,34.45H20a.07.07,0,0,1,.06.07s0,.06-.06.07h-.43a.06.06,0,0,1-.06-.06A.07.07,0,0,1,19.57,34.45Z"/>
		<path class="cls-1" d="M21.68,34.3l.42-.07h0a.07.07,0,0,1,.09.07.08.08,0,0,1-.06.09h0l-.43.06a.07.07,0,0,1-.08-.07A.06.06,0,0,1,21.68,34.3Z"/>
		<path class="cls-1" d="M23.75,33.84l.4-.13h0a.13.13,0,0,1,.16.08.12.12,0,0,1-.08.15h0l-.41.11a.11.11,0,0,1-.14-.08.11.11,0,0,1,.07-.13Z"/>
		<path class="cls-1" d="M25.71,33.08l.38-.19h0a.18.18,0,0,1,.25.09.19.19,0,0,1-.08.25h0l-.4.16a.16.16,0,0,1-.22-.09.17.17,0,0,1,.08-.22Z"/>
		<path class="cls-1" d="M27.54,32.05l.35-.24h0a.26.26,0,0,1,.37.07.25.25,0,0,1-.07.37h0l-.38.22a.26.26,0,0,1-.34-.1.25.25,0,0,1,.07-.33Z"/>
		<path class="cls-1" d="M29.2,30.78l.31-.28h0A.36.36,0,0,1,30,31l0,0-.35.26a.33.33,0,0,1-.47-.06.33.33,0,0,1,0-.45Z"/>
		<path class="cls-1" d="M30.66,29.31l.27-.32h0a.44.44,0,0,1,.61-.05.43.43,0,0,1,.05.62l0,0-.31.31a.41.41,0,0,1-.59,0,.43.43,0,0,1,0-.57Z"/>
		<path class="cls-1" d="M31.92,27.67l.22-.35h0a.5.5,0,1,1,.84.56v0l-.26.35a.49.49,0,0,1-.81-.56Z"/>
		<path class="cls-1" d="M33,25.89l.18-.37h0a.56.56,0,0,1,.74-.25.56.56,0,0,1,.25.74h0l-.2.39a.55.55,0,0,1-1-.49Z"/>
		<path class="cls-1" d="M33.76,24l.13-.39h0a.57.57,0,0,1,.73-.36A.57.57,0,0,1,35,24h0l-.15.42a.57.57,0,0,1-.73.34.58.58,0,0,1-.35-.72Z"/>
		<path class="cls-1" d="M34.32,22l.09-.4v0a.57.57,0,0,1,.67-.44.56.56,0,0,1,.44.67l-.08.43a.57.57,0,1,1-1.12-.22h0Z"/>
		<path class="cls-1" d="M34.64,20l0-.4v0a.55.55,0,0,1,.58-.5.54.54,0,0,1,.5.57l0,.44a.54.54,0,0,1-.57.52.55.55,0,0,1-.53-.57v0Z"/>
		<path class="cls-1" d="M34.7,18l0-.41v0a.5.5,0,0,1,1-.07l0,.44a.51.51,0,0,1-.45.56A.51.51,0,0,1,34.7,18v0Z"/>
		<path class="cls-1" d="M34.5,15.91l-.08-.41h0a.45.45,0,0,1,.35-.51.44.44,0,0,1,.5.33l.1.42a.44.44,0,0,1-.33.54.43.43,0,0,1-.53-.33v0Z"/>
		<path class="cls-1" d="M34,13.89l-.13-.39h0a.37.37,0,0,1,.7-.26l.16.41a.39.39,0,1,1-.72.28v0Z"/>
		<path class="cls-1" d="M33.27,12l-.18-.37h0a.31.31,0,0,1,.54-.29l.21.38a.32.32,0,0,1-.12.44.34.34,0,0,1-.44-.12v0Z"/>
		<path class="cls-1" d="M32.26,10.12,32,9.78h0a.25.25,0,0,1,.41-.28l.25.34a.26.26,0,1,1-.41.31h0Z"/>
		<path class="cls-1" d="M31,8.46l-.28-.31h0A.21.21,0,0,1,31,7.86l.3.31a.21.21,0,0,1,0,.3.2.2,0,0,1-.3,0h0Z"/>
		<path class="cls-1" d="M29.49,7l-.33-.27h0a.2.2,0,1,1,.25-.31l.33.27a.2.2,0,0,1-.25.31Z"/>
		<path class="cls-1" d="M27.79,5.76l-.36-.22h0a.21.21,0,0,1-.07-.27.19.19,0,0,1,.27-.07h0l.36.23a.2.2,0,0,1,.07.27.2.2,0,0,1-.27.06Z"/>
		<path class="cls-1" d="M25.94,4.78l-.39-.16h0a.21.21,0,1,1,.17-.39h0l.39.18a.2.2,0,0,1,.11.27.21.21,0,0,1-.27.11Z"/>
		<path class="cls-1" d="M24,4.07,23.56,4h0a.26.26,0,0,1-.19-.31.27.27,0,0,1,.31-.18h0l.41.12a.24.24,0,0,1-.13.47Z"/>
		<path class="cls-1" d="M21.92,3.67l-.42,0h0a.3.3,0,0,1,.07-.6h0l.43.07a.31.31,0,0,1,.24.34.3.3,0,0,1-.32.24Z"/>
		<path class="cls-1" d="M19.84,3.54h-.43a.35.35,0,0,1-.36-.34.37.37,0,0,1,.35-.37,0,0,0,0,1,0,0h.44a.34.34,0,0,1,0,.68Z"/>
		<path class="cls-1" d="M17.77,3.71l-.41.06h0A.41.41,0,1,1,17.21,3h0l.43,0a.4.4,0,0,1,.44.36.39.39,0,0,1-.33.43Z"/>
		<path class="cls-1" d="M15.74,4.15l-.39.12h0A.46.46,0,0,1,14.75,4a.47.47,0,0,1,.31-.6h0l.42-.11a.46.46,0,0,1,.25.89Z"/>
		<path class="cls-1" d="M13.8,4.84,13.43,5h0A.51.51,0,1,1,13,4.08h0l.41-.17a.51.51,0,0,1,.4.93Z"/>
		<path class="cls-1" d="M12,5.79,11.63,6h0A.55.55,0,0,1,11,5.07h0l.38-.22a.55.55,0,0,1,.75.2.56.56,0,0,1-.19.74Z"/>
		<path class="cls-1" d="M10.3,7,10,7.22h0a.58.58,0,0,1-.82-.08.58.58,0,0,1,.08-.82h0l.35-.27a.58.58,0,0,1,.73.9Z"/>
		<path class="cls-1" d="M8.79,8.34l-.27.3h0a.6.6,0,1,1-.88-.82h0l.31-.32a.61.61,0,0,1,.88.83Z"/>
		<path class="cls-1" d="M7.49,9.91l-.24.34h0a.63.63,0,0,1-.87.15.62.62,0,0,1-.16-.87v0l.26-.35a.63.63,0,0,1,1,.73Z"/>
		<path class="cls-1" d="M6.41,11.64,6.22,12v0a.65.65,0,0,1-1.16-.6h0L5.27,11a.64.64,0,0,1,1.14.6Z"/>
		<path class="cls-1" d="M5.57,13.5l-.14.38v0a.68.68,0,0,1-.86.41.67.67,0,0,1-.41-.86v0L4.32,13a.67.67,0,0,1,.86-.39.68.68,0,0,1,.4.85Z"/><path class="cls-1" d="M5,15.44l-.08.4v0a.68.68,0,0,1-.81.52.68.68,0,0,1-.52-.81h0l.1-.43A.68.68,0,0,1,5,15.43Z"/><path class="cls-1" d="M4.66,17.45l0,.41v0a.68.68,0,0,1-1.36-.11h0l0-.45a.68.68,0,0,1,1.36.11Z"/><path class="cls-1" d="M4.6,19.49l0,.4v0a.67.67,0,0,1-.64.7.66.66,0,0,1-.7-.63l0-.44a.69.69,0,0,1,.63-.72.68.68,0,0,1,.72.64h0Z"/><path class="cls-1" d="M4.8,21.51l.08.4v0a.64.64,0,0,1-.52.76.66.66,0,0,1-.76-.51l-.09-.44a.66.66,0,0,1,1.29-.26h0Z"/><path class="cls-1" d="M5.28,23.49l.12.39v0a.63.63,0,0,1-1.19.4l-.15-.41a.64.64,0,0,1,1.2-.44v0Z"/><path class="cls-1" d="M6,25.4l.18.37v0a.59.59,0,0,1-1.06.52l-.2-.39A.6.6,0,0,1,6,25.37v0Z"/><path class="cls-1" d="M7,27.21l.22.35h0A.54.54,0,0,1,7,28.3a.52.52,0,0,1-.71-.14l-.26-.35a.54.54,0,1,1,.87-.64l0,0Z"/><path class="cls-1" d="M8.16,28.89l.26.32h0a.44.44,0,0,1-.66.59l-.3-.31a.46.46,0,0,1,0-.65.47.47,0,0,1,.66,0l0,0Z"/><path class="cls-1" d="M9.56,30.41l.31.28h0a.36.36,0,0,1-.46.54L9.08,31A.37.37,0,0,1,9,30.45a.37.37,0,0,1,.52-.06l0,0Z"/><path class="cls-1" d="M11.17,31.74l.34.24h0a.27.27,0,0,1-.28.45l-.38-.22a.28.28,0,1,1,.29-.49h0Z"/><path class="cls-1" d="M13,32.83l.37.19h0a.19.19,0,0,1,.08.25.19.19,0,0,1-.24.09l-.4-.17a.19.19,0,0,1-.1-.26.2.2,0,0,1,.26-.11h0Z"/><path class="cls-1" d="M14.89,33.66l.4.13h0a.12.12,0,0,1,.08.15.12.12,0,0,1-.15.08l-.41-.11a.16.16,0,0,1-.1-.17.14.14,0,0,1,.17-.09h0Z"/><path class="cls-1" d="M16.93,34.21l.42.06h0s.07,0,.07.09a.08.08,0,0,1-.1.07l-.42-.06a.08.08,0,0,1-.07-.1.09.09,0,0,1,.09-.08h0Z"/><path class="cls-1" d="M19,34.44h.42a.07.07,0,0,1,.07.07.07.07,0,0,1-.07.06H19a.07.07,0,0,1-.07-.06.07.07,0,0,1,.07-.07Z"/>
	</g></svg>