<svg xmlns="http://www.w3.org/2000/svg" viewBox="0 0 39.01 37.42">
	<defs>
		<style>
			.cls-2{fill:#fff}
		</style>
	</defs>
	<g id="etapes">
		<g opacity=".3" class="groupe-1">
			<circle cx="17.84" cy="19.49" r="15.66" class="cls-2"/>
			<path d="M17.84 35.21a15.72 15.72 0 1 1 15.71-15.72 15.73 15.73 0 0 1-15.71 15.72zm0-31.32a15.61 15.61 0 1 0 15.61 15.6 15.63 15.63 0 0 0-15.61-15.6z" class="cls-2"/>
		</g>
		<path d="M10.81 5.57l-.35.24a.12.12 0 0 1-.16 0 .12.12 0 0 1 0-.16l.4-.15a.07.07 0 0 1 .09 0 .07.07 0 0 1 .02.07zM9.1 6.81l-.32.27a.29.29 0 0 1-.41 0 .3.3 0 0 1 0-.41l.37-.22a.25.25 0 0 1 .35.08.27.27 0 0 1-.05.34zM7.56 8.21l-.29.3a.41.41 0 1 1-.59-.58l.32-.3a.39.39 0 0 1 .55 0 .39.39 0 0 1 0 .53zM6.19 9.77l-.25.33a.5.5 0 0 1-.8-.61l.29-.34a.49.49 0 0 1 .75.62zM5 11.46l-.21.36a.55.55 0 0 1-.76.19.54.54 0 0 1-.19-.75l.23-.37a.54.54 0 0 1 .75-.18.55.55 0 0 1 .18.74zM4.09 13.28l-.17.38a.57.57 0 0 1-1-.45l.08-.4a.58.58 0 0 1 1.06.45zM3.35 15.19l-.12.4a.54.54 0 0 1-1-.29l.11-.43a.55.55 0 1 1 1.06.27zM2.81 17.18l-.08.41a.43.43 0 0 1-.51.34.44.44 0 0 1-.35-.46v-.44a.46.46 0 1 1 .91.08v.05zM2.51 19.24v.41a.31.31 0 0 1-.33.29.3.3 0 0 1-.28-.29v-.43a.33.33 0 0 1 .32-.35.32.32 0 0 1 .34.31zM2.52 21.33v.42a.22.22 0 0 1-.19.24.22.22 0 0 1-.24-.18l-.07-.43a.23.23 0 0 1 .19-.26.22.22 0 0 1 .27.19zM2.87 23.4l.11.4H3a.21.21 0 0 1-.14.24.19.19 0 0 1-.24-.14l-.11-.42a.19.19 0 0 1 .13-.23.19.19 0 0 1 .24.13zM3.56 25.38l.18.38a.23.23 0 1 1-.42.2l-.16-.4a.22.22 0 0 1 .12-.29.23.23 0 0 1 .28.11zM4.55 27.22l.24.35a.32.32 0 0 1-.08.44.31.31 0 0 1-.44-.09l-.2-.39a.28.28 0 0 1 .12-.39.3.3 0 0 1 .38.09zM5.81 28.88l.28.31a.42.42 0 0 1-.63.56l-.25-.36a.4.4 0 0 1 .62-.5zM7.26 30.35l.31.27a.52.52 0 1 1-.68.78l-.31-.31a.5.5 0 0 1 0-.71.5.5 0 0 1 .68 0zM8.87 31.63l.34.23a.58.58 0 0 1 .15.81.59.59 0 0 1-.81.15l-.35-.26a.57.57 0 0 1 .67-.93zM10.62 32.69l.36.18a.63.63 0 1 1-.55 1.13l-.43-.23a.62.62 0 0 1 .58-1.09zM12.48 33.51l.39.13a.66.66 0 0 1 .41.85.67.67 0 0 1-.84.41l-.44-.16a.66.66 0 0 1-.38-.85.67.67 0 0 1 .83-.39zM14.43 34.08l.4.09a.69.69 0 0 1-.29 1.34l-.43-.1a.68.68 0 1 1 .29-1.33zM16.44 34.42h.41a.67.67 0 0 1 .6.72.68.68 0 0 1-.71.61h-.44a.68.68 0 0 1-.63-.72.67.67 0 0 1 .71-.63zM18.48 34.5h.42a.63.63 0 0 1 .1 1.24h-.44a.64.64 0 0 1-.1-1.28h.05zM20.52 34.34l.4-.07a.57.57 0 0 1 .21 1.11l-.43.1a.58.58 0 1 1-.25-1.13h.05zM22.53 33.92l.39-.12a.47.47 0 0 1 .59.32.49.49 0 0 1-.29.59l-.41.15a.5.5 0 0 1-.64-.28.49.49 0 0 1 .29-.64zM24.48 33.25l.39-.17a.36.36 0 0 1 .48.19.37.37 0 0 1-.16.46l-.38.22a.39.39 0 0 1-.53-.15.39.39 0 0 1 .14-.53zM26.36 32.33l.37-.21a.22.22 0 0 1 .3.08.22.22 0 0 1-.05.28l-.34.27a.26.26 0 0 1-.36 0 .25.25 0 0 1 0-.35zM28.14 31.19l.11-.08a.06.06 0 0 1 .09 0 .06.06 0 0 1 0 .08l-.1.11a.08.08 0 0 1-.11-.11zM21 32.74h.42a.07.07 0 0 1 .07.07.07.07 0 0 1-.06.07H21a.06.06 0 0 1-.06-.06.07.07 0 0 1 .06-.08zM23.08 32.59l.42-.07a.07.07 0 0 1 .09.07.08.08 0 0 1-.06.09l-.43.06a.07.07 0 0 1-.08-.07.06.06 0 0 1 .06-.08zM25.14 32.13l.41-.13a.12.12 0 0 1 .07.23l-.41.11a.11.11 0 0 1-.14-.08.1.1 0 0 1 .07-.13zM27.11 31.37l.38-.19a.19.19 0 0 1 .17.34l-.4.16a.17.17 0 0 1-.23-.09.18.18 0 0 1 .09-.22zM28.94 30.34l.34-.24a.27.27 0 1 1 .3.44l-.37.22a.26.26 0 0 1-.34-.1.25.25 0 0 1 .07-.33zM30.6 29.07l.31-.28a.36.36 0 0 1 .5 0 .35.35 0 0 1 0 .5l-.34.26a.33.33 0 0 1-.47-.06.33.33 0 0 1 0-.45zM32.06 27.6l.27-.32a.44.44 0 1 1 .66.57l-.31.31a.41.41 0 0 1-.59 0 .42.42 0 0 1 0-.57zM33.31 26l.23-.35a.5.5 0 1 1 .84.56l-.26.35a.5.5 0 0 1-.69.11.48.48 0 0 1-.12-.67zM34.35 24.18l.18-.37a.56.56 0 0 1 .74-.25.55.55 0 0 1 .24.74l-.21.39a.53.53 0 0 1-.73.23.55.55 0 0 1-.24-.72zM35.16 22.3l.13-.39a.57.57 0 0 1 1.09.36l-.15.42a.58.58 0 0 1-.73.34.56.56 0 0 1-.35-.71zM35.72 20.33l.09-.4a.57.57 0 0 1 1.11.23l-.08.43a.57.57 0 0 1-1.12-.22zM36 18.31v-.41a.54.54 0 0 1 1.08.07v.44a.54.54 0 0 1-.57.52.55.55 0 0 1-.53-.57zM36.09 16.25v-.43a.48.48 0 0 1 .47-.51.51.51 0 0 1 .52.44v.44a.51.51 0 0 1-.46.56.5.5 0 0 1-.55-.46zM35.9 14.2l-.08-.41a.45.45 0 0 1 .35-.51.44.44 0 0 1 .5.33l.1.42a.44.44 0 0 1-.33.54.45.45 0 0 1-.54-.33zM35.42 12.18l-.13-.39a.36.36 0 0 1 .24-.47.37.37 0 0 1 .46.22l.16.4a.39.39 0 0 1-.22.5.38.38 0 0 1-.5-.22zM34.67 10.24l-.18-.37a.31.31 0 0 1 .51-.3l.21.38a.32.32 0 0 1-.56.32zM33.66 8.41l-.24-.34a.24.24 0 0 1 .07-.34.23.23 0 0 1 .33.06l.26.34a.26.26 0 0 1 0 .36.25.25 0 0 1-.36-.05zM32.39 6.75l-.28-.31a.21.21 0 0 1 .31-.28l.3.31a.22.22 0 0 1 0 .31.21.21 0 0 1-.3 0zM30.89 5.29L30.56 5a.2.2 0 0 1 0-.28.21.21 0 0 1 .28 0l.33.27a.2.2 0 0 1-.25.31zM29.19 4.05l-.36-.22a.2.2 0 1 1 .2-.34l.37.23a.19.19 0 0 1 .06.27.18.18 0 0 1-.26.06zM27.34 3.07L27 2.91a.21.21 0 1 1 .16-.39l.39.18a.21.21 0 0 1 .11.27.22.22 0 0 1-.28.11zM25.37 2.36l-.37-.1a.25.25 0 0 1 .13-.49l.41.12a.24.24 0 0 1-.13.47zM23.32 2l-.42-.05a.3.3 0 0 1 .07-.6l.42.07a.29.29 0 0 1 .24.34.28.28 0 0 1-.32.24zM21.24 1.83h-.43a.34.34 0 0 1-.36-.34.34.34 0 0 1 .34-.36h.46a.33.33 0 0 1 .33.35.34.34 0 0 1-.33.33zM19.16 2l-.41.06a.41.41 0 1 1-.13-.81h.43a.4.4 0 0 1 .44.36.4.4 0 0 1-.33.43zM17.14 2.44l-.39.12a.46.46 0 0 1-.59-.31.48.48 0 0 1 .31-.6l.42-.11a.46.46 0 0 1 .25.89zM15.2 3.13l-.37.17a.5.5 0 0 1-.68-.25.51.51 0 0 1 .25-.68l.41-.16a.5.5 0 0 1 .66.27.51.51 0 0 1-.26.65zM13.38 4.08l-.38.21a.55.55 0 0 1-.59-.94l.38-.22a.55.55 0 0 1 .56.94z" class="cls-2"/>
		<path d="M11.7 5.25l-.32.26a.58.58 0 0 1-.82-.08.58.58 0 0 1 .08-.82l.36-.27a.58.58 0 0 1 .72.9zM10.19 6.63l-.28.3V7A.61.61 0 0 1 9 6.12l.31-.32a.6.6 0 0 1 .85 0 .59.59 0 0 1 0 .84zM8.88 8.2l-.23.34a.64.64 0 0 1-.88.15.63.63 0 0 1-.15-.87l.26-.35a.62.62 0 0 1 .87-.13.62.62 0 0 1 .15.86zM7.8 9.93l-.18.36a.66.66 0 0 1-.88.28.65.65 0 0 1-.28-.88l.21-.39a.64.64 0 0 1 1.14.6zM7 11.79l-.14.38a.69.69 0 0 1-.86.43.68.68 0 0 1-.41-.86l.16-.41a.67.67 0 0 1 1.25.44zM6.38 13.73l-.08.4a.68.68 0 0 1-.81.52.68.68 0 0 1-.49-.79l.1-.43a.68.68 0 0 1 .81-.52.68.68 0 0 1 .52.81zM6.06 15.74v.41a.69.69 0 0 1-1.37-.11v-.44a.68.68 0 1 1 1.36.1zM6 17.78v.4a.67.67 0 0 1-1.34.07v-.44A.68.68 0 0 1 6 17.75zM6.2 19.8l.08.4a.65.65 0 0 1-.53.76.64.64 0 0 1-.75-.49L4.91 20a.66.66 0 0 1 1.29-.26zM6.68 21.78l.12.39a.63.63 0 0 1-1.2.4l-.15-.41a.66.66 0 0 1 .39-.82.64.64 0 0 1 .82.38zM7.4 23.69l.18.37a.58.58 0 0 1-.27.78.59.59 0 0 1-.78-.26l-.2-.39a.59.59 0 1 1 1-.55zM8.37 25.5l.22.35a.53.53 0 0 1-.17.73.51.51 0 0 1-.7-.14l-.26-.35a.54.54 0 0 1 .87-.64zM9.56 27.18l.26.32a.46.46 0 0 1-.06.63.45.45 0 0 1-.6 0l-.31-.31a.47.47 0 0 1 0-.65.45.45 0 0 1 .65 0zM11 28.7l.31.28a.36.36 0 0 1-.46.54l-.35-.26a.38.38 0 0 1-.06-.53.37.37 0 0 1 .52-.06zM12.57 30l.34.24a.27.27 0 0 1 .07.37.28.28 0 0 1-.36.08l-.37-.22a.28.28 0 0 1-.1-.39.28.28 0 0 1 .38-.1zM14.35 31.12l.38.19a.19.19 0 0 1 .09.25.19.19 0 0 1-.24.09l-.4-.17a.2.2 0 0 1-.11-.26.21.21 0 0 1 .27-.11zM16.29 32l.4.13a.12.12 0 0 1 .08.15.12.12 0 0 1-.15.08l-.41-.11a.15.15 0 0 1-.1-.17.14.14 0 0 1 .17-.09zM18.33 32.5l.41.06a.08.08 0 0 1 0 .16l-.42-.06a.1.1 0 0 1-.08-.1.09.09 0 0 1 .1-.07zM20.43 32.73h.42a.07.07 0 0 1 .07.07.07.07 0 0 1-.07.06h-.43a.06.06 0 0 1-.06-.06.07.07 0 0 1 .07-.07z" class="cls-2"/>
	</g>
</svg>