<?xml version="1.0" encoding="utf-8"?>
<!-- Generator: Adobe Illustrator 22.1.0, SVG Export Plug-In . SVG Version: 6.00 Build 0)  -->
<svg version="1.1" xmlns="http://www.w3.org/2000/svg" xmlns:xlink="http://www.w3.org/1999/xlink" x="0px" y="0px"
	 viewBox="0 0 543.1 202" style="enable-background:new 0 0 543.1 202;" xml:space="preserve">
<style type="text/css">
	.st0{fill:#FFFFFF;}
</style>
<g id="Calque_1">
	<g>
		<g>
			<g>
				<path class="st0" d="M159.5,69.5c-18.3,0-33.8,15.5-33.8,33.8v11.6c0,18.1,15.1,33.5,33.2,33.8v-3.5
					c-16.5-0.3-29.7-13.8-29.7-30.3v-6.4h64.2v-5.2C193.3,84.9,177.8,69.5,159.5,69.5z M190.5,105.1h-61.8l0.5-4.5
					c1.8-16,14.5-27.7,30.3-27.7c15.6,0,28.7,11.9,30.5,27.7L190.5,105.1z"/>
			</g>
			<g>
				<path class="st0" d="M201.3,72.7h17.2v30.4c0,18.1,15.1,33.5,33.2,33.8v-3.3c-16.5-0.3-29.9-13.9-29.9-30.5V72.7h29.9v-3.3
					h-29.9V38.3h-3.3v31.1h-17.2V72.7z"/>
			</g>
			<g>
				<path class="st0" d="M335.5,139.4h3.3V69.6h-3.3v35.6h-54.1V38.5h-3.3v100.9h3.3v-30.9h54.1V139.4z"/>
			</g>
			<g>
				<path class="st0" d="M391.1,69.5c-18.3,0-33.8,15.5-33.8,33.8v11.6c0,18.1,15.1,33.5,33.2,33.8v-3.5
					c-16.5-0.3-29.7-13.8-29.7-30.3v-6.4h64.2v-5.2C424.9,84.9,409.4,69.5,391.1,69.5z M422,105.1h-61.8l0.5-4.5
					c1.8-16,14.5-27.7,30.3-27.7c15.6,0,28.7,11.9,30.5,27.7L422,105.1z"/>
			</g>
			<g>
				<path class="st0" d="M447.2,149h3.1v-47.3c1.7-13.9,13.2-24.4,27-24.8v-2.6c-10.4,0.3-19.8,5.8-25.3,14.7l-1.7,2.8V73.9h-3.1
					V149z"/>
			</g>
		</g>
		<g>
			<g>
				<path class="st0" d="M102.2,149.1h3.3V77.3h-3.3v19l-6.9-6.9c-6.4-6.4-14.8-10-23.6-10c-18.3,0-33.8,15.5-33.8,33.8
					S53.4,147,71.7,147c8.6,0,17.2-3.5,23.7-9.5l6.8-6.4V149.1z M71.7,143.6c-16.7,0-30.3-13.7-30.3-30.5
					c0-16.7,13.6-30.3,30.3-30.3c16.8,0,30.5,13.6,30.5,30.3C102.2,130,88.5,143.6,71.7,143.6z"/>
			</g>
		</g>
	</g>
</g>
<g id="Calque_2">
</g>
</svg>
