<?xml version="1.0" encoding="utf-8"?>
<!-- Generator: Adobe Illustrator 22.1.0, SVG Export Plug-In . SVG Version: 6.00 Build 0)  -->
<svg version="1.1" id="Calque_1" xmlns="http://www.w3.org/2000/svg" xmlns:xlink="http://www.w3.org/1999/xlink" x="0px" y="0px"
	 viewBox="0 0 272.2 400" style="enable-background:new 0 0 272.2 400;" xml:space="preserve">
<style type="text/css">
	.st0{fill:#FFFFFF;}
	.st1{fill:none;}
</style>
<g>
	<g>
		<path class="st0" d="M19.8,188.7l-0.2-0.4c0,0,0,0,0,0c0,0,0,0,0,0c0,0,0,0,0,0L19.8,188.7z"/>
		<path class="st0" d="M19.5,180.1l0.1-1c0-0.2,0.2-0.3,0.4-0.3c0.2,0,0.3,0.2,0.3,0.4c0,0,0,0,0,0l-0.2,1c0,0.2-0.2,0.3-0.3,0.2
			C19.6,180.4,19.5,180.2,19.5,180.1z"/>
		<path class="st0" d="M21,171l0.2-1c0.1-0.3,0.4-0.6,0.8-0.5s0.6,0.4,0.5,0.8c0,0,0,0,0,0l0,0l-0.3,1l0,0c-0.1,0.3-0.4,0.5-0.7,0.4
			C21.1,171.6,21,171.3,21,171z"/>
		<path class="st0" d="M23.4,162.1l0.3-1c0.1-0.5,0.6-0.7,1.1-0.6c0.5,0.1,0.7,0.6,0.6,1.1c0,0,0,0,0,0l0,0l-0.3,1l0,0
			c-0.2,0.4-0.7,0.7-1.1,0.5C23.5,163,23.3,162.5,23.4,162.1z"/>
		<path class="st0" d="M26.3,153.3l0.4-1c0.2-0.6,0.9-0.9,1.5-0.7c0.6,0.2,0.9,0.9,0.7,1.5c0,0,0,0,0,0.1l0,0l-0.4,0.9l0,0
			c-0.2,0.6-0.9,0.8-1.5,0.6C26.4,154.5,26.1,153.8,26.3,153.3z"/>
		<path class="st0" d="M29.8,144.7l0.4-0.9c0.3-0.7,1.1-1,1.8-0.7c0.7,0.3,1,1.1,0.7,1.8c0,0,0,0,0,0.1l0,0l-0.5,0.9l0,0
			c-0.3,0.7-1.2,0.9-1.8,0.6C29.8,146.2,29.5,145.4,29.8,144.7z"/>
		<path class="st0" d="M33.8,136.4l0.5-0.9c0.4-0.8,1.4-1.1,2.2-0.7c0.8,0.4,1.1,1.4,0.7,2.2c0,0,0,0.1,0,0.1l0,0l-0.5,0.9l0,0
			c-0.5,0.8-1.5,1-2.2,0.6C33.7,138.1,33.4,137.1,33.8,136.4z"/>
		<path class="st0" d="M38.3,128.2l0.5-0.9c0.5-0.9,1.7-1.2,2.6-0.7c0.9,0.5,1.2,1.7,0.7,2.6c0,0,0,0.1-0.1,0.1l0,0l-0.6,0.8l0,0
			c-0.6,0.9-1.8,1.1-2.6,0.5C38,130.2,37.8,129.1,38.3,128.2z"/>
		<path class="st0" d="M43.4,120.4l0.6-0.8c0.7-0.9,2-1.1,2.9-0.4c0.9,0.7,1.1,2,0.4,2.9l0,0l-0.6,0.8l0,0c-0.7,0.9-2,1.1-2.9,0.4
			C42.9,122.6,42.7,121.4,43.4,120.4L43.4,120.4z"/>
		<path class="st0" d="M49.2,113.1l0.7-0.8c0.7-0.8,2-0.9,2.8-0.2c0.8,0.7,0.9,2,0.2,2.8l0,0l-0.6,0.8l0,0c-0.7,0.8-2,0.9-2.8,0.2
			C48.6,115.2,48.5,114,49.2,113.1z"/>
		<path class="st0" d="M55.4,106.2l0.7-0.7c0.8-0.8,2-0.9,2.8-0.1c0.8,0.8,0.9,2,0.1,2.8l-0.7,0.7c-0.8,0.8-2,0.9-2.8,0.1
			S54.6,107,55.4,106.2z"/>
		<path class="st0" d="M61.7,99.5l0.7-0.7c0.8-0.8,2-0.8,2.8-0.1s0.8,2,0.1,2.8l-0.7,0.7c-0.8,0.8-2,0.9-2.8,0.1
			S60.9,100.3,61.7,99.5z"/>
		<path class="st0" d="M67.9,92.8l0.7-0.7c0.8-0.8,2-0.8,2.8-0.1s0.8,2,0.1,2.8l-0.7,0.7c-0.8,0.8-2,0.8-2.8,0.1
			S67.2,93.6,67.9,92.8z"/>
		<path class="st0" d="M74.2,86.1l0.7-0.7c0.8-0.8,2-0.8,2.8-0.1s0.8,2,0.1,2.8l-0.7,0.7c-0.8,0.8-2,0.8-2.8,0.1
			C73.5,88.2,73.5,86.9,74.2,86.1z"/>
		<path class="st0" d="M80.5,79.4l0.7-0.7c0.8-0.8,2-0.8,2.8-0.1c0.8,0.8,0.8,2,0.1,2.8l-0.7,0.7c-0.8,0.8-2,0.8-2.8,0.1
			C79.8,81.5,79.8,80.2,80.5,79.4z"/>
		<path class="st0" d="M86.9,72.8l0.7-0.7c0.8-0.8,2-0.8,2.8-0.1s0.8,2,0.1,2.8l-0.7,0.7c-0.8,0.8-2,0.8-2.8,0.1
			S86.1,73.6,86.9,72.8z"/>
		<path class="st0" d="M93.2,66.1l0.7-0.7c0.8-0.8,2-0.8,2.8-0.1s0.8,2,0.1,2.8l-0.7,0.7c-0.8,0.8-2,0.8-2.8,0.1
			S92.4,66.9,93.2,66.1z"/>
		<path class="st0" d="M99.5,59.5l0.7-0.7c0.8-0.8,2-0.8,2.8-0.1c0.8,0.8,0.8,2,0.1,2.8l-0.7,0.7c-0.8,0.8-2,0.8-2.8,0.1
			S98.8,60.3,99.5,59.5z"/>
		<path class="st0" d="M105.9,52.8l0.7-0.7c0.8-0.8,2-0.8,2.8-0.1c0.8,0.8,0.8,2,0.1,2.8l-0.7,0.7c-0.8,0.8-2,0.8-2.8,0.1
			C105.1,54.9,105.1,53.6,105.9,52.8z"/>
		<path class="st0" d="M112.2,46.2l0.7-0.7c0.8-0.8,2-0.8,2.8-0.1c0.8,0.8,0.8,2,0.1,2.8l-0.7,0.7c-0.8,0.8-2,0.8-2.8,0.1
			C111.5,48.3,111.5,47,112.2,46.2z"/>
		<path class="st0" d="M118.6,39.6l0.7-0.7c0.8-0.8,2-0.8,2.8-0.1s0.8,2,0.1,2.8l-0.7,0.7c-0.8,0.8-2,0.8-2.8,0.1
			C117.9,41.6,117.9,40.4,118.6,39.6z"/>
		<path class="st0" d="M125,33l0.7-0.7c0.8-0.8,2-0.8,2.8,0c0.8,0.8,0.8,2,0,2.8l-0.7,0.7c-0.8,0.8-2,0.8-2.8,0
			C124.3,35,124.2,33.8,125,33z"/>
		<path class="st0" d="M131.4,26.4l0.3-0.4c0.8-0.8,2-0.8,2.8,0c0,0,0,0,0,0l0.3,0.4c0.8,0.8,0.8,2.1,0,2.8s-2.1,0.8-2.8,0l-0.3-0.4
			l2.9,0l-0.3,0.4c-0.8,0.8-2,0.8-2.8,0C130.7,28.4,130.6,27.2,131.4,26.4z"/>
		<path class="st0" d="M140.5,32.1l0.7,0.7c0.8,0.8,0.7,2.1,0,2.8s-2.1,0.7-2.8,0l-0.7-0.7c-0.8-0.8-0.7-2.1,0-2.8
			C138.5,31.3,139.8,31.3,140.5,32.1z"/>
		<path class="st0" d="M146.8,38.6l0.7,0.7c0.8,0.8,0.7,2.1-0.1,2.8c-0.8,0.8-2.1,0.7-2.8-0.1l-0.7-0.7c-0.8-0.8-0.7-2.1,0.1-2.8
			C144.8,37.8,146,37.8,146.8,38.6z"/>
		<path class="st0" d="M153,45.1l0.7,0.7c0.8,0.8,0.7,2.1-0.1,2.8c-0.8,0.8-2.1,0.7-2.8-0.1l-0.7-0.7c-0.8-0.8-0.7-2.1,0.1-2.8
			C151,44.2,152.3,44.3,153,45.1z"/>
		<path class="st0" d="M159.2,51.5l0.7,0.7c0.8,0.8,0.7,2.1-0.1,2.8c-0.8,0.8-2.1,0.7-2.8-0.1l-0.7-0.7c-0.8-0.8-0.7-2.1,0.1-2.8
			C157.2,50.7,158.5,50.7,159.2,51.5z"/>
		<path class="st0" d="M165.5,58l0.7,0.7c0.8,0.8,0.7,2.1-0.1,2.8c-0.8,0.8-2.1,0.7-2.8-0.1l-0.7-0.7c-0.8-0.8-0.7-2.1,0.1-2.8
			C163.4,57.2,164.7,57.2,165.5,58z"/>
		<path class="st0" d="M171.7,64.6l0.7,0.7c0.8,0.8,0.7,2.1-0.1,2.8c-0.8,0.8-2.1,0.7-2.8-0.1l-0.7-0.7c-0.8-0.8-0.7-2.1,0.1-2.8
			C169.6,63.7,170.9,63.8,171.7,64.6z"/>
		<path class="st0" d="M177.9,71.1l0.7,0.7c0.8,0.8,0.7,2.1-0.1,2.8c-0.8,0.8-2.1,0.7-2.8-0.1l-0.7-0.7c-0.8-0.8-0.7-2.1,0.1-2.8
			C175.8,70.2,177.1,70.3,177.9,71.1z"/>
		<path class="st0" d="M184,77.6l0.7,0.7c0.8,0.8,0.7,2.1-0.1,2.8c-0.8,0.8-2.1,0.7-2.8-0.1l-0.7-0.7c-0.8-0.8-0.7-2.1,0.1-2.8
			C182,76.8,183.3,76.8,184,77.6z"/>
		<path class="st0" d="M190.2,84.2l0.7,0.7c0.8,0.8,0.7,2.1-0.1,2.8c-0.8,0.8-2.1,0.7-2.8-0.1l-0.7-0.7c-0.8-0.8-0.7-2.1,0.1-2.8
			S189.5,83.4,190.2,84.2z"/>
		<path class="st0" d="M196.4,90.7l0.7,0.7c0.8,0.8,0.7,2.1-0.1,2.8c-0.8,0.8-2.1,0.7-2.8-0.1l-0.7-0.7c-0.8-0.8-0.7-2.1,0.1-2.8
			C194.3,89.9,195.6,89.9,196.4,90.7z"/>
		<path class="st0" d="M202.5,97.3l0.7,0.7c0.8,0.8,0.7,2.1-0.1,2.8c-0.8,0.8-2.1,0.7-2.8-0.1l-0.7-0.7c-0.8-0.8-0.7-2.1,0.1-2.8
			S201.7,96.5,202.5,97.3z"/>
		<path class="st0" d="M208.6,104l0.7,0.8c0.7,0.8,0.7,2.1-0.2,2.8c-0.8,0.7-2.1,0.7-2.8-0.2l0,0l-0.7-0.7l0,0
			c-0.7-0.8-0.7-2.1,0.2-2.8S207.9,103.1,208.6,104z"/>
		<path class="st0" d="M214.5,110.9l0.6,0.8c0.7,0.9,0.6,2.1-0.3,2.8s-2.1,0.6-2.8-0.3l0,0l-0.6-0.8l0,0c-0.7-0.9-0.6-2.1,0.3-2.8
			C212.6,109.9,213.8,110,214.5,110.9z"/>
		<path class="st0" d="M220.1,118.1l0.6,0.8c0.7,0.9,0.5,2.1-0.4,2.8c-0.9,0.7-2.1,0.5-2.8-0.4l0,0l-0.6-0.8l0,0
			c-0.7-0.9-0.5-2.1,0.4-2.8C218.2,117,219.4,117.2,220.1,118.1z"/>
		<path class="st0" d="M225.3,125.6l0.6,0.8c0.6,0.9,0.4,2.2-0.6,2.8s-2.2,0.4-2.8-0.6l0,0l-0.5-0.8l0,0c-0.6-0.9-0.4-2.2,0.6-2.8
			S224.7,124.6,225.3,125.6z"/>
		<path class="st0" d="M230.1,133.2l0.5,0.9c0.6,0.9,0.3,2.2-0.7,2.7c-0.9,0.6-2.2,0.3-2.7-0.7l0,0l-0.5-0.9l0,0
			c-0.6-0.9-0.3-2.2,0.7-2.7C228.3,132,229.6,132.3,230.1,133.2z"/>
		<path class="st0" d="M234.6,141.1l0.5,0.9c0.5,1,0.2,2.2-0.8,2.7c-1,0.5-2.2,0.2-2.7-0.8l0,0l-0.5-0.9l0,0c-0.5-1-0.2-2.2,0.8-2.7
			C232.9,139.8,234.1,140.2,234.6,141.1z"/>
		<path class="st0" d="M238.7,149.3l0.4,0.9c0.5,1,0,2.2-1,2.7c-1,0.5-2.2,0-2.7-1l0,0l-0.4-0.9l0,0c-0.5-1,0-2.2,1-2.7
			C237.1,147.8,238.3,148.3,238.7,149.3z"/>
		<path class="st0" d="M242.4,157.6l0.4,0.9c0.4,1-0.1,2.2-1.1,2.6c-1,0.4-2.2-0.1-2.6-1.1l0,0l-0.4-0.9l0,0c-0.4-1,0.1-2.2,1.1-2.6
			C240.8,156.1,242,156.6,242.4,157.6z"/>
		<path class="st0" d="M245.7,166.1l0.3,1c0.4,1-0.2,2.2-1.3,2.5s-2.2-0.2-2.5-1.3l0,0l-0.3-0.9l0,0c-0.4-1,0.2-2.2,1.3-2.5
			C244.2,164.5,245.3,165.1,245.7,166.1z"/>
		<path class="st0" d="M248.3,174.9l0.2,1c0.3,1.1-0.4,2.2-1.5,2.4c-1.1,0.3-2.2-0.4-2.4-1.5l0,0l-0.2-0.9l0,0
			c-0.3-1.1,0.4-2.2,1.5-2.4S248,173.8,248.3,174.9z"/>
		<path class="st0" d="M249.7,184.2l0,1.1c0,1.1-0.9,2-2,2s-2-0.9-2-2l0-0.1l0-0.9l0-0.1c0-1.1,0.9-2,2-2
			C248.8,182.2,249.7,183.1,249.7,184.2L249.7,184.2z"/>
		<path class="st0" d="M244.4,192.9l-0.8,0.6c-0.9,0.6-2.1,0.4-2.8-0.5c-0.6-0.9-0.4-2.1,0.5-2.8l0,0l0.8-0.6l0,0
			c0.9-0.6,2.1-0.4,2.8,0.5C245.5,191.1,245.3,192.3,244.4,192.9z"/>
		<path class="st0" d="M236.5,197.8l-0.9,0.5c-1,0.5-2.2,0.1-2.7-0.9c-0.5-1-0.1-2.2,0.9-2.7l0,0l0.9-0.4l0,0c1-0.5,2.2-0.1,2.7,0.9
			C237.8,196.1,237.4,197.3,236.5,197.8z"/>
		<path class="st0" d="M228,201.5l-1,0.3c-1,0.4-2.2-0.2-2.6-1.2c-0.4-1,0.2-2.2,1.2-2.6l0,0l0.9-0.3l0,0c1-0.4,2.2,0.2,2.6,1.2
			C229.6,199.9,229,201.1,228,201.5z"/>
		<path class="st0" d="M219.2,204.2l-1,0.3c-1.1,0.3-2.2-0.4-2.4-1.4s0.4-2.2,1.4-2.4l0,0l0.9-0.2l0,0c1.1-0.3,2.2,0.4,2.4,1.4
			S220.3,203.9,219.2,204.2z"/>
		<path class="st0" d="M210.3,206.2l-1,0.2c-1.1,0.2-2.1-0.5-2.3-1.6s0.5-2.1,1.6-2.3l0,0l1-0.2l0,0c1.1-0.2,2.1,0.5,2.3,1.6
			C212.1,205,211.4,206,210.3,206.2z"/>
		<path class="st0" d="M201.4,207.7l-1,0.1c-1.1,0.1-2.1-0.6-2.2-1.7s0.6-2.1,1.7-2.2l0,0l1-0.1l0,0c1.1-0.1,2.1,0.6,2.2,1.7
			S202.5,207.5,201.4,207.7z"/>
		<path class="st0" d="M192.4,208.7l-1,0.1c-1.1,0.1-2.1-0.7-2.2-1.8c-0.1-1.1,0.7-2.1,1.8-2.2l0,0l1-0.1l0,0
			c1.1-0.1,2.1,0.7,2.2,1.8C194.3,207.6,193.5,208.6,192.4,208.7z"/>
		<path class="st0" d="M183.3,209.4l-1,0.1c-1.1,0.1-2-0.8-2.1-1.9c-0.1-1.1,0.8-2,1.9-2.1l0,0l1-0.1l0,0c1.1-0.1,2,0.8,2.1,1.9
			C185.3,208.4,184.4,209.3,183.3,209.4z"/>
		<path class="st0" d="M174.3,209.8l-1,0c-1.1,0-2.1-0.9-2.1-2c0-1.1,0.9-2,2-2.1l0,0l1,0l0,0c1.1,0,2.1,0.9,2.1,2
			C176.3,208.8,175.4,209.7,174.3,209.8C174.3,209.8,174.3,209.8,174.3,209.8z"/>
		<path class="st0" d="M165.2,209.7l-1,0c-1,0-1.8-0.9-1.8-1.9c0-1,0.8-1.7,1.8-1.8l0,0l1,0c1,0,1.9,0.8,1.9,1.8
			c0,1-0.8,1.9-1.8,1.9C165.3,209.7,165.3,209.7,165.2,209.7z"/>
		<path class="st0" d="M156.2,209.3l-1-0.1c-0.9,0-1.5-0.8-1.5-1.6c0-0.8,0.7-1.5,1.6-1.5l1,0c0.9,0,1.6,0.7,1.6,1.6
			C157.9,208.6,157.2,209.3,156.2,209.3C156.3,209.3,156.2,209.3,156.2,209.3z"/>
		<path class="st0" d="M147.2,208.8l-1-0.1c-0.7-0.1-1.3-0.7-1.2-1.4c0.1-0.7,0.6-1.2,1.3-1.2l1,0c0.7,0,1.3,0.6,1.3,1.4
			C148.6,208.2,148,208.8,147.2,208.8C147.3,208.8,147.2,208.8,147.2,208.8z"/>
		<path class="st0" d="M138.2,208.1l-1-0.1c-0.6-0.1-1-0.6-1-1.2c0.1-0.6,0.5-1,1.1-1l1,0c0.6,0,1.1,0.5,1.1,1.1
			C139.4,207.6,138.9,208.1,138.2,208.1C138.3,208.1,138.2,208.1,138.2,208.1z"/>
		<path class="st0" d="M129.2,207l-1-0.2c-0.4-0.1-0.8-0.5-0.7-0.9c0.1-0.4,0.5-0.7,0.9-0.7l0,0l1,0.1l0,0c0.5,0,0.8,0.5,0.8,0.9
			C130.1,206.7,129.7,207.1,129.2,207C129.2,207,129.2,207,129.2,207z"/>
		<path class="st0" d="M120.3,205.2l-1-0.3c-0.3-0.1-0.5-0.4-0.4-0.7c0.1-0.3,0.4-0.5,0.7-0.4l0,0l1,0.2l0,0
			c0.3,0.1,0.5,0.4,0.5,0.7C121,205.1,120.7,205.3,120.3,205.2C120.3,205.2,120.3,205.2,120.3,205.2z"/>
		<path class="st0" d="M111.7,202.3l-0.9-0.4c-0.1-0.1-0.2-0.2-0.2-0.4c0.1-0.1,0.2-0.2,0.3-0.2l0.9,0.3c0.2,0.1,0.3,0.2,0.2,0.4
			C112.1,202.3,111.9,202.4,111.7,202.3C111.8,202.4,111.7,202.3,111.7,202.3z"/>
		<path class="st0" d="M103.3,199l-0.5-0.2L103.3,199C103.4,198.9,103.4,198.9,103.3,199C103.4,199,103.3,199,103.3,199
			C103.3,199,103.3,199,103.3,199z"/>
	</g>
	<g>
		<path class="st1" d="M19.8,188.7"/>
	</g>
	<g>
		<g>
			<path class="st0" d="M20.3,188.7l0.5-0.1c0,0,0.1,0,0.1,0c0,0,0,0.1,0,0.1c0,0,0,0,0,0L20.3,188.7z"/>
			<path class="st0" d="M28.5,186.8l1-0.2c0.6-0.1,1.1,0.2,1.2,0.8c0.1,0.6-0.2,1.1-0.8,1.2c-0.1,0-0.1,0-0.2,0l-1,0
				c-0.5,0-0.9-0.4-0.9-0.9C27.7,187.2,28,186.8,28.5,186.8z"/>
			<path class="st0" d="M37.2,185.1l1-0.2c1-0.2,2,0.5,2.2,1.5c0.2,1-0.5,2-1.5,2.2c-0.1,0-0.2,0-0.3,0l-1,0c-1,0-1.8-0.8-1.8-1.8
				C35.7,186,36.3,185.3,37.2,185.1z"/>
			<path class="st0" d="M45.9,184.3l1-0.1c1.1-0.1,2,0.8,2.1,1.9s-0.8,2-1.9,2.1l-1,0.1c-1.1,0.1-2.1-0.8-2.1-1.9
				C44,185.3,44.8,184.4,45.9,184.3z"/>
			<path class="st0" d="M54.8,183.8l1,0c1.1-0.1,2,0.8,2.1,1.9c0.1,1.1-0.8,2-1.9,2.1l-1,0c-1.1,0.1-2-0.8-2.1-1.9
				C52.8,184.8,53.6,183.9,54.8,183.8z"/>
			<path class="st0" d="M63.6,183.5l1,0c1.1,0,2,0.8,2.1,1.9c0,1.1-0.8,2-1.9,2.1l-1,0c-1.1,0-2-0.8-2.1-1.9
				C61.6,184.4,62.5,183.5,63.6,183.5z"/>
			<path class="st0" d="M72.4,183.2l1,0c1.1,0,2,0.8,2.1,1.9s-0.8,2-1.9,2.1l-1,0c-1.1,0-2-0.8-2.1-1.9
				C70.4,184.1,71.3,183.2,72.4,183.2z"/>
			<path class="st0" d="M81.2,182.9l1,0c1.1,0,2,0.9,2,2c0,1.1-0.9,2-2,2l-1,0c-1.1,0-2-0.8-2-2S80.1,183,81.2,182.9z"/>
			<path class="st0" d="M90,182.8l1,0c1.1,0,2,0.9,2,2c0,1.1-0.9,2-2,2l-1,0c-1.1,0-2-0.9-2-2C88,183.7,88.9,182.8,90,182.8z"/>
			<path class="st0" d="M98.8,182.6l1,0c1.1,0,2,0.9,2,2c0,1.1-0.9,2-2,2l-1,0c-1.1,0-2-0.9-2-2S97.7,182.7,98.8,182.6z"/>
			<path class="st0" d="M107.6,182.6l1,0c1.1,0,2,0.9,2,2c0,1.1-0.9,2-2,2l-1,0c-1.1,0-2-0.9-2-2
				C105.6,183.5,106.5,182.6,107.6,182.6z"/>
			<path class="st0" d="M116.4,182.5l1,0c1.1,0,2,0.9,2,2c0,1.1-0.9,2-2,2l-1,0c-1.1,0-2-0.9-2-2
				C114.4,183.4,115.3,182.5,116.4,182.5z"/>
			<path class="st0" d="M125.2,182.6l1,0c1.1,0,2,0.9,2,2s-0.9,2-2,2h0l-1,0h0c-1.1,0-2-0.9-2-2
				C123.2,183.4,124.1,182.5,125.2,182.6z"/>
			<path class="st0" d="M134,182.8l1,0c1.1,0,2,1,1.9,2.1c0,1.1-1,2-2.1,1.9l0,0l-1,0l0,0c-1.1,0-2-1-1.9-2.1
				C132,183.6,132.9,182.7,134,182.8z"/>
			<path class="st0" d="M142.9,183.3l1,0.1c1.1,0.1,1.9,1.1,1.8,2.2c-0.1,1.1-1.1,1.9-2.2,1.8l0,0l-1-0.1l0,0
				c-1.1-0.1-1.9-1.1-1.8-2.2S141.8,183.2,142.9,183.3z"/>
			<path class="st0" d="M151.8,184.3l1,0.1c1.1,0.2,1.9,1.2,1.7,2.3c-0.2,1.1-1.2,1.9-2.3,1.7l0,0l-1-0.1l0,0
				c-1.1-0.2-1.9-1.2-1.7-2.3S150.7,184.1,151.8,184.3z"/>
			<path class="st0" d="M160.5,185.9l1,0.3c0.9,0.3,1.4,1.3,1.1,2.2c-0.3,0.8-1.1,1.3-1.9,1.2l0,0l-1-0.1l0,0
				c-1-0.1-1.7-1.1-1.6-2.1c0.1-1,1.1-1.7,2.1-1.6C160.3,185.9,160.4,185.9,160.5,185.9z"/>
			<path class="st0" d="M169,189.1l0.9,0.4c0.5,0.2,0.6,0.8,0.4,1.2c-0.2,0.4-0.6,0.6-1,0.5l0,0l-0.9-0.2l0,0
				c-0.5-0.1-0.9-0.7-0.7-1.2c0.1-0.5,0.7-0.9,1.2-0.7C168.8,189.1,168.9,189.1,169,189.1z"/>
			<path class="st0" d="M176.5,194.1l0.4,0.3L176.5,194.1C176.4,194.1,176.4,194.1,176.5,194.1C176.5,194,176.5,194,176.5,194.1
				C176.5,194,176.5,194.1,176.5,194.1z"/>
		</g>
		<g>
			<path class="st1" d="M20.3,188.7"/>
		</g>
	</g>
</g>
<g>
	<g>
		<g>
			<path class="st0" d="M31.7,248.3l-0.3-0.4c0,0,0-0.1,0-0.2s0.1,0,0.2,0c0,0,0,0,0,0L31.7,248.3z"/>
			<path class="st0" d="M26.7,241.2l-0.5-0.9c-0.5-0.8-0.3-1.9,0.6-2.4s1.9-0.3,2.4,0.6c0.1,0.2,0.2,0.3,0.2,0.5l0,0l0.2,1l0,0
				c0.2,0.9-0.3,1.7-1.2,1.9C27.7,242,27,241.7,26.7,241.2z"/>
			<path class="st0" d="M22.9,232.8l-0.3-1c-0.4-1,0.2-2.2,1.2-2.5c1-0.4,2.2,0.2,2.5,1.2l0,0l0.3,0.9l0,0c0.4,1-0.2,2.2-1.2,2.5
				C24.5,234.4,23.3,233.8,22.9,232.8z"/>
			<path class="st0" d="M20.2,224l-0.3-1c-0.3-1.1,0.4-2.2,1.4-2.4c1.1-0.3,2.2,0.4,2.4,1.4l0,0l0.2,0.9l0,0
				c0.3,1.1-0.4,2.2-1.4,2.4C21.6,225.7,20.5,225.1,20.2,224z"/>
			<path class="st0" d="M18.4,214.9l-0.1-1.1c-0.1-1.1,0.7-2.1,1.8-2.2c1.1-0.1,2.1,0.7,2.2,1.8l0,0.1l0.1,0.9l0,0.1
				c0.1,1.1-0.7,2.1-1.8,2.2C19.5,216.8,18.5,216,18.4,214.9L18.4,214.9z"/>
			<path class="st0" d="M21.5,204.9l0.9-0.6c0.9-0.6,2.2-0.4,2.8,0.5s0.4,2.2-0.5,2.8l-0.1,0l-0.8,0.5l-0.1,0
				c-0.9,0.6-2.2,0.4-2.8-0.5C20.4,206.8,20.6,205.5,21.5,204.9z"/>
			<path class="st0" d="M29.9,200.5l1-0.4c1-0.4,2.2,0.1,2.6,1.1c0.4,1-0.1,2.2-1.1,2.6l0,0l0,0l-0.9,0.3l0,0
				c-1,0.4-2.2-0.1-2.6-1.1C28.4,202,28.9,200.9,29.9,200.5z"/>
			<path class="st0" d="M38.7,197.6l1-0.3c1.1-0.3,2.2,0.4,2.4,1.4s-0.4,2.2-1.4,2.4l0,0l-1,0.2l0,0c-1.1,0.3-2.2-0.4-2.4-1.4
				S37.7,197.9,38.7,197.6z"/>
			<path class="st0" d="M47.7,195.6l1-0.2c1.1-0.2,2.1,0.5,2.3,1.6c0.2,1.1-0.5,2.1-1.6,2.3l0,0l-1,0.2l0,0
				c-1.1,0.2-2.1-0.5-2.3-1.6C45.9,196.9,46.6,195.8,47.7,195.6z"/>
			<path class="st0" d="M56.7,194.5l1,0c0.9,0,1.6,0.7,1.5,1.6c0,0.7-0.5,1.3-1.1,1.5l0,0l-1,0.3c-0.9,0.3-1.9-0.2-2.2-1.2
				c-0.3-0.9,0.2-1.9,1.2-2.2C56.3,194.5,56.5,194.5,56.7,194.5z"/>
			<path class="st0" d="M65.9,195l0.5,0.1l-0.5,0.2c-0.1,0-0.1,0-0.1-0.1C65.8,195.1,65.8,195,65.9,195C65.9,195,65.9,195,65.9,195z
				"/>
		</g>
		<g>
			<path class="st0" d="M183.6,318.1l-0.3,0.4c0,0-0.1,0-0.1,0c0,0,0-0.1,0-0.1c0,0,0,0,0,0L183.6,318.1z"/>
			<path class="st0" d="M178.7,324.9l-0.6,0.8c-0.4,0.5-1.2,0.7-1.7,0.3c-0.5-0.4-0.7-1.2-0.3-1.7c0.1-0.1,0.1-0.2,0.2-0.2l0.8-0.6
				c0.5-0.4,1.2-0.3,1.5,0.2C179,323.9,179,324.5,178.7,324.9z"/>
			<path class="st0" d="M173.3,331.9c-0.2,0.2-0.4,0.5-0.7,0.7c-0.8,0.8-2.1,0.8-2.9,0c-0.8-0.8-0.8-2-0.1-2.8
				c0.2-0.2,0.4-0.5,0.7-0.7c0.8-0.8,2.1-0.7,2.9,0.1C173.9,330,173.9,331.1,173.3,331.9z"/>
			<path class="st0" d="M167.2,338.2l-0.7,0.7c-0.8,0.8-2,0.8-2.8,0.1c-0.8-0.8-0.8-2-0.1-2.8l0.7-0.7c0.8-0.8,2-0.8,2.8-0.1
				C167.9,336.2,167.9,337.4,167.2,338.2z"/>
			<path class="st0" d="M161.1,344.6l-0.7,0.7c-0.8,0.8-2,0.8-2.8,0.1c-0.8-0.8-0.8-2-0.1-2.8l0.7-0.7c0.8-0.8,2-0.8,2.8-0.1
				C161.8,342.5,161.8,343.8,161.1,344.6z"/>
			<path class="st0" d="M154.9,350.9l-0.7,0.7c-0.8,0.8-2,0.8-2.8,0.1c-0.8-0.8-0.8-2-0.1-2.8l0.7-0.7c0.8-0.8,2-0.8,2.8-0.1
				C155.7,348.9,155.7,350.2,154.9,350.9z"/>
			<path class="st0" d="M148.8,357.3l-0.7,0.7c-0.8,0.8-2,0.8-2.8,0s-0.8-2,0-2.8l0.7-0.7c0.8-0.8,2-0.8,2.8,0
				C149.6,355.2,149.6,356.5,148.8,357.3z"/>
			<path class="st0" d="M142.7,363.6l-0.7,0.7c-0.8,0.8-2,0.8-2.8,0c-0.8-0.8-0.8-2,0-2.8l0.7-0.7c0.8-0.8,2-0.8,2.8,0
				C143.4,361.5,143.5,362.8,142.7,363.6z"/>
			<path class="st0" d="M136.6,369.9l-0.3,0.4c-0.8,0.8-2,0.8-2.8,0c0,0,0,0-0.1-0.1l-0.3-0.4c-0.8-0.8-0.7-2.1,0.1-2.8
				c0.8-0.8,2.1-0.7,2.8,0.1l0.3,0.4l-2.9,0l0.3-0.4c0.8-0.8,2-0.8,2.8,0C137.3,367.9,137.3,369.1,136.6,369.9z"/>
			<path class="st0" d="M127.4,364l-0.7-0.7c-0.8-0.8-0.7-2.1,0.1-2.8c0.8-0.8,2.1-0.7,2.8,0.1l0.7,0.7c0.8,0.8,0.7,2.1-0.1,2.8
				S128.2,364.8,127.4,364z"/>
			<path class="st0" d="M121.2,357.4l-0.7-0.7c-0.8-0.8-0.7-2.1,0.1-2.8c0.8-0.8,2.1-0.7,2.8,0.1l0.7,0.7c0.8,0.8,0.7,2.1-0.1,2.8
				C123.2,358.2,121.9,358.2,121.2,357.4z"/>
			<path class="st0" d="M114.9,350.8l-0.7-0.7c-0.8-0.8-0.7-2.1,0.1-2.8c0.8-0.8,2.1-0.7,2.8,0.1l0.7,0.7c0.8,0.8,0.7,2.1-0.1,2.8
				C117,351.6,115.7,351.6,114.9,350.8z"/>
			<path class="st0" d="M108.7,344.2l-0.7-0.7c-0.8-0.8-0.7-2.1,0.1-2.8c0.8-0.8,2.1-0.7,2.8,0.1l0.7,0.7c0.8,0.8,0.7,2.1-0.1,2.8
				C110.7,345,109.4,345,108.7,344.2z"/>
			<path class="st0" d="M102.4,337.6c-0.2-0.2-0.5-0.5-0.7-0.7c-0.8-0.8-0.7-2.1,0.1-2.9c0.8-0.8,2.1-0.7,2.9,0.1
				c0.2,0.2,0.5,0.5,0.7,0.8c0.7,0.8,0.6,2.1-0.2,2.8C104.3,338.3,103.1,338.3,102.4,337.6z"/>
			<path class="st0" d="M96.7,330.4l-0.6-0.8c-0.4-0.5-0.3-1.2,0.2-1.5c0.4-0.3,1-0.3,1.4,0l0.8,0.6c0.5,0.4,0.6,1.2,0.2,1.7
				c-0.4,0.5-1.2,0.6-1.7,0.2C96.8,330.6,96.8,330.5,96.7,330.4z"/>
			<path class="st0" d="M91.2,323l-0.3-0.4l0.4,0.3c0,0,0,0.1,0,0.1S91.3,323.1,91.2,323C91.3,323,91.3,323,91.2,323z"/>
		</g>
		<g>
			<path class="st0" d="M248.2,207.6c0.1,0.1,0.3,0.2,0.4,0.4c0.1,0.1,0.1,0.3,0,0.4s-0.3,0.1-0.4,0c-0.1-0.1-0.1-0.1-0.1-0.2l0,0
				C248.2,208,248.2,207.8,248.2,207.6z"/>
			<path class="st0" d="M250.1,216.8l-0.2,1.1c-0.2,1.1-1.2,1.8-2.3,1.6c-1.1-0.2-1.8-1.2-1.6-2.3l0,0l0.2-1l0,0
				c0.2-1.1,1.2-1.8,2.3-1.6S250.3,215.7,250.1,216.8z"/>
			<path class="st0" d="M248,226.4l-0.3,1c-0.3,1.1-1.4,1.7-2.5,1.4c-1.1-0.3-1.7-1.4-1.4-2.5l0,0l0.3-1l0,0
				c0.3-1.1,1.4-1.7,2.5-1.4C247.7,224.2,248.3,225.3,248,226.4z"/>
			<path class="st0" d="M245.2,235.7l-0.4,1c-0.4,1-1.5,1.6-2.5,1.2s-1.6-1.5-1.2-2.5l0,0l0.3-1l0,0c0.4-1,1.5-1.6,2.5-1.2
				C245,233.5,245.6,234.7,245.2,235.7z"/>
			<path class="st0" d="M240.1,244.1c-0.1,0.1-0.3,0.2-0.4,0.4l0-0.6c0-0.1,0.1-0.3,0.3-0.3c0.1,0,0.3,0.1,0.3,0.3
				C240.2,244,240.2,244.1,240.1,244.1L240.1,244.1z"/>
		</g>
		<g>
			<path class="st1" d="M248.2,207.6"/>
		</g>
		<g>
			<g>
				<path class="st0" d="M247.7,207.6c-0.1,0.1-0.3,0.2-0.4,0.4l0,0c-0.1,0.1-0.3,0.1-0.4,0c-0.1-0.1-0.1-0.3,0-0.4
					c0.1,0,0.1-0.1,0.2-0.1L247.7,207.6z"/>
				<path class="st0" d="M240.6,211.2l-0.9,0.2c-1.1,0.2-2.1-0.5-2.3-1.6c-0.2-1.1,0.5-2.1,1.6-2.3l0,0l0.9-0.2l0,0
					c1.1-0.2,2.1,0.5,2.3,1.6C242.4,209.9,241.7,211,240.6,211.2z"/>
				<path class="st0" d="M232.6,212.6l-0.9,0.1c-1.1,0.2-2.1-0.6-2.3-1.7c-0.2-1.1,0.6-2.1,1.7-2.3l0,0l0.9-0.1l0,0
					c1.1-0.2,2.1,0.6,2.3,1.7C234.5,211.4,233.7,212.4,232.6,212.6z"/>
				<path class="st0" d="M224.6,213.8l-0.9,0.1c-1.1,0.1-2.1-0.6-2.3-1.7c-0.1-1.1,0.6-2.1,1.7-2.3l0,0l0.9-0.1l0,0
					c1.1-0.1,2.1,0.6,2.3,1.7S225.7,213.6,224.6,213.8z"/>
				<path class="st0" d="M216.6,214.8l-0.9,0.1c-1.1,0.1-2.1-0.7-2.2-1.8c-0.1-1.1,0.7-2.1,1.8-2.2l0.9-0.1c1.1-0.1,2.1,0.7,2.2,1.8
					C218.5,213.7,217.7,214.7,216.6,214.8z"/>
				<path class="st0" d="M208.4,213.9l-0.5-0.2l0.5-0.3c0.1-0.1,0.3,0,0.3,0.1c0.1,0.1,0,0.3-0.1,0.3
					C208.6,213.9,208.5,213.9,208.4,213.9z"/>
			</g>
			<g>
				<path class="st1" d="M247.7,207.6"/>
			</g>
		</g>
	</g>
</g>
<g>
	<g>
		<g>
			<path class="st0" d="M96.2,263.4c-8.9,0-16.5,7.5-16.5,16.5v5.6c0,8.8,7.4,16.3,16.2,16.5v-1.7c-8-0.2-14.5-6.7-14.5-14.8v-3.1
				h31.3v-2.5C112.7,270.9,105.1,263.4,96.2,263.4z M111.3,280.8H81.1l0.2-2.2c0.9-7.8,7.1-13.5,14.8-13.5c7.6,0,14,5.8,14.8,13.5
				L111.3,280.8z"/>
		</g>
		<g>
			<path class="st0" d="M116.6,265h8.4v14.8c0,8.8,7.4,16.3,16.2,16.5v-1.6c-8.1-0.2-14.6-6.8-14.6-14.9V265h14.6v-1.6h-14.6v-15.2
				h-1.6v15.2h-8.4V265z"/>
		</g>
		<g>
			<path class="st0" d="M182,297.5h1.6v-34H182v17.4h-26.4v-32.5H154v49.2h1.6v-15H182V297.5z"/>
		</g>
		<g>
			<path class="st0" d="M209.1,263.4c-8.9,0-16.5,7.5-16.5,16.5v5.6c0,8.8,7.4,16.3,16.2,16.5v-1.7c-8-0.2-14.5-6.7-14.5-14.8v-3.1
				h31.3v-2.5C225.6,270.9,218,263.4,209.1,263.4z M224.2,280.8h-30.1l0.2-2.2c0.9-7.8,7.1-13.5,14.8-13.5c7.6,0,14,5.8,14.9,13.5
				L224.2,280.8z"/>
		</g>
		<g>
			<path class="st0" d="M236.4,302.2h1.5v-23.1c0.8-6.8,6.4-11.9,13.2-12.1v-1.3c-5.1,0.1-9.7,2.8-12.3,7.2l-0.8,1.3v-8.7h-1.5
				V302.2z"/>
		</g>
	</g>
	<g>
		<g>
			<path class="st0" d="M68.2,302.2h1.6v-35h-1.6v9.3l-3.4-3.4c-3.1-3.1-7.2-4.9-11.5-4.9c-8.9,0-16.5,7.5-16.5,16.5
				s7.5,16.5,16.5,16.5c4.2,0,8.4-1.7,11.5-4.6l3.3-3.1V302.2z M53.4,299.6c-8.2,0-14.8-6.7-14.8-14.9c0-8.2,6.6-14.8,14.8-14.8
				c8.2,0,14.9,6.6,14.9,14.8C68.2,292.9,61.6,299.6,53.4,299.6z"/>
		</g>
	</g>
</g>
</svg>
